<?xml version="1.0" standalone="no"?>
<!DOCTYPE svg PUBLIC "-//W3C//DTD SVG 1.1//EN" "http://www.w3.org/Graphics/SVG/1.1/DTD/svg11.dtd" >
<svg>
<metadata>
Created by FontForge 20110222 at Fri May 30 21:08:43 2014
 By deploy user
Copyright (c) Village Type and Design 2003-2007. All rights reserved.
</metadata>
<defs>
<font id="VerizonApex-Medium" horiz-adv-x="600" >
  <font-face 
    font-family="Verizon Apex Medium"
    font-weight="600"
    font-stretch="normal"
    units-per-em="1000"
    panose-1="2 1 6 0 4 5 1 1 1 3"
    ascent="750"
    descent="-250"
    x-height="500"
    cap-height="750"
    bbox="-58 -263 1350 1250"
    underline-thickness="50"
    underline-position="-50"
    unicode-range="U+0020-FB02"
  />
<missing-glyph horiz-adv-x="910" 
d="M80 0v750h750v-750h-750zM193 684l262 -262l262 262h-524zM455 328l-262 -262h524zM502 375l257 -257v514zM408 375l-257 257v-514z" />
    <glyph glyph-name="fi" unicode="fi" horiz-adv-x="684" 
d="M389 753v-96q-42 11 -83 11q-85 0 -85 -65v-103h148v-88h-148v-412h-101v412h-93v62l93 26v105q0 158 186 158q52 0 83 -10zM630 -13h-19q-61 0 -91 28t-30 93v392h101v-395q0 -13 8.5 -18t30.5 -5v-95zM471 667q0 29 20.5 49.5t49.5 20.5t49.5 -20.5t20.5 -49.5
t-20.5 -49.5t-49.5 -20.5t-49.5 20.5t-20.5 49.5z" />
    <glyph glyph-name="fl" unicode="fl" horiz-adv-x="684" 
d="M389 753v-96q-42 11 -83 11q-85 0 -85 -65v-103h148v-88h-148v-412h-101v412h-93v62l93 26v105q0 158 186 158q52 0 83 -10zM630 -13h-19q-61 0 -91 28t-30 93v642h101v-645q0 -13 8.5 -18t30.5 -5v-95z" />
    <glyph glyph-name="f_dotlessi" unicode="f&#x131;" horiz-adv-x="684" 
d="M389 753v-96q-42 11 -83 11q-85 0 -85 -65v-103h148v-88h-148v-412h-101v412h-93v62l93 26v105q0 158 186 158q52 0 83 -10zM630 -13h-19q-61 0 -91 28t-30 93v392h101v-395q0 -13 8.5 -18t30.5 -5v-95z" />
    <glyph glyph-name=".notdef" horiz-adv-x="910" 
d="M80 0v750h750v-750h-750zM193 684l262 -262l262 262h-524zM455 328l-262 -262h524zM502 375l257 -257v514zM408 375l-257 257v-514z" />
    <glyph glyph-name=".null" horiz-adv-x="0" 
 />
    <glyph glyph-name="nonmarkingreturn" horiz-adv-x="333" 
 />
    <glyph glyph-name="space" unicode=" " horiz-adv-x="200" 
 />
    <glyph glyph-name="exclam" unicode="!" horiz-adv-x="220" 
d="M142 210h-64l-36 540h136zM40 57q0 29 20.5 49.5t49.5 20.5t49.5 -20.5t20.5 -49.5t-20.5 -49.5t-49.5 -20.5t-49.5 20.5t-20.5 49.5z" />
    <glyph glyph-name="quotedbl" unicode="&#x22;" horiz-adv-x="390" 
d="M147 500h-74l-31 250h136zM317 500h-74l-31 250h136z" />
    <glyph glyph-name="numbersign" unicode="#" horiz-adv-x="585" 
d="M245 249l43 117h-99l-45 -117h-103l45 117h-76l29 99h85l28 71h-77l29 99h86l43 115h103l-44 -115h101l43 115h103l-44 -115h80l-29 -99h-89l-28 -71h81l-29 -99h-89l-45 -117h-102zM254 536l-28 -71h100l28 71h-100z" />
    <glyph glyph-name="dollar" unicode="$" 
d="M166 485q0 -8 2.5 -15t8 -11.5t11 -8.5t15.5 -6.5t17.5 -4.5t21 -3t21 -2t22.5 -1.5t22 -1.5q127 -10 177.5 -41t50.5 -115q0 -82 -64 -128.5t-184 -47.5l-34 -99h-111l39 105q-74 7 -107 22v102q33 -14 95.5 -22t112.5 -8q69 0 109.5 16t40.5 59q0 12 -5 21.5t-17 15.5
t-21 10t-30.5 7t-30 4t-33.5 3q-65 5 -103 12t-69.5 22.5t-44.5 41.5t-13 67q0 85 63 129t181 44h6l34 99h111l-41 -106q55 -6 94 -23v-98q-73 28 -205 28q-142 0 -142 -66z" />
    <glyph glyph-name="percent" unicode="%" horiz-adv-x="985" 
d="M237 353q-95 0 -138.5 51t-43.5 154t43.5 154t138.5 51q94 0 138 -51.5t44 -153.5t-44 -153.5t-138 -51.5zM748 397q95 0 138.5 -51t43.5 -154t-43.5 -154t-138.5 -51q-94 0 -137.5 51t-43.5 154t43.5 154t137.5 51zM286 0h-119l532 750h119zM237 449q45 0 64 24.5
t19 84.5t-19 85t-64 25t-64 -25t-19 -85t19 -84.5t64 -24.5zM748 301q-44 0 -63.5 -25t-19.5 -84t19.5 -84.5t63.5 -25.5q45 0 64 25t19 85t-19 84.5t-64 24.5z" />
    <glyph glyph-name="ampersand" unicode="&#x26;" horiz-adv-x="731" 
d="M492 574h-100q10 33 10 52q0 39 -63 39q-46 0 -64.5 -30t-18.5 -70q0 -47 13.5 -105t41 -119.5t76 -118t109.5 -89.5q77 53 77 156q0 127 -100 127q-68 0 -134 -24v98q72 23 134 23q93 0 148.5 -55.5t55.5 -168.5q0 -112 -76 -193v-1q37 -6 90 -6v-102q-109 0 -195 34
q-80 -34 -161 -34q-132 0 -208.5 58.5t-76.5 182.5q0 70 33.5 122t86.5 81q-17 69 -17 134q0 35 9.5 68t30 63t58.5 48.5t88 18.5q162 0 162 -137q0 -27 -9 -52zM335 82q22 0 44 4v1q-109 83 -178 245q-47 -34 -47 -104q0 -74 49 -110t132 -36z" />
    <glyph glyph-name="quotesingle" unicode="'" horiz-adv-x="220" 
d="M147 500h-74l-31 250h136z" />
    <glyph glyph-name="parenleft" unicode="(" horiz-adv-x="344" 
d="M299 -206h-109q-48 70 -86.5 205t-38.5 306t38.5 306t86.5 205h109q-48 -70 -87 -205t-39 -306t39 -306t87 -205z" />
    <glyph glyph-name="parenright" unicode=")" horiz-adv-x="344" 
d="M154 -206h-109q48 70 87 205t39 306t-39 306t-87 205h109q48 -70 86.5 -205t38.5 -306t-38.5 -306t-86.5 -205z" />
    <glyph glyph-name="asterisk" unicode="*" horiz-adv-x="420" 
d="M269 750l-19 -133l123 59l31 -110l-129 -23l93 -98l-94 -64l-63 116l-63 -119l-91 69l89 96l-130 23l35 109l121 -58l-19 133h116z" />
    <glyph glyph-name="plus" unicode="+" horiz-adv-x="520" 
d="M309 141h-98v151h-151v98h151v151h98v-151h151v-98h-151v-151z" />
    <glyph glyph-name="comma" unicode="," horiz-adv-x="220" 
d="M109 -114h-51l23 107q-41 18 -41 64q0 29 20.5 49.5t49.5 20.5t49.5 -20.5t20.5 -49.5q0 -18 -8 -34z" />
    <glyph glyph-name="hyphen" unicode="-" horiz-adv-x="370" 
d="M320 390v-98h-270v98h270z" />
    <glyph glyph-name="period" unicode="." horiz-adv-x="220" 
d="M40 57q0 29 20.5 49.5t49.5 20.5t49.5 -20.5t20.5 -49.5t-20.5 -49.5t-49.5 -20.5t-49.5 20.5t-20.5 49.5z" />
    <glyph glyph-name="slash" unicode="/" horiz-adv-x="458" 
d="M107 -206h-107l351 1022h107z" />
    <glyph glyph-name="zero" unicode="0" 
d="M300 -13q-48 0 -84.5 9.5t-61.5 25.5t-42.5 44t-27.5 56.5t-15.5 73t-7 83t-1.5 96.5t1.5 96.5t7 83t15.5 73t27.5 56.5t42.5 44t61.5 25.5t84.5 9.5t84.5 -9.5t61.5 -25.5t42.5 -44t27.5 -56.5t15.5 -73t7 -83t1.5 -96.5t-1.5 -96.5t-7 -83t-15.5 -73t-27.5 -56.5
t-42.5 -44t-61.5 -25.5t-84.5 -9.5zM300 668q-28 0 -49 -8t-35 -19.5t-23.5 -34.5t-15 -42.5t-8 -55.5t-3 -61.5t-0.5 -71.5t0.5 -71.5t3 -61.5t8 -55.5t15 -42.5t23.5 -34.5t35 -19.5t49 -8t49 8t35 19.5t23.5 34.5t15 42.5t8 55.5t3 61.5t0.5 71.5t-0.5 71.5t-3 61.5
t-8 55.5t-15 42.5t-23.5 34.5t-35 19.5t-49 8z" />
    <glyph glyph-name="one" unicode="1" 
d="M490 88v-88h-385v88h139v571l-154 -6v51l209 59h52v-675h139z" />
    <glyph glyph-name="two" unicode="2" 
d="M426 555q0 53 -29 82.5t-108 29.5q-95 0 -194 -42v101q83 37 193 37q242 0 242 -208q0 -93 -93 -193l-247 -264h350v-98h-490v70l338 381q38 44 38 104z" />
    <glyph glyph-name="three" unicode="3" 
d="M266 668q-48 0 -108.5 -9.5t-96.5 -22.5v99q30 12 91.5 20t108.5 8q78 0 131 -16.5t80.5 -47.5t38.5 -66t11 -81q0 -44 -19.5 -89.5t-52.5 -67.5q47 -21 71 -70.5t24 -107.5q0 -49 -12 -87t-40.5 -72t-85.5 -52.5t-139 -18.5q-143 0 -207 33v96q93 -34 212 -34
q52 0 87 11.5t51 32.5t22 42t6 49q0 62 -33 92t-107 30h-155v98h155q62 0 89.5 34.5t27.5 80.5q0 53 -31 84.5t-119 31.5z" />
    <glyph glyph-name="four" unicode="4" 
d="M54 202v62l334 499h70v-466h98v-95h-98v-202h-100v202h-304zM181 297h177v264z" />
    <glyph glyph-name="five" unicode="5" 
d="M259 -13q-146 0 -202 33v99q26 -17 85.5 -27t117.5 -10q183 0 183 153q0 22 -3.5 40t-12 30.5t-16 21t-24 14t-26 8.5t-32 4.5t-32.5 1.5h-36h-182v395h454v-95h-354v-205q51 3 111 3q46 0 80 -4t69.5 -17t57.5 -36t36 -64t14 -97q0 -78 -24.5 -130t-69.5 -76.5
t-89.5 -33t-104.5 -8.5z" />
    <glyph glyph-name="six" unicode="6" 
d="M515 734v-99q-79 31 -182 31q-47 0 -80.5 -19.5t-52 -57t-27.5 -78.5t-13 -97q54 59 148 59q60 0 103.5 -16t67 -39.5t37.5 -59t17.5 -64t3.5 -64.5q0 -34 -4.5 -64.5t-19.5 -64.5t-39 -58t-66.5 -40t-99.5 -16q-63 0 -108 17t-71.5 45t-41.5 75t-19.5 95t-4.5 117
q0 78 6 137.5t24 116t47.5 93t78 58.5t114.5 22q109 0 182 -29zM169 230q0 -148 139 -148q39 0 66 14.5t39.5 39t17 47t4.5 47.5q0 148 -127 148q-42 0 -71 -14t-43 -37.5t-19.5 -47t-5.5 -49.5z" />
    <glyph glyph-name="seven" unicode="7" 
d="M225 0h-115l332 655h-392v95h500v-68z" />
    <glyph glyph-name="eight" unicode="8" 
d="M300 -13q-132 0 -193 63t-61 162q0 55 24 107t69 77q-32 25 -51 68.5t-19 85.5q0 92 55.5 152.5t175.5 60.5t175.5 -60.5t55.5 -152.5q0 -42 -19 -85.5t-51 -68.5q45 -25 69 -77t24 -107q0 -99 -61 -162t-193 -63zM300 341q-72 0 -110 -34t-38 -95q0 -53 34.5 -91.5
t113.5 -38.5t113.5 38.5t34.5 91.5q0 61 -38 95t-110 34zM300 435q63 0 94 35t31 80q0 49 -27.5 83.5t-97.5 34.5t-97.5 -34.5t-27.5 -83.5q0 -45 31 -80t94 -35z" />
    <glyph glyph-name="nine" unicode="9" 
d="M85 16v99q79 -31 182 -31q47 0 80.5 19.5t52 57t27.5 78.5t13 97q-54 -59 -148 -59q-60 0 -103.5 16t-67 39.5t-37.5 59t-17.5 64t-3.5 64.5q0 34 4.5 64.5t19.5 64.5t39 58t66.5 40t99.5 16q63 0 108 -17t71.5 -45t41.5 -75t19.5 -95t4.5 -117q0 -78 -6 -137.5t-24 -116
t-47.5 -93t-78 -58.5t-114.5 -22q-109 0 -182 29zM431 520q0 148 -139 148q-39 0 -66 -14.5t-39.5 -39t-17 -47t-4.5 -47.5q0 -148 127 -148q42 0 71 14t43 37.5t19.5 47t5.5 49.5z" />
    <glyph glyph-name="colon" unicode=":" horiz-adv-x="220" 
d="M40 57q0 29 20.5 49.5t49.5 20.5t49.5 -20.5t20.5 -49.5t-20.5 -49.5t-49.5 -20.5t-49.5 20.5t-20.5 49.5zM40 375q0 29 20.5 49.5t49.5 20.5t49.5 -20.5t20.5 -49.5t-20.5 -49.5t-49.5 -20.5t-49.5 20.5t-20.5 49.5z" />
    <glyph glyph-name="semicolon" unicode=";" horiz-adv-x="220" 
d="M109 -114h-51l23 107q-41 18 -41 64q0 29 20.5 49.5t49.5 20.5t49.5 -20.5t20.5 -49.5q0 -18 -8 -34zM40 375q0 29 20.5 49.5t49.5 20.5t49.5 -20.5t20.5 -49.5t-20.5 -49.5t-49.5 -20.5t-49.5 20.5t-20.5 49.5z" />
    <glyph glyph-name="less" unicode="&#x3c;" horiz-adv-x="365" 
d="M315 223v-103l-270 180v82l270 180v-103l-155 -118z" />
    <glyph glyph-name="equal" unicode="=" horiz-adv-x="520" 
d="M460 473v-99h-400v99h400zM460 308v-99h-400v99h400z" />
    <glyph glyph-name="greater" unicode="&#x3e;" horiz-adv-x="365" 
d="M50 120v103l155 118l-155 118v103l270 -180v-82z" />
    <glyph glyph-name="question" unicode="?" horiz-adv-x="500" 
d="M263 345q-39 -16 -48.5 -44t-9.5 -91h-73q-10 56 -10 81q0 100 113 143q60 24 78 41q29 28 29 80q0 56 -29.5 83.5t-114.5 27.5q-77 0 -163 -30v98q28 11 77.5 20t84.5 9q76 0 127.5 -17t76.5 -48.5t34.5 -64.5t9.5 -77q0 -38 -9 -67.5t-22.5 -49.5t-39.5 -38t-49 -29
t-62 -27zM110 57q0 29 20.5 49.5t49.5 20.5t49.5 -20.5t20.5 -49.5t-20.5 -49.5t-49.5 -20.5t-49.5 20.5t-20.5 49.5z" />
    <glyph glyph-name="at" unicode="@" horiz-adv-x="1012" 
d="M696 0h-62l-10 28q-74 -41 -137 -41q-120 0 -168.5 67.5t-48.5 195.5t48.5 195.5t168.5 67.5q63 0 137 -41l10 28h67v-405q85 6 117.5 65.5t32.5 177.5q0 44 -2.5 77t-11 69t-23.5 61.5t-40.5 49.5t-61 38.5t-86 23.5t-115.5 9q-89 0 -154.5 -24.5t-102 -61.5t-58.5 -95
t-28.5 -111.5t-6.5 -123.5t6.5 -123.5t28.5 -111.5t58.5 -95t102 -61.5t154.5 -24.5q149 0 255 52l1 -110q-108 -39 -256 -39q-112 0 -196 29.5t-132.5 76t-78 116t-39.5 138t-10 153.5t10 153.5t39.5 138t78 116t132.5 76t196 29.5q81 0 146.5 -11.5t111.5 -31t80 -50
t54.5 -65t32.5 -79.5t16.5 -89t4.5 -99q0 -166 -58 -252t-203 -86zM600 106v288q-50 24 -113 24q-35 0 -58.5 -13t-35 -38t-15.5 -52t-4 -65t4 -65t15.5 -52t35 -38t58.5 -13q63 0 113 24z" />
    <glyph glyph-name="A" unicode="A" horiz-adv-x="685" 
d="M155 0h-115l266 763h73l266 -763h-115l-64 199h-248zM435 296l-92 294l-94 -294h186z" />
    <glyph glyph-name="B" unicode="B" horiz-adv-x="649" 
d="M85 0v750h245q127 0 183.5 -56.5t56.5 -149.5q0 -94 -73 -149q48 -24 72.5 -71.5t24.5 -105.5q0 -99 -61 -158.5t-197 -59.5h-251zM191 338v-238h149q141 0 141 118q0 63 -32 91.5t-107 28.5h-151zM457 544q0 48 -25.5 77t-97.5 29h-143v-212h151q115 0 115 106z" />
    <glyph glyph-name="C" unicode="C" horiz-adv-x="644" 
d="M70 375q0 84 15.5 151t49 122t93 85t142.5 30q119 0 204 -37v-107q-106 44 -204 44q-100 0 -145.5 -78t-45.5 -210t45.5 -210t145.5 -78q98 0 204 44v-107q-85 -37 -204 -37q-83 0 -142.5 30t-93 85t-49 122t-15.5 151z" />
    <glyph glyph-name="D" unicode="D" horiz-adv-x="687" 
d="M298 0h-213v750h213q90 0 154 -28t99 -80.5t50.5 -117.5t15.5 -149t-15.5 -149t-50.5 -117.5t-99 -80.5t-154 -28zM190 650v-550h112q110 0 157 72.5t47 202.5t-47 202.5t-157 72.5h-112z" />
    <glyph glyph-name="E" unicode="E" horiz-adv-x="606" 
d="M503 438v-100h-313v-238h346v-100h-451v750h451v-100h-346v-212h313z" />
    <glyph glyph-name="F" unicode="F" horiz-adv-x="588" 
d="M494 438v-100h-303v-338h-106v750h443v-100h-337v-212h303z" />
    <glyph glyph-name="G" unicode="G" horiz-adv-x="692" 
d="M370 -13q-83 0 -142.5 30t-93 85t-49 122t-15.5 151t15.5 151t49 122t93 85t142.5 30q127 0 219 -45v-106q-124 51 -219 51q-101 0 -146.5 -78t-45.5 -210t45.5 -210t146.5 -78q82 0 132 15v210h-147v100h252v-379q-101 -46 -237 -46z" />
    <glyph glyph-name="H" unicode="H" horiz-adv-x="694" 
d="M609 0h-105v338h-314v-338h-105v750h105v-312h314v312h105v-750z" />
    <glyph glyph-name="I" unicode="I" horiz-adv-x="319" 
d="M212 0h-105v750h105v-750z" />
    <glyph glyph-name="J" unicode="J" horiz-adv-x="428" 
d="M45 -1v99q49 -12 86 -12q85 0 85 61v603h105v-601q0 -162 -190 -162q-37 0 -86 12z" />
    <glyph glyph-name="K" unicode="K" horiz-adv-x="648" 
d="M230 326l-42 -49v-277h-103v750h103v-337l265 337h138l-293 -344l320 -406h-138z" />
    <glyph glyph-name="L" unicode="L" horiz-adv-x="568" 
d="M190 750v-650h328v-100h-433v750h105z" />
    <glyph glyph-name="M" unicode="M" horiz-adv-x="864" 
d="M681 583l-209 -483h-80l-209 483l5 -583h-103v750h127l220 -514l220 514h127v-750h-103z" />
    <glyph glyph-name="N" unicode="N" horiz-adv-x="702" 
d="M617 0h-83l-349 544l2 -544h-102v750h83l349 -544l-2 544h102v-750z" />
    <glyph glyph-name="O" unicode="O" horiz-adv-x="710" 
d="M640 375q0 -66 -5 -116.5t-23 -104t-48 -88t-83 -57t-126 -22.5t-126 22.5t-83 57t-47.5 88t-23 104t-5.5 116.5t5.5 116.5t23 104t47.5 88t83 57t126 22.5t126 -22.5t83 -57t48 -88t23 -104t5 -116.5zM532 375q0 66 -6 112t-24 89t-54.5 65t-92.5 22t-92.5 -22
t-54.5 -65t-24 -89t-6 -112t6 -112t24 -89t54.5 -65t92.5 -22t92.5 22t54.5 65t24 89t6 112z" />
    <glyph glyph-name="P" unicode="P" horiz-adv-x="626" 
d="M191 285v-285h-106v750h238q134 0 196 -65.5t62 -166.5q0 -102 -62 -167.5t-196 -65.5h-132zM191 650v-265h135q141 0 141 133q0 132 -141 132h-135z" />
    <glyph glyph-name="Q" unicode="Q" horiz-adv-x="710" 
d="M514 27v-1l224 -40v-110l-473 123q-50 13 -86 40.5t-56.5 61.5t-33 82t-16 91.5t-3.5 100.5q0 66 5.5 116.5t23 104t47.5 88t83 57t126 22.5t126 -22.5t83 -57t48 -88t23 -104t5 -116.5q0 -128 -26 -216t-100 -132zM532 375q0 66 -6 112t-24 89t-54.5 65t-92.5 22
t-92.5 -22t-54.5 -65t-24 -89t-6 -112t6 -112t24 -89t54.5 -65t92.5 -22t92.5 22t54.5 65t24 89t6 112z" />
    <glyph glyph-name="R" unicode="R" horiz-adv-x="671" 
d="M190 312v-312h-105v750h242q138 0 195.5 -55.5t57.5 -162.5q0 -158 -124 -202q13 -24 78.5 -147t96.5 -183h-130l-153 312h-158zM190 650v-238h151q76 0 101 30.5t25 89.5q0 57 -25.5 87.5t-100.5 30.5h-151z" />
    <glyph glyph-name="S" unicode="S" horiz-adv-x="631" 
d="M323 663q-87 0 -119.5 -32.5t-32.5 -88.5q0 -24 7.5 -40.5t18 -26.5t33.5 -17.5t42 -11t56 -8.5q121 -14 180 -61.5t59 -152.5q0 -44 -13 -82.5t-43 -75t-88.5 -58t-139.5 -21.5q-51 0 -114.5 13t-104.5 32v103q6 -2 21.5 -8.5t21.5 -8.5t20 -7t21.5 -7t21 -5.5t24.5 -5
t25.5 -3.5t30.5 -2.5t34 -0.5q173 0 173 137q0 58 -31.5 80.5t-116.5 33.5h1q-136 17 -191 63t-55 142q0 38 11 73t37 70t80 56t131 21q117 0 205 -41v-106q-101 47 -205 47z" />
    <glyph glyph-name="T" unicode="T" horiz-adv-x="585" 
d="M543 650h-198v-650h-105v650h-198v100h501v-100z" />
    <glyph glyph-name="U" unicode="U" horiz-adv-x="702" 
d="M351 88q166 0 166 164v498h105v-511q0 -62 -20 -109.5t-48.5 -73.5t-67.5 -42.5t-71 -21.5t-64 -5t-64 5t-71 21.5t-67.5 42.5t-48.5 73.5t-20 109.5v511h105v-498q0 -164 166 -164z" />
    <glyph glyph-name="V" unicode="V" horiz-adv-x="685" 
d="M343 163l187 587h115l-266 -763h-73l-266 763h115z" />
    <glyph glyph-name="W" unicode="W" horiz-adv-x="908" 
d="M258 181l145 569h101l146 -570l105 570h113l-166 -763h-97l-151 593l-152 -593h-96l-166 763h113z" />
    <glyph glyph-name="X" unicode="X" horiz-adv-x="692" 
d="M346 457l178 293h128l-243 -370l248 -380h-131l-180 300l-180 -300h-131l248 380l-243 370h128z" />
    <glyph glyph-name="Y" unicode="Y" horiz-adv-x="726" 
d="M686 750l-271 -441v-309h-104v309l-271 441h126l197 -350l197 350h126z" />
    <glyph glyph-name="Z" unicode="Z" horiz-adv-x="642" 
d="M592 0h-542v68l386 582h-367v100h509v-68l-387 -582h401v-100z" />
    <glyph glyph-name="bracketleft" unicode="[" horiz-adv-x="284" 
d="M180 716v-822h64v-100h-169v1022h169v-100h-64z" />
    <glyph glyph-name="backslash" unicode="\" horiz-adv-x="458" 
d="M458 -206h-107l-351 1022h107z" />
    <glyph glyph-name="bracketright" unicode="]" horiz-adv-x="284" 
d="M104 -106v822h-64v100h169v-1022h-169v100h64z" />
    <glyph glyph-name="asciicircum" unicode="^" horiz-adv-x="540" 
d="M227 750h106l180 -250h-66l-167 177l-167 -177h-66z" />
    <glyph glyph-name="underscore" unicode="_" horiz-adv-x="320" 
d="M320 -184v-66h-320v66h320z" />
    <glyph glyph-name="grave" unicode="`" horiz-adv-x="540" 
d="M308 575h-56l-145 175h121z" />
    <glyph glyph-name="a" unicode="a" horiz-adv-x="525" 
d="M353 338q0 42 -20 61t-72 19q-94 0 -171 -30v95q28 13 80.5 21.5t90.5 8.5q109 0 151.5 -44.5t42.5 -129.5v-339h-69l-9 26q-64 -39 -140 -39q-96 0 -139 48.5t-43 122.5q0 67 41 110t144 51l113 9v10zM353 244l-114 -10q-81 -8 -81 -76q0 -15 2.5 -26.5t10.5 -24t25 -19
t43 -6.5q62 0 114 31v131z" />
    <glyph glyph-name="b" unicode="b" horiz-adv-x="561" 
d="M70 0v750h101v-264q60 27 113 27q120 0 168.5 -67.5t48.5 -195.5t-48.5 -195.5t-168.5 -67.5q-63 0 -137 41l-10 -28h-67zM208 408q-24 -6 -37 -13v-289q50 -24 113 -24q35 0 58.5 13t35 38t15.5 52t4 65q0 80 -23 124t-90 44q-36 0 -76 -10z" />
    <glyph glyph-name="c" unicode="c" horiz-adv-x="493" 
d="M164 250q0 -78 25.5 -123t93.5 -45q73 0 157 29v-95q-62 -29 -157 -29q-120 0 -171.5 68t-51.5 195t51.5 195t171.5 68q95 0 157 -29v-95q-84 29 -157 29q-68 0 -93.5 -45t-25.5 -123z" />
    <glyph glyph-name="d" unicode="d" horiz-adv-x="561" 
d="M491 750v-750h-67l-10 28q-74 -41 -137 -41q-120 0 -168.5 67.5t-48.5 195.5t48.5 195.5t168.5 67.5q53 0 113 -27v264h101zM353 408q-40 10 -76 10q-67 0 -90 -44t-23 -124q0 -38 4 -65t15.5 -52t35 -38t58.5 -13q63 0 113 24v289q-13 7 -37 13z" />
    <glyph glyph-name="e" unicode="e" horiz-adv-x="542" 
d="M482 202h-316q14 -120 117 -120q89 0 172 36v-97q-75 -34 -172 -34q-120 0 -171.5 68t-51.5 195t51.5 195t171.5 68q51 0 88 -14.5t58 -37t33 -59t16 -71t4 -81.5v-48zM283 418q-60 0 -86 -33t-32 -94h211q-1 60 -19 93.5t-74 33.5z" />
    <glyph glyph-name="f" unicode="f" horiz-adv-x="409" 
d="M389 753v-96q-42 11 -83 11q-85 0 -85 -65v-103h148v-88h-148v-412h-101v412h-93v62l93 26v105q0 158 186 158q52 0 83 -10z" />
    <glyph glyph-name="g" unicode="g" horiz-adv-x="548" 
d="M455 318q0 -195 -200 -195q-24 0 -35 1q-25 -17 -25 -30q0 -15 18 -18l159 -19q72 -9 108 -42t36 -101q0 -89 -74 -133t-187 -44q-227 0 -227 163q0 77 84 121v1q-18 23 -18 59q0 41 35 72q-74 47 -74 165q0 195 200 195q49 0 90 -13h161v-68l-68 -19q17 -40 17 -95z
M153 318q0 -48 20 -74t82 -26q63 0 83 26.5t20 73.5t-20 73.5t-83 26.5q-62 0 -82 -26t-20 -74zM355 -32l-130 15q-95 -30 -95 -83q0 -39 29.5 -53.5t95.5 -14.5q158 0 158 82q0 26 -13 38t-45 16z" />
    <glyph glyph-name="h" unicode="h" horiz-adv-x="536" 
d="M368 0v354q0 64 -81 64q-66 0 -116 -24v-394h-101v750h101v-264q54 27 116 27q91 0 137.5 -42t46.5 -119v-352h-103z" />
    <glyph glyph-name="i" unicode="i" horiz-adv-x="275" 
d="M221 -13h-19q-61 0 -91 28t-30 93v392h101v-395q0 -13 8.5 -18t30.5 -5v-95zM62 667q0 29 20.5 49.5t49.5 20.5t49.5 -20.5t20.5 -49.5t-20.5 -49.5t-49.5 -20.5t-49.5 20.5t-20.5 49.5z" />
    <glyph glyph-name="j" unicode="j" horiz-adv-x="264" 
d="M-38 -260v92q50 6 84.5 27.5t34.5 61.5v579h101v-588q0 -75 -67.5 -121t-152.5 -51zM62 667q0 29 20.5 49.5t49.5 20.5t49.5 -20.5t20.5 -49.5t-20.5 -49.5t-49.5 -20.5t-49.5 20.5t-20.5 49.5z" />
    <glyph glyph-name="k" unicode="k" horiz-adv-x="528" 
d="M346 500h148l-219 -210l239 -290h-140l-167 225l-36 -35v-190h-101v750h101v-438z" />
    <glyph glyph-name="l" unicode="l" horiz-adv-x="275" 
d="M221 -13h-19q-61 0 -91 28t-30 93v642h101v-645q0 -13 8.5 -18t30.5 -5v-95z" />
    <glyph glyph-name="m" unicode="m" horiz-adv-x="818" 
d="M439 472q65 41 135 41q179 0 179 -161v-352h-103v345q0 73 -76 73q-61 0 -111 -24l-3 -2q3 -18 3 -40v-352h-103v345q0 73 -76 73q-61 0 -111 -24v-394h-103v500h69l10 -28q65 41 135 41q97 0 142 -50z" />
    <glyph glyph-name="n" unicode="n" horiz-adv-x="538" 
d="M370 0v354q0 64 -81 64q-66 0 -116 -24v-394h-103v500h69l10 -28q62 41 140 41q91 0 137.5 -42t46.5 -119v-352h-103z" />
    <glyph glyph-name="o" unicode="o" horiz-adv-x="554" 
d="M494 250q0 -64 -8.5 -108t-31.5 -81t-67 -55.5t-110 -18.5q-126 0 -171.5 66.5t-45.5 196.5t45.5 196.5t171.5 66.5q66 0 110 -18.5t67 -55.5t31.5 -81t8.5 -108zM392 250q0 41 -3.5 67t-14.5 51.5t-35 37.5t-62 12q-31 0 -53 -9t-34 -22.5t-18.5 -37t-8 -45t-1.5 -54.5
t1.5 -54.5t8 -45t18.5 -37t34 -22.5t53 -9q38 0 62 12t35 37.5t14.5 51.5t3.5 67z" />
    <glyph glyph-name="p" unicode="p" horiz-adv-x="561" 
d="M70 -250v750h67l10 -28q74 41 137 41q120 0 168.5 -67.5t48.5 -195.5t-48.5 -195.5t-168.5 -67.5q-53 0 -113 27v-264h-101zM208 92q40 -10 76 -10q67 0 90 44t23 124q0 38 -4 65t-15.5 52t-35 38t-58.5 13q-63 0 -113 -24v-289q13 -7 37 -13z" />
    <glyph glyph-name="q" unicode="q" horiz-adv-x="561" 
d="M491 500v-750h-101v264q-60 -27 -113 -27q-120 0 -168.5 67.5t-48.5 195.5t48.5 195.5t168.5 67.5q63 0 137 -41l10 28h67zM353 92q24 6 37 13v289q-50 24 -113 24q-35 0 -58.5 -13t-35 -38t-15.5 -52t-4 -65q0 -80 23 -124t90 -44q36 0 76 10z" />
    <glyph glyph-name="r" unicode="r" horiz-adv-x="403" 
d="M363 505v-102q-42 15 -74 15q-62 0 -116 -24v-394h-103v500h69l10 -28q65 41 140 41q39 0 74 -8z" />
    <glyph glyph-name="s" unicode="s" horiz-adv-x="486" 
d="M157 354q0 -23 18.5 -34.5t72.5 -16.5q104 -10 141.5 -45.5t37.5 -106.5q0 -69 -49 -116.5t-156 -47.5q-36 0 -83 8.5t-75 19.5v97q86 -30 159 -30q104 0 104 68q0 28 -18 42.5t-72 19.5q-103 9 -140.5 44.5t-37.5 97.5q0 65 46 112t146 47q87 0 153 -29v-95
q-89 29 -154 29q-53 0 -73 -16.5t-20 -47.5z" />
    <glyph glyph-name="t" unicode="t" horiz-adv-x="409" 
d="M348 86v-93q-25 -6 -63 -6q-68 0 -116.5 35.5t-48.5 104.5v285h-93v62l93 26v126l101 28v-154h148v-88h-148v-276q0 -54 72 -54q33 0 55 4z" />
    <glyph glyph-name="u" unicode="u" horiz-adv-x="538" 
d="M168 500v-354q0 -64 81 -64q66 0 116 24v394h103v-500h-69l-10 28q-62 -41 -140 -41q-91 0 -137.5 42t-46.5 119v352h103z" />
    <glyph glyph-name="v" unicode="v" horiz-adv-x="513" 
d="M257 139l118 361h113l-196 -513h-71l-196 513h112z" />
    <glyph glyph-name="w" unicode="w" horiz-adv-x="711" 
d="M404 500l100 -338l75 338h107l-141 -513h-79l-110 382l-111 -382h-79l-141 513h108l76 -339l98 339h97z" />
    <glyph glyph-name="x" unicode="x" horiz-adv-x="520" 
d="M260 184l-122 -184h-123l185 257l-175 243h122l113 -174l112 174h123l-175 -243l185 -257h-124z" />
    <glyph glyph-name="y" unicode="y" horiz-adv-x="515" 
d="M25 500h116l117 -361l117 361h115l-288 -750h-112l120 274z" />
    <glyph glyph-name="z" unicode="z" horiz-adv-x="470" 
d="M435 0h-400v67l255 338h-241v95h377v-67l-255 -338h264v-95z" />
    <glyph glyph-name="braceleft" unicode="{" horiz-adv-x="262" 
d="M185 382q1 -43 -28 -77q29 -36 28 -77l-18 -311q-1 -9 4.5 -14.5t16.5 -5.5h34v-103h-34q-62 0 -96.5 30.5t-30.5 94.5l17 314q2 19 -18 21h-32v102h28q12 0 17.5 5.5t4.5 15.5l-17 314q-4 64 30.5 94.5t96.5 30.5h34v-103h-34q-11 0 -16.5 -5.5t-4.5 -14.5z" />
    <glyph glyph-name="bar" unicode="|" horiz-adv-x="299" 
d="M202 816v-1022h-105v1022h105z" />
    <glyph glyph-name="braceright" unicode="}" horiz-adv-x="262" 
d="M77 382l18 311q1 9 -4.5 14.5t-16.5 5.5h-34v103h34q62 0 96.5 -30.5t30.5 -94.5l-17 -314q-1 -10 4.5 -15.5t17.5 -5.5h28v-102h-28q-12 0 -17.5 -5.5t-4.5 -15.5l17 -314q4 -64 -30.5 -94.5t-96.5 -30.5h-34v103h34q11 0 16.5 5.5t4.5 14.5l-18 311q-3 39 27 77
q-30 37 -27 77z" />
    <glyph glyph-name="asciitilde" unicode="~" horiz-adv-x="370" 
d="M335 405v-78q-37 27 -75 27q-21 0 -41.5 -16t-45.5 -32t-57 -16q-45 0 -81 36v78q37 -27 75 -27q21 0 41.5 16t45.5 32t57 16q45 0 81 -36z" />
    <glyph glyph-name="exclamdown" unicode="&#xa1;" horiz-adv-x="220" 
d="M78 290h64l36 -540h-136zM40 443q0 29 20.5 49.5t49.5 20.5t49.5 -20.5t20.5 -49.5t-20.5 -49.5t-49.5 -20.5t-49.5 20.5t-20.5 49.5z" />
    <glyph glyph-name="cent" unicode="&#xa2;" 
d="M60 375q0 276 281 276h4l34 99h111l-41 -108q57 -8 97 -24v-98q-86 33 -211 33q-171 0 -171 -178t171 -178q125 0 211 33v-98q-79 -33 -205 -33h-24l-34 -99h-111l43 117q-155 51 -155 258z" />
    <glyph glyph-name="sterling" unicode="&#xa3;" 
d="M218 569v-131h253v-94h-253v-250h337v-94h-505v94h65v250h-65v94h65v130q0 195 226 195q40 0 100 -9.5t95 -24.5v-94q-97 33 -195 33q-123 0 -123 -99z" />
    <glyph glyph-name="currency" unicode="&#xa4;" horiz-adv-x="546" 
d="M90 401h-55v99h61q14 134 74.5 198.5t189.5 64.5q93 0 157 -27v-97q-80 26 -157 26q-72 0 -108.5 -40.5t-48.5 -124.5h260l-33 -99h-234v-52h217l-33 -99h-177q12 -85 48.5 -125t108.5 -40q77 0 157 26v-97q-64 -27 -157 -27q-129 0 -189.5 64.5t-74.5 198.5h-61v99h55
v52z" />
    <glyph glyph-name="yen" unicode="&#xa5;" 
d="M55 250v99h160l-27 52h-133v99h82l-130 250h124l169 -345l169 345h124l-130 -250h82v-99h-134l-27 -52h161v-99h-193v-250h-104v250h-193z" />
    <glyph glyph-name="brokenbar" unicode="&#xa6;" horiz-adv-x="299" 
d="M97 354v462h105v-462h-105zM202 256v-462h-105v462h105z" />
    <glyph glyph-name="section" unicode="&#xa7;" horiz-adv-x="649" 
d="M606 228q0 -107 -82 -169q24 -41 24 -105q0 -39 -11.5 -73.5t-38.5 -68.5t-82.5 -54.5t-133.5 -20.5q-112 0 -208 41v108q110 -49 209 -49q89 0 123 31t34 87q0 24 -8.5 41t-18.5 27t-36.5 18.5t-42.5 12t-57 11.5h1q-139 23 -187 65t-48 142q0 106 81 169
q-23 39 -23 105q0 39 11.5 73.5t38.5 68.5t82.5 54.5t133.5 20.5q112 0 208 -41v-108q-110 49 -209 49q-89 0 -123 -31t-34 -87q0 -24 8.5 -41t18.5 -27t36.5 -18.5t42.5 -12t57 -11.5h-1q139 -23 187 -65t48 -142zM354 335q-91 16 -139 36q-64 -33 -64 -100
q0 -17 3.5 -30.5t7 -22.5t16 -17t18.5 -12t28.5 -9t31 -7t40.5 -8h-1q85 -15 139 -36q64 34 64 100q0 17 -3.5 30.5t-7 22.5t-16 17t-18.5 12t-28.5 9t-31 7t-40.5 8h1z" />
    <glyph glyph-name="dieresis" unicode="&#xa8;" horiz-adv-x="540" 
d="M100 667q0 29 20.5 49.5t49.5 20.5t49.5 -20.5t20.5 -49.5t-20.5 -49.5t-49.5 -20.5t-49.5 20.5t-20.5 49.5zM320 667q0 29 20.5 49.5t49.5 20.5t49.5 -20.5t20.5 -49.5t-20.5 -49.5t-49.5 -20.5t-49.5 20.5t-20.5 49.5z" />
    <glyph glyph-name="copyright" unicode="&#xa9;" horiz-adv-x="680" 
d="M340 -13q-59 0 -103.5 11t-83.5 38.5t-60 81.5t-21 132t21 132t60 81.5t83.5 38.5t103.5 11t103.5 -11t83.5 -38.5t60 -81.5t21 -132t-21 -132t-60 -81.5t-83.5 -38.5t-103.5 -11zM340 71q89 0 134 36.5t45 142.5t-45 142.5t-134 36.5t-134 -36.5t-45 -142.5t45 -142.5
t134 -36.5zM340 183q34 0 92 15v-82q-50 -11 -92 -11q-69 0 -102.5 33.5t-33.5 111.5t33.5 111.5t102.5 33.5q42 0 92 -11v-82q-58 15 -92 15q-29 0 -41.5 -14t-12.5 -53t12.5 -53t41.5 -14z" />
    <glyph glyph-name="ordfeminine" unicode="&#xaa;" horiz-adv-x="400" 
d="M39 499q0 116 145 126l65 4q-1 23 -12.5 33.5t-39.5 10.5q-49 0 -125 -27v91q62 26 125 26q85 0 117 -35t32 -102v-251h-69l-5 13q-48 -21 -89 -21q-76 0 -110 33.5t-34 98.5zM249 545l-63 -5q-49 -4 -49 -41q0 -42 48 -42q28 0 64 16v72z" />
    <glyph glyph-name="guillemotleft" unicode="&#xab;" horiz-adv-x="495" 
d="M55 204v92l190 140v-87l-107 -99l107 -99v-88zM245 204v92l190 140v-87l-107 -99l107 -99v-88z" />
    <glyph glyph-name="logicalnot" unicode="&#xac;" horiz-adv-x="660" 
d="M580 0h-500v500h500v-500z" />
    <glyph glyph-name="uni00AD" unicode="&#xad;" horiz-adv-x="370" 
d="M320 390v-98h-270v98h270z" />
    <glyph glyph-name="registered" unicode="&#xae;" horiz-adv-x="344" 
d="M172 763q64 0 102 -29.5t38 -108.5q0 -78 -38 -108t-102 -30t-102 30t-38 108q0 79 38 108.5t102 29.5zM172 721q-47 0 -71 -19.5t-24 -76.5t24 -76.5t71 -19.5t71 19.5t24 76.5t-24 76.5t-71 19.5zM175 600h-23v-50h-40v150h67q53 0 53 -49q0 -30 -19 -43l28 -58h-45z
M189 651q0 10 -12 10h-25v-22h25q12 0 12 12z" />
    <glyph glyph-name="macron" unicode="&#xaf;" horiz-adv-x="540" 
d="M407 641h-274v91h274v-91z" />
    <glyph glyph-name="degree" unicode="&#xb0;" horiz-adv-x="366" 
d="M183 487q-60 0 -100.5 32t-40.5 106t40.5 106t100.5 32t100.5 -32t40.5 -106t-40.5 -106t-100.5 -32zM183 689q-63 0 -63 -64t63 -64t63 64t-63 64z" />
    <glyph glyph-name="plusminus" unicode="&#xb1;" horiz-adv-x="520" 
d="M309 191h-98v151h-151v98h151v151h98v-151h151v-98h-151v-151zM460 43h-400v98h400v-98z" />
    <glyph glyph-name="acute" unicode="&#xb4;" horiz-adv-x="540" 
d="M308 575h-56l80 175h121z" />
    <glyph glyph-name="mu" unicode="&#xb5;" horiz-adv-x="538" 
d="M65 -250v750h103v-358q1 -60 81 -60q66 0 116 24v394h103v-500h-69l-10 28q-62 -41 -140 -41q-45 0 -81 11v-248h-103z" />
    <glyph glyph-name="paragraph" unicode="&#xb6;" horiz-adv-x="606" 
d="M346 0h-105v288q-107 13 -156.5 76t-49.5 154q0 101 62 166.5t196 65.5h238v-750h-106v285h-79v-285zM425 385v265h-79v-265h79zM149 518q0 -108 92 -128v255q-92 -20 -92 -127z" />
    <glyph glyph-name="periodcentered" unicode="&#xb7;" horiz-adv-x="220" 
d="M40 375q0 29 20.5 49.5t49.5 20.5t49.5 -20.5t20.5 -49.5t-20.5 -49.5t-49.5 -20.5t-49.5 20.5t-20.5 49.5z" />
    <glyph glyph-name="cedilla" unicode="&#xb8;" horiz-adv-x="602" 
d="M320 -185h-102q23 20 32 42.5t-8 36.5q-60 32 1 106h71q-38 -48 1 -71q30 -17 35 -41t-5 -41t-25 -32z" />
    <glyph glyph-name="ordmasculine" unicode="&#xba;" horiz-adv-x="469" 
d="M56 565q0 99 42 148.5t133 49.5q182 0 182 -198t-182 -198q-91 0 -133 49.5t-42 148.5zM151 565q0 -57 19 -81.5t61 -24.5q45 0 66.5 25t21.5 81t-21.5 81t-66.5 25q-42 0 -61 -24.5t-19 -81.5z" />
    <glyph glyph-name="guillemotright" unicode="&#xbb;" horiz-adv-x="495" 
d="M440 296v-92l-190 -141v88l107 99l-107 99v87zM250 296v-92l-190 -141v88l107 99l-107 99v87z" />
    <glyph glyph-name="questiondown" unicode="&#xbf;" horiz-adv-x="500" 
d="M217 155q39 16 48.5 44t9.5 91h73q10 -56 10 -81q0 -100 -113 -143q-60 -24 -78 -41q-29 -28 -29 -80q0 -56 29.5 -83.5t114.5 -27.5q77 0 163 30v-98q-28 -11 -77.5 -20t-84.5 -9q-76 0 -127.5 17t-76.5 48.5t-34.5 64.5t-9.5 77q0 38 9 67.5t22.5 49.5t39.5 38t49 29
t62 27zM370 443q0 -29 -20.5 -49.5t-49.5 -20.5t-49.5 20.5t-20.5 49.5t20.5 49.5t49.5 20.5t49.5 -20.5t20.5 -49.5z" />
    <glyph glyph-name="Agrave" unicode="&#xc0;" horiz-adv-x="685" 
d="M155 0h-115l266 763h73l266 -763h-115l-64 199h-248zM435 296l-92 294l-94 -294h186zM371 825h-56l-145 175h121z" />
    <glyph glyph-name="Aacute" unicode="&#xc1;" horiz-adv-x="685" 
d="M155 0h-115l266 763h73l266 -763h-115l-64 199h-248zM435 296l-92 294l-94 -294h186zM371 825h-56l80 175h121z" />
    <glyph glyph-name="Acircumflex" unicode="&#xc2;" horiz-adv-x="685" 
d="M155 0h-115l266 763h73l266 -763h-115l-64 199h-248zM521 825h-56l-122 105l-122 -105h-56l125 175h106zM435 296l-92 294l-94 -294h186z" />
    <glyph glyph-name="Atilde" unicode="&#xc3;" horiz-adv-x="685" 
d="M155 0h-115l266 763h73l266 -763h-115l-64 199h-248zM435 296l-92 294l-94 -294h186zM458 981l80 -7q-1 -71 -32 -104.5t-93 -32.5q-35 0 -60 15.5t-43 31t-37 15.5t-29 -9t-12.5 -19t-3.5 -27l-80 7q1 71 32 105t93 33q28 -1 50 -11t33 -21.5t26 -21t31 -9.5q19 0 29 9
t12.5 19.5t3.5 26.5z" />
    <glyph glyph-name="Adieresis" unicode="&#xc4;" horiz-adv-x="685" 
d="M155 0h-115l266 763h73l266 -763h-115l-64 199h-248zM435 296l-92 294l-94 -294h186zM163 917q0 29 20.5 49.5t49.5 20.5t49.5 -20.5t20.5 -49.5t-20.5 -49.5t-49.5 -20.5t-49.5 20.5t-20.5 49.5zM383 917q0 29 20.5 49.5t49.5 20.5t49.5 -20.5t20.5 -49.5t-20.5 -49.5
t-49.5 -20.5t-49.5 20.5t-20.5 49.5z" />
    <glyph glyph-name="Aring" unicode="&#xc5;" horiz-adv-x="685" 
d="M155 0h-115l266 763h73l266 -763h-115l-64 199h-248zM444 912q0 -50 -27 -75t-74 -25q-48 0 -75 25t-27 75q0 51 27 76t75 25q47 0 74 -25t27 -76zM435 296l-92 294l-94 -294h186zM387 912q0 45 -44 45q-23 0 -33.5 -10t-10.5 -35q0 -43 44 -43t44 43z" />
    <glyph glyph-name="AE" unicode="&#xc6;" horiz-adv-x="1020" 
d="M124 0h-125l493 750h459v-100h-347v-212h313v-100h-313v-238h347v-100h-452v338h-158zM405 438h94v147z" />
    <glyph glyph-name="Ccedilla" unicode="&#xc7;" horiz-adv-x="644" 
d="M70 375q0 84 15.5 151t49 122t93 85t142.5 30q119 0 204 -37v-107q-106 44 -204 44q-100 0 -145.5 -78t-45.5 -210t45.5 -210t145.5 -78q98 0 204 44v-107q-78 -33 -180 -36q-25 -39 11 -59q30 -17 35 -41t-5 -41t-25 -32h-102q23 20 32 42.5t-8 36.5q-56 30 -7 96
q-255 28 -255 385z" />
    <glyph glyph-name="Egrave" unicode="&#xc8;" horiz-adv-x="606" 
d="M503 438v-100h-313v-238h346v-100h-451v750h451v-100h-346v-212h313zM339 825h-56l-145 175h121z" />
    <glyph glyph-name="Eacute" unicode="&#xc9;" horiz-adv-x="606" 
d="M503 438v-100h-313v-238h346v-100h-451v750h451v-100h-346v-212h313zM339 825h-56l80 175h121z" />
    <glyph glyph-name="Ecircumflex" unicode="&#xca;" horiz-adv-x="606" 
d="M503 438v-100h-313v-238h346v-100h-451v750h451v-100h-346v-212h313zM489 825h-56l-122 105l-122 -105h-56l125 175h106z" />
    <glyph glyph-name="Edieresis" unicode="&#xcb;" horiz-adv-x="606" 
d="M503 438v-100h-313v-238h346v-100h-451v750h451v-100h-346v-212h313zM351 917q0 29 20.5 49.5t49.5 20.5t49.5 -20.5t20.5 -49.5t-20.5 -49.5t-49.5 -20.5t-49.5 20.5t-20.5 49.5zM131 917q0 29 20.5 49.5t49.5 20.5t49.5 -20.5t20.5 -49.5t-20.5 -49.5t-49.5 -20.5
t-49.5 20.5t-20.5 49.5z" />
    <glyph glyph-name="Igrave" unicode="&#xcc;" horiz-adv-x="319" 
d="M212 0h-105v750h105v-750zM188 825h-56l-145 175h121z" />
    <glyph glyph-name="Iacute" unicode="&#xcd;" horiz-adv-x="319" 
d="M212 0h-105v750h105v-750zM188 825h-56l80 175h121z" />
    <glyph glyph-name="Icircumflex" unicode="&#xce;" horiz-adv-x="319" 
d="M212 0h-105v750h105v-750zM338 825h-56l-122 105l-122 -105h-56l125 175h106z" />
    <glyph glyph-name="Idieresis" unicode="&#xcf;" horiz-adv-x="319" 
d="M212 0h-105v750h105v-750zM200 917q0 29 20.5 49.5t49.5 20.5t49.5 -20.5t20.5 -49.5t-20.5 -49.5t-49.5 -20.5t-49.5 20.5t-20.5 49.5zM-20 917q0 29 20.5 49.5t49.5 20.5t49.5 -20.5t20.5 -49.5t-20.5 -49.5t-49.5 -20.5t-49.5 20.5t-20.5 49.5z" />
    <glyph glyph-name="Eth" unicode="&#xd0;" horiz-adv-x="717" 
d="M328 750q90 0 154 -28t99 -80.5t50.5 -117.5t15.5 -149t-15.5 -149t-50.5 -117.5t-99 -80.5t-154 -28h-213v336h-90v82h90v332h213zM220 650v-232h135v-82h-135v-236h112q110 0 157 72.5t47 202.5t-47 202.5t-157 72.5h-112z" />
    <glyph glyph-name="Ntilde" unicode="&#xd1;" horiz-adv-x="702" 
d="M617 0h-83l-349 544l2 -544h-102v750h83l349 -544l-2 544h102v-750zM466 981l80 -7q-1 -71 -32 -104.5t-93 -32.5q-35 0 -60 15.5t-43 31t-37 15.5t-29 -9t-12.5 -19t-3.5 -27l-80 7q1 71 32 105t93 33q28 -1 50 -11t33 -21.5t26 -21t31 -9.5q19 0 29 9t12.5 19.5
t3.5 26.5z" />
    <glyph glyph-name="Ograve" unicode="&#xd2;" horiz-adv-x="710" 
d="M640 375q0 -66 -5 -116.5t-23 -104t-48 -88t-83 -57t-126 -22.5t-126 22.5t-83 57t-47.5 88t-23 104t-5.5 116.5t5.5 116.5t23 104t47.5 88t83 57t126 22.5t126 -22.5t83 -57t48 -88t23 -104t5 -116.5zM532 375q0 66 -6 112t-24 89t-54.5 65t-92.5 22t-92.5 -22
t-54.5 -65t-24 -89t-6 -112t6 -112t24 -89t54.5 -65t92.5 -22t92.5 22t54.5 65t24 89t6 112zM383 825h-56l-145 175h121z" />
    <glyph glyph-name="Oacute" unicode="&#xd3;" horiz-adv-x="710" 
d="M640 375q0 -66 -5 -116.5t-23 -104t-48 -88t-83 -57t-126 -22.5t-126 22.5t-83 57t-47.5 88t-23 104t-5.5 116.5t5.5 116.5t23 104t47.5 88t83 57t126 22.5t126 -22.5t83 -57t48 -88t23 -104t5 -116.5zM532 375q0 66 -6 112t-24 89t-54.5 65t-92.5 22t-92.5 -22
t-54.5 -65t-24 -89t-6 -112t6 -112t24 -89t54.5 -65t92.5 -22t92.5 22t54.5 65t24 89t6 112zM383 825h-56l80 175h121z" />
    <glyph glyph-name="Ocircumflex" unicode="&#xd4;" horiz-adv-x="710" 
d="M640 375q0 -66 -5 -116.5t-23 -104t-48 -88t-83 -57t-126 -22.5t-126 22.5t-83 57t-47.5 88t-23 104t-5.5 116.5t5.5 116.5t23 104t47.5 88t83 57t126 22.5t126 -22.5t83 -57t48 -88t23 -104t5 -116.5zM532 375q0 66 -6 112t-24 89t-54.5 65t-92.5 22t-92.5 -22
t-54.5 -65t-24 -89t-6 -112t6 -112t24 -89t54.5 -65t92.5 -22t92.5 22t54.5 65t24 89t6 112zM533 825h-56l-122 105l-122 -105h-56l125 175h106z" />
    <glyph glyph-name="Otilde" unicode="&#xd5;" horiz-adv-x="710" 
d="M640 375q0 -66 -5 -116.5t-23 -104t-48 -88t-83 -57t-126 -22.5t-126 22.5t-83 57t-47.5 88t-23 104t-5.5 116.5t5.5 116.5t23 104t47.5 88t83 57t126 22.5t126 -22.5t83 -57t48 -88t23 -104t5 -116.5zM532 375q0 66 -6 112t-24 89t-54.5 65t-92.5 22t-92.5 -22
t-54.5 -65t-24 -89t-6 -112t6 -112t24 -89t54.5 -65t92.5 -22t92.5 22t54.5 65t24 89t6 112zM470 981l80 -7q-1 -71 -32 -104.5t-93 -32.5q-35 0 -60 15.5t-43 31t-37 15.5t-29 -9t-12.5 -19t-3.5 -27l-80 7q1 71 32 105t93 33q28 -1 50 -11t33 -21.5t26 -21t31 -9.5
q19 0 29 9t12.5 19.5t3.5 26.5z" />
    <glyph glyph-name="Odieresis" unicode="&#xd6;" horiz-adv-x="710" 
d="M640 375q0 -66 -5 -116.5t-23 -104t-48 -88t-83 -57t-126 -22.5t-126 22.5t-83 57t-47.5 88t-23 104t-5.5 116.5t5.5 116.5t23 104t47.5 88t83 57t126 22.5t126 -22.5t83 -57t48 -88t23 -104t5 -116.5zM532 375q0 66 -6 112t-24 89t-54.5 65t-92.5 22t-92.5 -22
t-54.5 -65t-24 -89t-6 -112t6 -112t24 -89t54.5 -65t92.5 -22t92.5 22t54.5 65t24 89t6 112zM175 917q0 29 20.5 49.5t49.5 20.5t49.5 -20.5t20.5 -49.5t-20.5 -49.5t-49.5 -20.5t-49.5 20.5t-20.5 49.5zM395 917q0 29 20.5 49.5t49.5 20.5t49.5 -20.5t20.5 -49.5
t-20.5 -49.5t-49.5 -20.5t-49.5 20.5t-20.5 49.5z" />
    <glyph glyph-name="multiply" unicode="&#xd7;" horiz-adv-x="520" 
d="M153 165l-69 69l107 107l-107 107l69 69l107 -107l107 107l69 -69l-107 -107l107 -107l-69 -69l-107 107z" />
    <glyph glyph-name="Oslash" unicode="&#xd8;" horiz-adv-x="710" 
d="M660 750l-68 -108q48 -88 48 -267q0 -66 -5 -116.5t-23 -104t-48 -88t-83 -57t-126 -22.5q-90 0 -151 33l-12 -20h-136l64 103q-50 87 -50 272q0 66 5.5 116.5t23 104t47.5 88t83 57t126 22.5q94 0 155 -36l14 23h136zM178 375q0 -98 14 -157l261 418q-40 27 -98 27
q-56 0 -92.5 -22t-54.5 -65t-24 -89t-6 -112zM532 375q0 92 -13 149l-258 -414q37 -23 94 -23q56 0 92.5 22t54.5 65t24 89t6 112z" />
    <glyph glyph-name="Ugrave" unicode="&#xd9;" horiz-adv-x="702" 
d="M351 88q166 0 166 164v498h105v-511q0 -62 -20 -109.5t-48.5 -73.5t-67.5 -42.5t-71 -21.5t-64 -5t-64 5t-71 21.5t-67.5 42.5t-48.5 73.5t-20 109.5v511h105v-498q0 -164 166 -164zM379 825h-56l-145 175h121z" />
    <glyph glyph-name="Uacute" unicode="&#xda;" horiz-adv-x="702" 
d="M351 88q166 0 166 164v498h105v-511q0 -62 -20 -109.5t-48.5 -73.5t-67.5 -42.5t-71 -21.5t-64 -5t-64 5t-71 21.5t-67.5 42.5t-48.5 73.5t-20 109.5v511h105v-498q0 -164 166 -164zM379 825h-56l80 175h121z" />
    <glyph glyph-name="Ucircumflex" unicode="&#xdb;" horiz-adv-x="702" 
d="M351 88q166 0 166 164v498h105v-511q0 -62 -20 -109.5t-48.5 -73.5t-67.5 -42.5t-71 -21.5t-64 -5t-64 5t-71 21.5t-67.5 42.5t-48.5 73.5t-20 109.5v511h105v-498q0 -164 166 -164zM529 825h-56l-122 105l-122 -105h-56l125 175h106z" />
    <glyph glyph-name="Udieresis" unicode="&#xdc;" horiz-adv-x="702" 
d="M351 88q166 0 166 164v498h105v-511q0 -62 -20 -109.5t-48.5 -73.5t-67.5 -42.5t-71 -21.5t-64 -5t-64 5t-71 21.5t-67.5 42.5t-48.5 73.5t-20 109.5v511h105v-498q0 -164 166 -164zM391 917q0 29 20.5 49.5t49.5 20.5t49.5 -20.5t20.5 -49.5t-20.5 -49.5t-49.5 -20.5
t-49.5 20.5t-20.5 49.5zM171 917q0 29 20.5 49.5t49.5 20.5t49.5 -20.5t20.5 -49.5t-20.5 -49.5t-49.5 -20.5t-49.5 20.5t-20.5 49.5z" />
    <glyph glyph-name="Yacute" unicode="&#xdd;" horiz-adv-x="726" 
d="M686 750l-271 -441v-309h-104v309l-271 441h126l197 -350l197 350h126zM391 825h-56l80 175h121z" />
    <glyph glyph-name="Thorn" unicode="&#xde;" horiz-adv-x="626" 
d="M191 142v-142h-106v750h106v-143h132q134 0 196 -65.5t62 -166.5q0 -102 -62 -167.5t-196 -65.5h-132zM191 507v-265h135q141 0 141 133q0 132 -141 132h-135z" />
    <glyph glyph-name="germandbls" unicode="&#xdf;" horiz-adv-x="645" 
d="M304 665q-60 0 -92 -21.5t-32 -55.5v-588h-100v587q0 78 56.5 125.5t167.5 47.5t168 -48t56 -125q-1 -68 -30.5 -104.5t-103.5 -55.5q-36 -9 -51 -23.5t-15 -38.5q0 -23 18.5 -34t70.5 -17q104 -12 142.5 -49t38.5 -108q0 -70 -49.5 -118.5t-156.5 -48.5q-35 0 -82.5 9
t-74.5 20v96q86 -30 158 -30q56 0 80 20.5t24 50.5q0 29 -17.5 45.5t-70.5 21.5q-104 9 -142 44.5t-38 97.5t30.5 96.5t111.5 54.5q35 9 45.5 26.5t10.5 45.5q0 34 -31.5 55.5t-91.5 21.5z" />
    <glyph glyph-name="agrave" unicode="&#xe0;" horiz-adv-x="525" 
d="M353 338q0 42 -20 61t-72 19q-94 0 -171 -30v95q28 13 80.5 21.5t90.5 8.5q109 0 151.5 -44.5t42.5 -129.5v-339h-69l-9 26q-64 -39 -140 -39q-96 0 -139 48.5t-43 122.5q0 67 41 110t144 51l113 9v10zM353 244l-114 -10q-81 -8 -81 -76q0 -15 2.5 -26.5t10.5 -24t25 -19
t43 -6.5q62 0 114 31v131zM289 575h-56l-145 175h121z" />
    <glyph glyph-name="aacute" unicode="&#xe1;" horiz-adv-x="525" 
d="M353 338q0 42 -20 61t-72 19q-94 0 -171 -30v95q28 13 80.5 21.5t90.5 8.5q109 0 151.5 -44.5t42.5 -129.5v-339h-69l-9 26q-64 -39 -140 -39q-96 0 -139 48.5t-43 122.5q0 67 41 110t144 51l113 9v10zM353 244l-114 -10q-81 -8 -81 -76q0 -15 2.5 -26.5t10.5 -24t25 -19
t43 -6.5q62 0 114 31v131zM289 575h-56l80 175h121z" />
    <glyph glyph-name="acircumflex" unicode="&#xe2;" horiz-adv-x="525" 
d="M353 338q0 42 -20 61t-72 19q-94 0 -171 -30v95q28 13 80.5 21.5t90.5 8.5q109 0 151.5 -44.5t42.5 -129.5v-339h-69l-9 26q-64 -39 -140 -39q-96 0 -139 48.5t-43 122.5q0 67 41 110t144 51l113 9v10zM439 575h-56l-122 105l-122 -105h-56l125 175h106zM353 244
l-114 -10q-81 -8 -81 -76q0 -15 2.5 -26.5t10.5 -24t25 -19t43 -6.5q62 0 114 31v131z" />
    <glyph glyph-name="atilde" unicode="&#xe3;" horiz-adv-x="525" 
d="M353 338q0 42 -20 61t-72 19q-94 0 -171 -30v95q28 13 80.5 21.5t90.5 8.5q109 0 151.5 -44.5t42.5 -129.5v-339h-69l-9 26q-64 -39 -140 -39q-96 0 -139 48.5t-43 122.5q0 67 41 110t144 51l113 9v10zM353 244l-114 -10q-81 -8 -81 -76q0 -15 2.5 -26.5t10.5 -24t25 -19
t43 -6.5q62 0 114 31v131zM381 731l80 -7q-1 -71 -32 -104.5t-93 -32.5q-35 0 -60 15.5t-43 31t-37 15.5t-29 -9t-12.5 -19t-3.5 -27l-80 7q1 71 32 105t93 33q28 -1 50 -11t33 -21.5t26 -21t31 -9.5q19 0 29 9t12.5 19.5t3.5 26.5z" />
    <glyph glyph-name="adieresis" unicode="&#xe4;" horiz-adv-x="525" 
d="M353 338q0 42 -20 61t-72 19q-94 0 -171 -30v95q28 13 80.5 21.5t90.5 8.5q109 0 151.5 -44.5t42.5 -129.5v-339h-69l-9 26q-64 -39 -140 -39q-96 0 -139 48.5t-43 122.5q0 67 41 110t144 51l113 9v10zM353 244l-114 -10q-81 -8 -81 -76q0 -15 2.5 -26.5t10.5 -24t25 -19
t43 -6.5q62 0 114 31v131zM81 667q0 29 20.5 49.5t49.5 20.5t49.5 -20.5t20.5 -49.5t-20.5 -49.5t-49.5 -20.5t-49.5 20.5t-20.5 49.5zM301 667q0 29 20.5 49.5t49.5 20.5t49.5 -20.5t20.5 -49.5t-20.5 -49.5t-49.5 -20.5t-49.5 20.5t-20.5 49.5z" />
    <glyph glyph-name="aring" unicode="&#xe5;" horiz-adv-x="525" 
d="M353 338q0 42 -20 61t-72 19q-94 0 -171 -30v95q28 13 80.5 21.5t90.5 8.5q109 0 151.5 -44.5t42.5 -129.5v-339h-69l-9 26q-64 -39 -140 -39q-96 0 -139 48.5t-43 122.5q0 67 41 110t144 51l113 9v10zM362 662q0 -50 -27 -75t-74 -25q-48 0 -75 25t-27 75q0 51 27 76
t75 25q47 0 74 -25t27 -76zM353 244l-114 -10q-81 -8 -81 -76q0 -15 2.5 -26.5t10.5 -24t25 -19t43 -6.5q62 0 114 31v131zM305 662q0 45 -44 45q-23 0 -33.5 -10t-10.5 -35q0 -43 44 -43t44 43z" />
    <glyph glyph-name="ae" unicode="&#xe6;" horiz-adv-x="826" 
d="M357 336q0 42 -24 61t-79 19q-73 0 -166 -31v94q72 31 166 31q121 0 165 -53q51 53 152 53q51 0 87.5 -14t57 -35.5t32 -57.5t15 -70t3.5 -83v-43h-306q4 -57 28.5 -90t82.5 -33q88 0 172 36v-96q-75 -34 -172 -34q-102 0 -155 55l-15 -11q-62 -44 -157 -44
q-99 0 -146.5 43.5t-47.5 115.5q0 69 42 108.5t148 39.5h117v39zM358 207h-123q-82 0 -82 -58q0 -65 93 -65q74 0 119 38l7 4q-8 28 -14 81zM571 416q-57 0 -81 -31.5t-30 -87.5h204q-2 58 -20.5 88.5t-72.5 30.5z" />
    <glyph glyph-name="ccedilla" unicode="&#xe7;" horiz-adv-x="490" 
d="M323 -185h-102q23 20 32 42.5t-8 36.5q-55 30 -7 96q-96 12 -137 79t-41 181q0 127 51.5 195t171.5 68q95 0 157 -29v-95q-84 29 -157 29q-68 0 -93.5 -45t-25.5 -123t25.5 -123t93.5 -45q73 0 157 29v-95q-53 -24 -133 -28q-25 -39 11 -59q30 -17 35 -41t-5 -41t-25 -32
z" />
    <glyph glyph-name="egrave" unicode="&#xe8;" horiz-adv-x="542" 
d="M482 202h-316q14 -120 117 -120q89 0 172 36v-97q-75 -34 -172 -34q-120 0 -171.5 68t-51.5 195t51.5 195t171.5 68q51 0 88 -14.5t58 -37t33 -59t16 -71t4 -81.5v-48zM283 418q-60 0 -86 -33t-32 -94h211q-1 60 -19 93.5t-74 33.5zM311 575h-56l-145 175h121z" />
    <glyph glyph-name="eacute" unicode="&#xe9;" horiz-adv-x="542" 
d="M482 202h-316q14 -120 117 -120q89 0 172 36v-97q-75 -34 -172 -34q-120 0 -171.5 68t-51.5 195t51.5 195t171.5 68q51 0 88 -14.5t58 -37t33 -59t16 -71t4 -81.5v-48zM283 418q-60 0 -86 -33t-32 -94h211q-1 60 -19 93.5t-74 33.5zM311 575h-56l80 175h121z" />
    <glyph glyph-name="ecircumflex" unicode="&#xea;" horiz-adv-x="542" 
d="M482 202h-316q14 -120 117 -120q89 0 172 36v-97q-75 -34 -172 -34q-120 0 -171.5 68t-51.5 195t51.5 195t171.5 68q51 0 88 -14.5t58 -37t33 -59t16 -71t4 -81.5v-48zM461 575h-56l-122 105l-122 -105h-56l125 175h106zM283 418q-60 0 -86 -33t-32 -94h211
q-1 60 -19 93.5t-74 33.5z" />
    <glyph glyph-name="edieresis" unicode="&#xeb;" horiz-adv-x="542" 
d="M482 202h-316q14 -120 117 -120q89 0 172 36v-97q-75 -34 -172 -34q-120 0 -171.5 68t-51.5 195t51.5 195t171.5 68q51 0 88 -14.5t58 -37t33 -59t16 -71t4 -81.5v-48zM283 418q-60 0 -86 -33t-32 -94h211q-1 60 -19 93.5t-74 33.5zM103 667q0 29 20.5 49.5t49.5 20.5
t49.5 -20.5t20.5 -49.5t-20.5 -49.5t-49.5 -20.5t-49.5 20.5t-20.5 49.5zM323 667q0 29 20.5 49.5t49.5 20.5t49.5 -20.5t20.5 -49.5t-20.5 -49.5t-49.5 -20.5t-49.5 20.5t-20.5 49.5z" />
    <glyph glyph-name="igrave" unicode="&#xec;" horiz-adv-x="275" 
d="M221 -13h-19q-61 0 -91 28t-30 93v392h101v-395q0 -13 8.5 -18t30.5 -5v-95zM160 575h-56l-145 175h121z" />
    <glyph glyph-name="iacute" unicode="&#xed;" horiz-adv-x="275" 
d="M221 -13h-19q-61 0 -91 28t-30 93v392h101v-395q0 -13 8.5 -18t30.5 -5v-95zM160 575h-56l80 175h121z" />
    <glyph glyph-name="icircumflex" unicode="&#xee;" horiz-adv-x="275" 
d="M221 -13h-19q-61 0 -91 28t-30 93v392h101v-395q0 -13 8.5 -18t30.5 -5v-95zM310 575h-56l-122 105l-122 -105h-56l125 175h106z" />
    <glyph glyph-name="idieresis" unicode="&#xef;" horiz-adv-x="275" 
d="M221 -13h-19q-61 0 -91 28t-30 93v392h101v-395q0 -13 8.5 -18t30.5 -5v-95zM172 667q0 29 20.5 49.5t49.5 20.5t49.5 -20.5t20.5 -49.5t-20.5 -49.5t-49.5 -20.5t-49.5 20.5t-20.5 49.5zM-48 667q0 29 20.5 49.5t49.5 20.5t49.5 -20.5t20.5 -49.5t-20.5 -49.5
t-49.5 -20.5t-49.5 20.5t-20.5 49.5z" />
    <glyph glyph-name="eth" unicode="&#xf0;" horiz-adv-x="544" 
d="M419 750v-84l-62 -32q127 -148 131 -370q1 -5 1 -14q0 -64 -8.5 -108t-31.5 -81t-67 -55.5t-110 -18.5q-126 0 -171.5 66.5t-45.5 196.5t45.5 196.5t171.5 66.5q30 0 57 -9q-21 43 -58 86l-142 -72v84l87 44q-57 50 -151 104h155q49 -31 82 -60zM387 250q0 41 -3.5 67
t-14.5 51.5t-35 37.5t-62 12q-31 0 -53 -9t-34 -22.5t-18.5 -37t-8 -45t-1.5 -54.5t1.5 -54.5t8 -45t18.5 -37t34 -22.5t53 -9q38 0 62 12t35 37.5t14.5 51.5t3.5 67z" />
    <glyph glyph-name="ntilde" unicode="&#xf1;" horiz-adv-x="538" 
d="M370 0v354q0 64 -81 64q-66 0 -116 -24v-394h-103v500h69l10 -28q62 41 140 41q91 0 137.5 -42t46.5 -119v-352h-103zM397 731l80 -7q-1 -71 -32 -104.5t-93 -32.5q-35 0 -60 15.5t-43 31t-37 15.5t-29 -9t-12.5 -19t-3.5 -27l-80 7q1 71 32 105t93 33q28 -1 50 -11
t33 -21.5t26 -21t31 -9.5q19 0 29 9t12.5 19.5t3.5 26.5z" />
    <glyph glyph-name="ograve" unicode="&#xf2;" horiz-adv-x="554" 
d="M494 250q0 -64 -8.5 -108t-31.5 -81t-67 -55.5t-110 -18.5q-126 0 -171.5 66.5t-45.5 196.5t45.5 196.5t171.5 66.5q66 0 110 -18.5t67 -55.5t31.5 -81t8.5 -108zM392 250q0 41 -3.5 67t-14.5 51.5t-35 37.5t-62 12q-31 0 -53 -9t-34 -22.5t-18.5 -37t-8 -45t-1.5 -54.5
t1.5 -54.5t8 -45t18.5 -37t34 -22.5t53 -9q38 0 62 12t35 37.5t14.5 51.5t3.5 67zM305 575h-56l-145 175h121z" />
    <glyph glyph-name="oacute" unicode="&#xf3;" horiz-adv-x="554" 
d="M494 250q0 -64 -8.5 -108t-31.5 -81t-67 -55.5t-110 -18.5q-126 0 -171.5 66.5t-45.5 196.5t45.5 196.5t171.5 66.5q66 0 110 -18.5t67 -55.5t31.5 -81t8.5 -108zM392 250q0 41 -3.5 67t-14.5 51.5t-35 37.5t-62 12q-31 0 -53 -9t-34 -22.5t-18.5 -37t-8 -45t-1.5 -54.5
t1.5 -54.5t8 -45t18.5 -37t34 -22.5t53 -9q38 0 62 12t35 37.5t14.5 51.5t3.5 67zM305 575h-56l80 175h121z" />
    <glyph glyph-name="ocircumflex" unicode="&#xf4;" horiz-adv-x="554" 
d="M494 250q0 -64 -8.5 -108t-31.5 -81t-67 -55.5t-110 -18.5q-126 0 -171.5 66.5t-45.5 196.5t45.5 196.5t171.5 66.5q66 0 110 -18.5t67 -55.5t31.5 -81t8.5 -108zM392 250q0 41 -3.5 67t-14.5 51.5t-35 37.5t-62 12q-31 0 -53 -9t-34 -22.5t-18.5 -37t-8 -45t-1.5 -54.5
t1.5 -54.5t8 -45t18.5 -37t34 -22.5t53 -9q38 0 62 12t35 37.5t14.5 51.5t3.5 67zM455 575h-56l-122 105l-122 -105h-56l125 175h106z" />
    <glyph glyph-name="otilde" unicode="&#xf5;" horiz-adv-x="554" 
d="M494 250q0 -64 -8.5 -108t-31.5 -81t-67 -55.5t-110 -18.5q-126 0 -171.5 66.5t-45.5 196.5t45.5 196.5t171.5 66.5q66 0 110 -18.5t67 -55.5t31.5 -81t8.5 -108zM392 250q0 41 -3.5 67t-14.5 51.5t-35 37.5t-62 12q-31 0 -53 -9t-34 -22.5t-18.5 -37t-8 -45t-1.5 -54.5
t1.5 -54.5t8 -45t18.5 -37t34 -22.5t53 -9q38 0 62 12t35 37.5t14.5 51.5t3.5 67zM392 731l80 -7q-1 -71 -32 -104.5t-93 -32.5q-35 0 -60 15.5t-43 31t-37 15.5t-29 -9t-12.5 -19t-3.5 -27l-80 7q1 71 32 105t93 33q28 -1 50 -11t33 -21.5t26 -21t31 -9.5q19 0 29 9
t12.5 19.5t3.5 26.5z" />
    <glyph glyph-name="odieresis" unicode="&#xf6;" horiz-adv-x="554" 
d="M494 250q0 -64 -8.5 -108t-31.5 -81t-67 -55.5t-110 -18.5q-126 0 -171.5 66.5t-45.5 196.5t45.5 196.5t171.5 66.5q66 0 110 -18.5t67 -55.5t31.5 -81t8.5 -108zM392 250q0 41 -3.5 67t-14.5 51.5t-35 37.5t-62 12q-31 0 -53 -9t-34 -22.5t-18.5 -37t-8 -45t-1.5 -54.5
t1.5 -54.5t8 -45t18.5 -37t34 -22.5t53 -9q38 0 62 12t35 37.5t14.5 51.5t3.5 67zM97 667q0 29 20.5 49.5t49.5 20.5t49.5 -20.5t20.5 -49.5t-20.5 -49.5t-49.5 -20.5t-49.5 20.5t-20.5 49.5zM317 667q0 29 20.5 49.5t49.5 20.5t49.5 -20.5t20.5 -49.5t-20.5 -49.5
t-49.5 -20.5t-49.5 20.5t-20.5 49.5z" />
    <glyph glyph-name="divide" unicode="&#xf7;" horiz-adv-x="520" 
d="M60 390h400v-98h-400v98zM190 188q0 29 20.5 49.5t49.5 20.5t49.5 -20.5t20.5 -49.5t-20.5 -49.5t-49.5 -20.5t-49.5 20.5t-20.5 49.5zM190 494q0 29 20.5 49.5t49.5 20.5t49.5 -20.5t20.5 -49.5t-20.5 -49.5t-49.5 -20.5t-49.5 20.5t-20.5 49.5z" />
    <glyph glyph-name="oslash" unicode="&#xf8;" horiz-adv-x="560" 
d="M515 500l-53 -75q32 -60 32 -175q0 -64 -8.5 -108t-31.5 -81t-67 -55.5t-110 -18.5q-65 0 -108 18l-3 -5h-121l49 70q-34 60 -34 180q0 130 45.5 196.5t171.5 66.5q67 0 112 -20l5 7h121zM162 250q0 -54 4 -77l164 236q-25 9 -53 9q-31 0 -53 -9t-34 -22.5t-18.5 -37
t-8 -45t-1.5 -54.5zM392 250q0 41 -4 69l-160 -230q18 -7 49 -7q38 0 62 12t35 37.5t14.5 51.5t3.5 67z" />
    <glyph glyph-name="ugrave" unicode="&#xf9;" horiz-adv-x="538" 
d="M168 500v-354q0 -64 81 -64q66 0 116 24v394h103v-500h-69l-10 28q-62 -41 -140 -41q-91 0 -137.5 42t-46.5 119v352h103zM295 575h-56l-145 175h121z" />
    <glyph glyph-name="uacute" unicode="&#xfa;" horiz-adv-x="538" 
d="M168 500v-354q0 -64 81 -64q66 0 116 24v394h103v-500h-69l-10 28q-62 -41 -140 -41q-91 0 -137.5 42t-46.5 119v352h103zM295 575h-56l80 175h121z" />
    <glyph glyph-name="ucircumflex" unicode="&#xfb;" horiz-adv-x="538" 
d="M168 500v-354q0 -64 81 -64q66 0 116 24v394h103v-500h-69l-10 28q-62 -41 -140 -41q-91 0 -137.5 42t-46.5 119v352h103zM445 575h-56l-122 105l-122 -105h-56l125 175h106z" />
    <glyph glyph-name="udieresis" unicode="&#xfc;" horiz-adv-x="538" 
d="M168 500v-354q0 -64 81 -64q66 0 116 24v394h103v-500h-69l-10 28q-62 -41 -140 -41q-91 0 -137.5 42t-46.5 119v352h103zM307 667q0 29 20.5 49.5t49.5 20.5t49.5 -20.5t20.5 -49.5t-20.5 -49.5t-49.5 -20.5t-49.5 20.5t-20.5 49.5zM87 667q0 29 20.5 49.5t49.5 20.5
t49.5 -20.5t20.5 -49.5t-20.5 -49.5t-49.5 -20.5t-49.5 20.5t-20.5 49.5z" />
    <glyph glyph-name="yacute" unicode="&#xfd;" horiz-adv-x="515" 
d="M25 500h116l117 -361l117 361h115l-288 -750h-112l120 274zM285 575h-56l80 175h121z" />
    <glyph glyph-name="thorn" unicode="&#xfe;" horiz-adv-x="561" 
d="M70 -250v1000h101v-266q60 29 113 29q120 0 168.5 -67.5t48.5 -195.5t-48.5 -195.5t-168.5 -67.5q-53 0 -113 27v-264h-101zM208 92q40 -10 76 -10q67 0 90 44t23 124q0 38 -4 65t-15.5 52t-35 38t-58.5 13q-63 0 -113 -24v-289q13 -7 37 -13z" />
    <glyph glyph-name="ydieresis" unicode="&#xff;" horiz-adv-x="515" 
d="M25 500h116l117 -361l117 361h115l-288 -750h-112l120 274zM297 667q0 29 20.5 49.5t49.5 20.5t49.5 -20.5t20.5 -49.5t-20.5 -49.5t-49.5 -20.5t-49.5 20.5t-20.5 49.5zM77 667q0 29 20.5 49.5t49.5 20.5t49.5 -20.5t20.5 -49.5t-20.5 -49.5t-49.5 -20.5t-49.5 20.5
t-20.5 49.5z" />
    <glyph glyph-name="Amacron" unicode="&#x100;" horiz-adv-x="685" 
d="M155 0h-115l266 763h73l266 -763h-115l-64 199h-248zM435 296l-92 294l-94 -294h186zM479 1141h-274v91h274v-91zM480 891h-274v91h274v-91z" />
    <glyph glyph-name="amacron" unicode="&#x101;" horiz-adv-x="525" 
d="M353 338q0 42 -20 61t-72 19q-94 0 -171 -30v95q28 13 80.5 21.5t90.5 8.5q109 0 151.5 -44.5t42.5 -129.5v-339h-69l-9 26q-64 -39 -140 -39q-96 0 -139 48.5t-43 122.5q0 67 41 110t144 51l113 9v10zM353 244l-114 -10q-81 -8 -81 -76q0 -15 2.5 -26.5t10.5 -24t25 -19
t43 -6.5q62 0 114 31v131zM398 641h-274v91h274v-91z" />
    <glyph glyph-name="Abreve" unicode="&#x102;" horiz-adv-x="685" 
d="M155 0h-115l266 763h73l266 -763h-115l-64 199h-248zM435 296l-92 294l-94 -294h186zM342 1072q-75 0 -120.5 44.5t-47.5 133.5h67q2 -53 22.5 -72.5t78.5 -19.5t78.5 19.5t22.5 72.5h67q-2 -89 -47.5 -133.5t-120.5 -44.5zM343 822q-75 0 -120.5 44.5t-47.5 133.5h67
q2 -53 22.5 -72.5t78.5 -19.5t78.5 19.5t22.5 72.5h67q-2 -89 -47.5 -133.5t-120.5 -44.5z" />
    <glyph glyph-name="abreve" unicode="&#x103;" horiz-adv-x="525" 
d="M353 338q0 42 -20 61t-72 19q-94 0 -171 -30v95q28 13 80.5 21.5t90.5 8.5q109 0 151.5 -44.5t42.5 -129.5v-339h-69l-9 26q-64 -39 -140 -39q-96 0 -139 48.5t-43 122.5q0 67 41 110t144 51l113 9v10zM353 244l-114 -10q-81 -8 -81 -76q0 -15 2.5 -26.5t10.5 -24t25 -19
t43 -6.5q62 0 114 31v131zM261 572q-75 0 -120.5 44.5t-47.5 133.5h67q2 -53 22.5 -72.5t78.5 -19.5t78.5 19.5t22.5 72.5h67q-2 -89 -47.5 -133.5t-120.5 -44.5z" />
    <glyph glyph-name="Aogonek" unicode="&#x104;" horiz-adv-x="685" 
d="M155 0h-115l266 763h73l266 -763q-101 -46 -101 -110q0 -22 14 -34t37 -12q36 0 63 9v-68q-40 -15 -85 -15q-50 0 -84 26.5t-34 77.5q0 70 75 124l-64 201h-248zM435 296l-92 294l-94 -294h186z" />
    <glyph glyph-name="aogonek" unicode="&#x105;" horiz-adv-x="525" 
d="M353 338q0 42 -20 61t-72 19q-94 0 -171 -30v95q28 13 80.5 21.5t90.5 8.5q109 0 151.5 -44.5t42.5 -129.5v-339q-101 -46 -101 -110q0 -22 14 -34t37 -12q36 0 63 9v-68q-40 -15 -85 -15q-50 0 -84 26.5t-34 77.5q0 84 115 143l-3 9q-64 -39 -140 -39q-96 0 -139 48.5
t-43 122.5q0 67 41 110t144 51l113 9v10zM353 244l-114 -10q-81 -8 -81 -76q0 -15 2.5 -26.5t10.5 -24t25 -19t43 -6.5q62 0 114 31v131z" />
    <glyph glyph-name="Cacute" unicode="&#x106;" horiz-adv-x="644" 
d="M70 375q0 84 15.5 151t49 122t93 85t142.5 30q119 0 204 -37v-107q-106 44 -204 44q-100 0 -145.5 -78t-45.5 -210t45.5 -210t145.5 -78q98 0 204 44v-107q-85 -37 -204 -37q-83 0 -142.5 30t-93 85t-49 122t-15.5 151zM390 825h-56l80 175h121z" />
    <glyph glyph-name="cacute" unicode="&#x107;" horiz-adv-x="493" 
d="M164 250q0 -78 25.5 -123t93.5 -45q73 0 157 29v-95q-62 -29 -157 -29q-120 0 -171.5 68t-51.5 195t51.5 195t171.5 68q95 0 157 -29v-95q-84 29 -157 29q-68 0 -93.5 -45t-25.5 -123zM305 575h-56l80 175h121z" />
    <glyph glyph-name="Ccircumflex" unicode="&#x108;" horiz-adv-x="644" 
d="M70 375q0 84 15.5 151t49 122t93 85t142.5 30q119 0 204 -37v-107q-106 44 -204 44q-100 0 -145.5 -78t-45.5 -210t45.5 -210t145.5 -78q98 0 204 44v-107q-85 -37 -204 -37q-83 0 -142.5 30t-93 85t-49 122t-15.5 151zM540 825h-56l-122 105l-122 -105h-56l125 175h106z
" />
    <glyph glyph-name="ccircumflex" unicode="&#x109;" horiz-adv-x="493" 
d="M164 250q0 -78 25.5 -123t93.5 -45q73 0 157 29v-95q-62 -29 -157 -29q-120 0 -171.5 68t-51.5 195t51.5 195t171.5 68q95 0 157 -29v-95q-84 29 -157 29q-68 0 -93.5 -45t-25.5 -123zM455 575h-56l-122 105l-122 -105h-56l125 175h106z" />
    <glyph glyph-name="Cdotaccent" unicode="&#x10a;" horiz-adv-x="644" 
d="M70 375q0 84 15.5 151t49 122t93 85t142.5 30q119 0 204 -37v-107q-106 44 -204 44q-100 0 -145.5 -78t-45.5 -210t45.5 -210t145.5 -78q98 0 204 44v-107q-85 -37 -204 -37q-83 0 -142.5 30t-93 85t-49 122t-15.5 151zM292 917q0 29 20.5 49.5t49.5 20.5t49.5 -20.5
t20.5 -49.5t-20.5 -49.5t-49.5 -20.5t-49.5 20.5t-20.5 49.5z" />
    <glyph glyph-name="cdotaccent" unicode="&#x10b;" horiz-adv-x="493" 
d="M164 250q0 -78 25.5 -123t93.5 -45q73 0 157 29v-95q-62 -29 -157 -29q-120 0 -171.5 68t-51.5 195t51.5 195t171.5 68q95 0 157 -29v-95q-84 29 -157 29q-68 0 -93.5 -45t-25.5 -123zM207 667q0 29 20.5 49.5t49.5 20.5t49.5 -20.5t20.5 -49.5t-20.5 -49.5t-49.5 -20.5
t-49.5 20.5t-20.5 49.5z" />
    <glyph glyph-name="Ccaron" unicode="&#x10c;" horiz-adv-x="644" 
d="M70 375q0 84 15.5 151t49 122t93 85t142.5 30q119 0 204 -37v-107q-106 44 -204 44q-100 0 -145.5 -78t-45.5 -210t45.5 -210t145.5 -78q98 0 204 44v-107q-85 -37 -204 -37q-83 0 -142.5 30t-93 85t-49 122t-15.5 151zM484 1000h56l-125 -175h-106l-125 175h56l122 -105
z" />
    <glyph glyph-name="ccaron" unicode="&#x10d;" horiz-adv-x="493" 
d="M164 250q0 -78 25.5 -123t93.5 -45q73 0 157 29v-95q-62 -29 -157 -29q-120 0 -171.5 68t-51.5 195t51.5 195t171.5 68q95 0 157 -29v-95q-84 29 -157 29q-68 0 -93.5 -45t-25.5 -123zM399 750h56l-125 -175h-106l-125 175h56l122 -105z" />
    <glyph glyph-name="Dcaron" unicode="&#x10e;" horiz-adv-x="687" 
d="M298 0h-213v750h213q90 0 154 -28t99 -80.5t50.5 -117.5t15.5 -149t-15.5 -149t-50.5 -117.5t-99 -80.5t-154 -28zM190 650v-550h112q110 0 157 72.5t47 202.5t-47 202.5t-157 72.5h-112zM435 1000h56l-125 -175h-106l-125 175h56l122 -105z" />
    <glyph glyph-name="dcaron" unicode="&#x10f;" horiz-adv-x="561" 
d="M491 750v-750h-67l-10 28q-74 -41 -137 -41q-120 0 -168.5 67.5t-48.5 195.5t48.5 195.5t168.5 67.5q53 0 113 -27v264h101zM353 408q-40 10 -76 10q-67 0 -90 -44t-23 -124q0 -38 4 -65t15.5 -52t35 -38t58.5 -13q63 0 113 24v289q-13 7 -37 13zM552 750h88l-48 -200
h-56z" />
    <glyph glyph-name="Dcroat" unicode="&#x110;" horiz-adv-x="717" 
d="M328 750q90 0 154 -28t99 -80.5t50.5 -117.5t15.5 -149t-15.5 -149t-50.5 -117.5t-99 -80.5t-154 -28h-213v336h-90v82h90v332h213zM220 650v-232h135v-82h-135v-236h112q110 0 157 72.5t47 202.5t-47 202.5t-157 72.5h-112z" />
    <glyph glyph-name="dcroat" unicode="&#x111;" horiz-adv-x="561" 
d="M491 750v-91h92v-83h-92v-576h-67l-10 28q-74 -41 -137 -41q-120 0 -168.5 67.5t-48.5 195.5t48.5 195.5t168.5 67.5q53 0 113 -27v90h-115v83h115v91h101zM353 408q-40 10 -76 10q-67 0 -90 -44t-23 -124q0 -38 4 -65t15.5 -52t35 -38t58.5 -13q63 0 113 24v289
q-13 7 -37 13z" />
    <glyph glyph-name="Emacron" unicode="&#x112;" horiz-adv-x="606" 
d="M503 438v-100h-313v-238h346v-100h-451v750h451v-100h-346v-212h313zM448 891h-274v91h274v-91z" />
    <glyph glyph-name="emacron" unicode="&#x113;" horiz-adv-x="542" 
d="M482 202h-316q14 -120 117 -120q89 0 172 36v-97q-75 -34 -172 -34q-120 0 -171.5 68t-51.5 195t51.5 195t171.5 68q51 0 88 -14.5t58 -37t33 -59t16 -71t4 -81.5v-48zM283 418q-60 0 -86 -33t-32 -94h211q-1 60 -19 93.5t-74 33.5zM420 641h-274v91h274v-91z" />
    <glyph glyph-name="Ebreve" unicode="&#x114;" horiz-adv-x="606" 
d="M503 438v-100h-313v-238h346v-100h-451v750h451v-100h-346v-212h313zM311 822q-75 0 -120.5 44.5t-47.5 133.5h67q2 -53 22.5 -72.5t78.5 -19.5t78.5 19.5t22.5 72.5h67q-2 -89 -47.5 -133.5t-120.5 -44.5z" />
    <glyph glyph-name="ebreve" unicode="&#x115;" horiz-adv-x="542" 
d="M482 202h-316q14 -120 117 -120q89 0 172 36v-97q-75 -34 -172 -34q-120 0 -171.5 68t-51.5 195t51.5 195t171.5 68q51 0 88 -14.5t58 -37t33 -59t16 -71t4 -81.5v-48zM283 418q-60 0 -86 -33t-32 -94h211q-1 60 -19 93.5t-74 33.5zM283 572q-75 0 -120.5 44.5
t-47.5 133.5h67q2 -53 22.5 -72.5t78.5 -19.5t78.5 19.5t22.5 72.5h67q-2 -89 -47.5 -133.5t-120.5 -44.5z" />
    <glyph glyph-name="Edotaccent" unicode="&#x116;" horiz-adv-x="606" 
d="M503 438v-100h-313v-238h346v-100h-451v750h451v-100h-346v-212h313zM241 917q0 29 20.5 49.5t49.5 20.5t49.5 -20.5t20.5 -49.5t-20.5 -49.5t-49.5 -20.5t-49.5 20.5t-20.5 49.5z" />
    <glyph glyph-name="edotaccent" unicode="&#x117;" horiz-adv-x="542" 
d="M482 202h-316q14 -120 117 -120q89 0 172 36v-97q-75 -34 -172 -34q-120 0 -171.5 68t-51.5 195t51.5 195t171.5 68q51 0 88 -14.5t58 -37t33 -59t16 -71t4 -81.5v-48zM283 418q-60 0 -86 -33t-32 -94h211q-1 60 -19 93.5t-74 33.5zM213 667q0 29 20.5 49.5t49.5 20.5
t49.5 -20.5t20.5 -49.5t-20.5 -49.5t-49.5 -20.5t-49.5 20.5t-20.5 49.5z" />
    <glyph glyph-name="Eogonek" unicode="&#x118;" horiz-adv-x="606" 
d="M503 438v-100h-313v-238h346v-100q-101 -46 -101 -110q0 -22 14 -34t37 -12q36 0 63 9v-68q-40 -15 -85 -15q-50 0 -84 26.5t-34 77.5q0 72 79 126h-340v750h451v-100h-346v-212h313z" />
    <glyph glyph-name="eogonek" unicode="&#x119;" horiz-adv-x="542" 
d="M482 202h-316q14 -120 117 -120q89 0 172 36v-97q-31 -15 -61 -21q-100 -45 -100 -110q0 -22 14 -34t37 -12q36 0 63 9v-68q-40 -15 -85 -15q-50 0 -84 26.5t-34 77.5q0 64 62 113q-112 5 -159.5 72.5t-47.5 190.5q0 127 51.5 195t171.5 68q51 0 88 -14.5t58 -37t33 -59
t16 -71t4 -81.5v-48zM283 418q-60 0 -86 -33t-32 -94h211q-1 60 -19 93.5t-74 33.5z" />
    <glyph glyph-name="Ecaron" unicode="&#x11a;" horiz-adv-x="606" 
d="M503 438v-100h-313v-238h346v-100h-451v750h451v-100h-346v-212h313zM133 1000h56l122 -105l122 105h56l-125 -175h-106z" />
    <glyph glyph-name="ecaron" unicode="&#x11b;" horiz-adv-x="542" 
d="M482 202h-316q14 -120 117 -120q89 0 172 36v-97q-75 -34 -172 -34q-120 0 -171.5 68t-51.5 195t51.5 195t171.5 68q51 0 88 -14.5t58 -37t33 -59t16 -71t4 -81.5v-48zM283 418q-60 0 -86 -33t-32 -94h211q-1 60 -19 93.5t-74 33.5zM105 750h56l122 -105l122 105h56
l-125 -175h-106z" />
    <glyph glyph-name="Gcircumflex" unicode="&#x11c;" horiz-adv-x="692" 
d="M370 -13q-83 0 -142.5 30t-93 85t-49 122t-15.5 151t15.5 151t49 122t93 85t142.5 30q127 0 219 -45v-106q-124 51 -219 51q-101 0 -146.5 -78t-45.5 -210t45.5 -210t146.5 -78q82 0 132 15v210h-147v100h252v-379q-101 -46 -237 -46zM544 825h-56l-122 105l-122 -105
h-56l125 175h106z" />
    <glyph glyph-name="gcircumflex" unicode="&#x11d;" horiz-adv-x="548" 
d="M455 318q0 -195 -200 -195q-24 0 -35 1q-25 -17 -25 -30q0 -15 18 -18l159 -19q72 -9 108 -42t36 -101q0 -89 -74 -133t-187 -44q-227 0 -227 163q0 77 84 121v1q-18 23 -18 59q0 41 35 72q-74 47 -74 165q0 195 200 195q49 0 90 -13h161v-68l-68 -19q17 -40 17 -95z
M153 318q0 -48 20 -74t82 -26q63 0 83 26.5t20 73.5t-20 73.5t-83 26.5q-62 0 -82 -26t-20 -74zM355 -32l-130 15q-95 -30 -95 -83q0 -39 29.5 -53.5t95.5 -14.5q158 0 158 82q0 26 -13 38t-45 16zM433 575h-56l-122 105l-122 -105h-56l125 175h106z" />
    <glyph glyph-name="Gbreve" unicode="&#x11e;" horiz-adv-x="692" 
d="M370 -13q-83 0 -142.5 30t-93 85t-49 122t-15.5 151t15.5 151t49 122t93 85t142.5 30q127 0 219 -45v-106q-124 51 -219 51q-101 0 -146.5 -78t-45.5 -210t45.5 -210t146.5 -78q82 0 132 15v210h-147v100h252v-379q-101 -46 -237 -46zM366 822q-75 0 -120.5 44.5
t-47.5 133.5h67q2 -53 22.5 -72.5t78.5 -19.5t78.5 19.5t22.5 72.5h67q-2 -89 -47.5 -133.5t-120.5 -44.5z" />
    <glyph glyph-name="gbreve" unicode="&#x11f;" horiz-adv-x="548" 
d="M455 318q0 -195 -200 -195q-24 0 -35 1q-25 -17 -25 -30q0 -15 18 -18l159 -19q72 -9 108 -42t36 -101q0 -89 -74 -133t-187 -44q-227 0 -227 163q0 77 84 121v1q-18 23 -18 59q0 41 35 72q-74 47 -74 165q0 195 200 195q49 0 90 -13h161v-68l-68 -19q17 -40 17 -95z
M153 318q0 -48 20 -74t82 -26q63 0 83 26.5t20 73.5t-20 73.5t-83 26.5q-62 0 -82 -26t-20 -74zM355 -32l-130 15q-95 -30 -95 -83q0 -39 29.5 -53.5t95.5 -14.5q158 0 158 82q0 26 -13 38t-45 16zM255 572q-75 0 -120.5 44.5t-47.5 133.5h67q2 -53 22.5 -72.5t78.5 -19.5
t78.5 19.5t22.5 72.5h67q-2 -89 -47.5 -133.5t-120.5 -44.5z" />
    <glyph glyph-name="Gdotaccent" unicode="&#x120;" horiz-adv-x="692" 
d="M370 -13q-83 0 -142.5 30t-93 85t-49 122t-15.5 151t15.5 151t49 122t93 85t142.5 30q127 0 219 -45v-106q-124 51 -219 51q-101 0 -146.5 -78t-45.5 -210t45.5 -210t146.5 -78q82 0 132 15v210h-147v100h252v-379q-101 -46 -237 -46zM296 917q0 29 20.5 49.5t49.5 20.5
t49.5 -20.5t20.5 -49.5t-20.5 -49.5t-49.5 -20.5t-49.5 20.5t-20.5 49.5z" />
    <glyph glyph-name="gdotaccent" unicode="&#x121;" horiz-adv-x="548" 
d="M455 318q0 -195 -200 -195q-24 0 -35 1q-25 -17 -25 -30q0 -15 18 -18l159 -19q72 -9 108 -42t36 -101q0 -89 -74 -133t-187 -44q-227 0 -227 163q0 77 84 121v1q-18 23 -18 59q0 41 35 72q-74 47 -74 165q0 195 200 195q49 0 90 -13h161v-68l-68 -19q17 -40 17 -95z
M153 318q0 -48 20 -74t82 -26q63 0 83 26.5t20 73.5t-20 73.5t-83 26.5q-62 0 -82 -26t-20 -74zM355 -32l-130 15q-95 -30 -95 -83q0 -39 29.5 -53.5t95.5 -14.5q158 0 158 82q0 26 -13 38t-45 16zM185 667q0 29 20.5 49.5t49.5 20.5t49.5 -20.5t20.5 -49.5t-20.5 -49.5
t-49.5 -20.5t-49.5 20.5t-20.5 49.5z" />
    <glyph glyph-name="Gcommaaccent" unicode="&#x122;" horiz-adv-x="692" 
d="M370 -13q-83 0 -142.5 30t-93 85t-49 122t-15.5 151t15.5 151t49 122t93 85t142.5 30q127 0 219 -45v-106q-124 51 -219 51q-101 0 -146.5 -78t-45.5 -210t45.5 -210t146.5 -78q82 0 132 15v210h-147v100h252v-379q-101 -46 -237 -46zM384 -250h-61l14 66q-41 18 -41 64
q0 29 20.5 49.5t49.5 20.5t49.5 -20.5t20.5 -49.5q0 -18 -8 -34z" />
    <glyph glyph-name="gcommaaccent" unicode="&#x123;" horiz-adv-x="548" 
d="M455 318q0 -195 -200 -195q-24 0 -35 1q-25 -17 -25 -30q0 -15 18 -18l159 -19q72 -9 108 -42t36 -101q0 -89 -74 -133t-187 -44q-227 0 -227 163q0 77 84 121v1q-18 23 -18 59q0 41 35 72q-74 47 -74 165q0 195 200 195q49 0 90 -13h161v-68l-68 -19q17 -40 17 -95z
M153 318q0 -48 20 -74t82 -26q63 0 83 26.5t20 73.5t-20 73.5t-83 26.5q-62 0 -82 -26t-20 -74zM355 -32l-130 15q-95 -30 -95 -83q0 -39 29.5 -53.5t95.5 -14.5q158 0 158 82q0 26 -13 38t-45 16zM237 750h61l-14 -66q41 -18 41 -64q0 -29 -20.5 -49.5t-49.5 -20.5
t-49.5 20.5t-20.5 49.5q0 18 8 34z" />
    <glyph glyph-name="Hcircumflex" unicode="&#x124;" horiz-adv-x="694" 
d="M609 0h-105v338h-314v-338h-105v750h105v-312h314v312h105v-750zM525 825h-56l-122 105l-122 -105h-56l125 175h106z" />
    <glyph glyph-name="hcircumflex" unicode="&#x125;" horiz-adv-x="536" 
d="M368 0v354q0 64 -81 64q-66 0 -116 -24v-394h-101v750h101v-264q54 27 116 27q91 0 137.5 -42t46.5 -119v-352h-103zM299 825h-56l-122 105l-122 -105h-56l125 175h106z" />
    <glyph glyph-name="Hbar" unicode="&#x126;" horiz-adv-x="694" 
d="M609 0h-105v338h-314v-338h-105v750h105v-112h314v112h105v-750zM190 438h314v102h-314v-102z" />
    <glyph glyph-name="hbar" unicode="&#x127;" horiz-adv-x="536" 
d="M368 0v354q0 64 -81 64q-66 0 -116 -24v-394h-101v576h-92v83h92v91h101v-91h115v-83h-115v-90q54 27 116 27q91 0 137.5 -42t46.5 -119v-352h-103z" />
    <glyph glyph-name="Itilde" unicode="&#x128;" horiz-adv-x="319" 
d="M212 0h-105v750h105v-750zM275 981l80 -7q-1 -71 -32 -104.5t-93 -32.5q-35 0 -60 15.5t-43 31t-37 15.5t-29 -9t-12.5 -19t-3.5 -27l-80 7q1 71 32 105t93 33q28 -1 50 -11t33 -21.5t26 -21t31 -9.5q19 0 29 9t12.5 19.5t3.5 26.5z" />
    <glyph glyph-name="itilde" unicode="&#x129;" horiz-adv-x="275" 
d="M221 -13h-19q-61 0 -91 28t-30 93v392h101v-395q0 -13 8.5 -18t30.5 -5v-95zM252 731l80 -7q-1 -71 -32 -104.5t-93 -32.5q-35 0 -60 15.5t-43 31t-37 15.5t-29 -9t-12.5 -19t-3.5 -27l-80 7q1 71 32 105t93 33q28 -1 50 -11t33 -21.5t26 -21t31 -9.5q19 0 29 9
t12.5 19.5t3.5 26.5z" />
    <glyph glyph-name="imacron" unicode="&#x12b;" horiz-adv-x="275" 
d="M221 -13h-19q-61 0 -91 28t-30 93v392h101v-395q0 -13 8.5 -18t30.5 -5v-95zM269 641h-274v91h274v-91z" />
    <glyph glyph-name="Ibreve" unicode="&#x12c;" horiz-adv-x="319" 
d="M212 0h-105v750h105v-750zM160 822q-75 0 -120.5 44.5t-47.5 133.5h67q2 -53 22.5 -72.5t78.5 -19.5t78.5 19.5t22.5 72.5h67q-2 -89 -47.5 -133.5t-120.5 -44.5z" />
    <glyph glyph-name="ibreve" unicode="&#x12d;" horiz-adv-x="275" 
d="M221 -13h-19q-61 0 -91 28t-30 93v392h101v-395q0 -13 8.5 -18t30.5 -5v-95zM132 572q-75 0 -120.5 44.5t-47.5 133.5h67q2 -53 22.5 -72.5t78.5 -19.5t78.5 19.5t22.5 72.5h67q-2 -89 -47.5 -133.5t-120.5 -44.5z" />
    <glyph glyph-name="Iogonek" unicode="&#x12e;" horiz-adv-x="319" 
d="M212 0q-81 -58 -81 -110q0 -22 14 -34t37 -12q36 0 63 9v-68q-40 -15 -85 -15q-50 0 -84 26.5t-34 77.5q0 76 65 124v752h105v-750z" />
    <glyph glyph-name="iogonek" unicode="&#x12f;" horiz-adv-x="275" 
d="M221 -13q-75 -42 -75 -97q0 -22 14 -34t37 -12q36 0 63 9v-68q-40 -15 -85 -15q-50 0 -84 26.5t-34 77.5q0 71 78 125q-54 24 -54 109v392h101v-395q0 -13 8.5 -18t30.5 -5v-95zM62 667q0 29 20.5 49.5t49.5 20.5t49.5 -20.5t20.5 -49.5t-20.5 -49.5t-49.5 -20.5
t-49.5 20.5t-20.5 49.5z" />
    <glyph glyph-name="Idotaccent" unicode="&#x130;" horiz-adv-x="319" 
d="M212 0h-105v750h105v-750zM90 917q0 29 20.5 49.5t49.5 20.5t49.5 -20.5t20.5 -49.5t-20.5 -49.5t-49.5 -20.5t-49.5 20.5t-20.5 49.5z" />
    <glyph glyph-name="dotlessi" unicode="&#x131;" horiz-adv-x="275" 
d="M221 -13h-19q-61 0 -91 28t-30 93v392h101v-395q0 -13 8.5 -18t30.5 -5v-95z" />
    <glyph glyph-name="IJ" unicode="&#x132;" horiz-adv-x="747" 
d="M212 0h-105v750h105v-750zM364 -1v99q49 -12 86 -12q85 0 85 61v603h105v-601q0 -162 -190 -162q-36 0 -86 12z" />
    <glyph glyph-name="ij" unicode="&#x133;" horiz-adv-x="539" 
d="M221 -13h-19q-61 0 -91 28t-30 93v392h101v-395q0 -13 8.5 -18t30.5 -5v-95zM62 667q0 29 20.5 49.5t49.5 20.5t49.5 -20.5t20.5 -49.5t-20.5 -49.5t-49.5 -20.5t-49.5 20.5t-20.5 49.5zM237 -260v92q50 6 84.5 27.5t34.5 61.5v579h101v-588q0 -75 -67.5 -121t-152.5 -51
zM337 667q0 29 20.5 49.5t49.5 20.5t49.5 -20.5t20.5 -49.5t-20.5 -49.5t-49.5 -20.5t-49.5 20.5t-20.5 49.5z" />
    <glyph glyph-name="Jcircumflex" unicode="&#x134;" horiz-adv-x="428" 
d="M45 -1v99q49 -12 86 -12q85 0 85 61v603h105v-601q0 -162 -190 -162q-37 0 -86 12zM447 825h-56l-122 105l-122 -105h-56l125 175h106z" />
    <glyph glyph-name="jcircumflex" unicode="&#x135;" horiz-adv-x="264" 
d="M-38 -260v92q50 6 84.5 27.5t34.5 61.5v579h101v-588q0 -75 -67.5 -121t-152.5 -51zM310 575h-56l-122 105l-122 -105h-56l125 175h106z" />
    <glyph glyph-name="Kcommaaccent" unicode="&#x136;" horiz-adv-x="648" 
d="M230 326l-42 -49v-277h-103v750h103v-337l265 337h138l-293 -344l320 -406h-138zM337 -250h-61l14 66q-41 18 -41 64q0 29 20.5 49.5t49.5 20.5t49.5 -20.5t20.5 -49.5q0 -18 -8 -34z" />
    <glyph glyph-name="kcommaaccent" unicode="&#x137;" horiz-adv-x="528" 
d="M346 500h148l-219 -210l239 -290h-140l-167 225l-36 -35v-190h-101v750h101v-438zM282 -250h-61l14 66q-41 18 -41 64q0 29 20.5 49.5t49.5 20.5t49.5 -20.5t20.5 -49.5q0 -18 -8 -34z" />
    <glyph glyph-name="kgreenlandic" unicode="&#x138;" horiz-adv-x="528" 
d="M346 500h148l-219 -210l239 -290h-140l-167 225l-36 -35v-190h-101v500h101v-188z" />
    <glyph glyph-name="Lacute" unicode="&#x139;" horiz-adv-x="568" 
d="M190 750v-650h328v-100h-433v750h105zM166 825h-56l80 175h121z" />
    <glyph glyph-name="lacute" unicode="&#x13a;" horiz-adv-x="275" 
d="M221 -13h-19q-61 0 -91 28t-30 93v642h101v-645q0 -13 8.5 -18t30.5 -5v-95zM160 825h-56l80 175h121z" />
    <glyph glyph-name="Lcommaaccent" unicode="&#x13b;" horiz-adv-x="568" 
d="M190 750v-650h328v-100h-433v750h105zM317 -250h-61l14 66q-41 18 -41 64q0 29 20.5 49.5t49.5 20.5t49.5 -20.5t20.5 -49.5q0 -18 -8 -34z" />
    <glyph glyph-name="lcommaaccent" unicode="&#x13c;" horiz-adv-x="275" 
d="M221 -13h-19q-61 0 -91 28t-30 93v642h101v-645q0 -13 8.5 -18t30.5 -5v-95zM171 -250h-61l14 66q-41 18 -41 64q0 29 20.5 49.5t49.5 20.5t49.5 -20.5t20.5 -49.5q0 -18 -8 -34z" />
    <glyph glyph-name="Lcaron" unicode="&#x13d;" horiz-adv-x="568" 
d="M190 750v-650h328v-100h-433v750h105zM276 750h88l-48 -200h-56z" />
    <glyph glyph-name="lcaron" unicode="&#x13e;" horiz-adv-x="275" 
d="M221 -13h-19q-61 0 -91 28t-30 93v642h101v-645q0 -13 8.5 -18t30.5 -5v-95zM243 750h88l-48 -200h-56z" />
    <glyph glyph-name="Ldot" unicode="&#x13f;" horiz-adv-x="568" 
d="M190 750v-650h328v-100h-433v750h105zM352 375q0 29 20.5 49.5t49.5 20.5t49.5 -20.5t20.5 -49.5t-20.5 -49.5t-49.5 -20.5t-49.5 20.5t-20.5 49.5z" />
    <glyph glyph-name="ldot" unicode="&#x140;" horiz-adv-x="355" 
d="M221 -13h-19q-61 0 -91 28t-30 93v642h101v-645q0 -13 8.5 -18t30.5 -5v-95zM241 300q0 29 20.5 49.5t49.5 20.5t49.5 -20.5t20.5 -49.5t-20.5 -49.5t-49.5 -20.5t-49.5 20.5t-20.5 49.5z" />
    <glyph glyph-name="Lslash" unicode="&#x141;" horiz-adv-x="598" 
d="M442 411l-222 -114v-197h328v-100h-433v244l-90 -46v89l90 46v417h105v-364l222 114v-89z" />
    <glyph glyph-name="lslash" unicode="&#x142;" horiz-adv-x="310" 
d="M91 285l-90 -51v94l90 51v371h101v-314l100 57v-94l-100 -57v-237q0 -13 8.5 -18t30.5 -5v-95h-19q-61 0 -91 28t-30 93v177z" />
    <glyph glyph-name="Nacute" unicode="&#x143;" horiz-adv-x="702" 
d="M617 0h-83l-349 544l2 -544h-102v750h83l349 -544l-2 544h102v-750zM379 825h-56l80 175h121z" />
    <glyph glyph-name="nacute" unicode="&#x144;" horiz-adv-x="538" 
d="M370 0v354q0 64 -81 64q-66 0 -116 -24v-394h-103v500h69l10 -28q62 41 140 41q91 0 137.5 -42t46.5 -119v-352h-103zM310 575h-56l80 175h121z" />
    <glyph glyph-name="Ncommaaccent" unicode="&#x145;" horiz-adv-x="702" 
d="M617 0h-83l-349 544l2 -544h-102v750h83l349 -544l-2 544h102v-750zM369 -250h-61l14 66q-41 18 -41 64q0 29 20.5 49.5t49.5 20.5t49.5 -20.5t20.5 -49.5q0 -18 -8 -34z" />
    <glyph glyph-name="ncommaaccent" unicode="&#x146;" horiz-adv-x="538" 
d="M370 0v354q0 64 -81 64q-66 0 -116 -24v-394h-103v500h69l10 -28q62 41 140 41q91 0 137.5 -42t46.5 -119v-352h-103zM289 -250h-61l14 66q-41 18 -41 64q0 29 20.5 49.5t49.5 20.5t49.5 -20.5t20.5 -49.5q0 -18 -8 -34z" />
    <glyph glyph-name="Ncaron" unicode="&#x147;" horiz-adv-x="702" 
d="M617 0h-83l-349 544l2 -544h-102v750h83l349 -544l-2 544h102v-750zM473 1000h56l-125 -175h-106l-125 175h56l122 -105z" />
    <glyph glyph-name="ncaron" unicode="&#x148;" horiz-adv-x="538" 
d="M370 0v354q0 64 -81 64q-66 0 -116 -24v-394h-103v500h69l10 -28q62 41 140 41q91 0 137.5 -42t46.5 -119v-352h-103zM104 750h56l122 -105l122 105h56l-125 -175h-106z" />
    <glyph glyph-name="Eng" unicode="&#x14a;" horiz-adv-x="702" 
d="M397 -260v92q50 6 84.5 27.5t34.5 61.5v107l-331 516l2 -544h-102v750h83l349 -544l-2 544h102v-838q0 -75 -67.5 -121t-152.5 -51z" />
    <glyph glyph-name="eng" unicode="&#x14b;" horiz-adv-x="538" 
d="M253 -260v92q49 6 83 28t34 62v432q0 64 -81 64q-66 0 -116 -24v-394h-103v500h69l10 -28q62 41 140 41q91 0 137.5 -42t46.5 -119v-440q0 -75 -67.5 -121t-152.5 -51z" />
    <glyph glyph-name="Omacron" unicode="&#x14c;" horiz-adv-x="710" 
d="M640 375q0 -66 -5 -116.5t-23 -104t-48 -88t-83 -57t-126 -22.5t-126 22.5t-83 57t-47.5 88t-23 104t-5.5 116.5t5.5 116.5t23 104t47.5 88t83 57t126 22.5t126 -22.5t83 -57t48 -88t23 -104t5 -116.5zM532 375q0 66 -6 112t-24 89t-54.5 65t-92.5 22t-92.5 -22
t-54.5 -65t-24 -89t-6 -112t6 -112t24 -89t54.5 -65t92.5 -22t92.5 22t54.5 65t24 89t6 112zM492 891h-274v91h274v-91z" />
    <glyph glyph-name="omacron" unicode="&#x14d;" horiz-adv-x="554" 
d="M494 250q0 -64 -8.5 -108t-31.5 -81t-67 -55.5t-110 -18.5q-126 0 -171.5 66.5t-45.5 196.5t45.5 196.5t171.5 66.5q66 0 110 -18.5t67 -55.5t31.5 -81t8.5 -108zM392 250q0 41 -3.5 67t-14.5 51.5t-35 37.5t-62 12q-31 0 -53 -9t-34 -22.5t-18.5 -37t-8 -45t-1.5 -54.5
t1.5 -54.5t8 -45t18.5 -37t34 -22.5t53 -9q38 0 62 12t35 37.5t14.5 51.5t3.5 67zM414 641h-274v91h274v-91z" />
    <glyph glyph-name="Obreve" unicode="&#x14e;" horiz-adv-x="710" 
d="M640 375q0 -66 -5 -116.5t-23 -104t-48 -88t-83 -57t-126 -22.5t-126 22.5t-83 57t-47.5 88t-23 104t-5.5 116.5t5.5 116.5t23 104t47.5 88t83 57t126 22.5t126 -22.5t83 -57t48 -88t23 -104t5 -116.5zM532 375q0 66 -6 112t-24 89t-54.5 65t-92.5 22t-92.5 -22
t-54.5 -65t-24 -89t-6 -112t6 -112t24 -89t54.5 -65t92.5 -22t92.5 22t54.5 65t24 89t6 112zM355 822q-75 0 -120.5 44.5t-47.5 133.5h67q2 -53 22.5 -72.5t78.5 -19.5t78.5 19.5t22.5 72.5h67q-2 -89 -47.5 -133.5t-120.5 -44.5z" />
    <glyph glyph-name="obreve" unicode="&#x14f;" horiz-adv-x="554" 
d="M494 250q0 -64 -8.5 -108t-31.5 -81t-67 -55.5t-110 -18.5q-126 0 -171.5 66.5t-45.5 196.5t45.5 196.5t171.5 66.5q66 0 110 -18.5t67 -55.5t31.5 -81t8.5 -108zM392 250q0 41 -3.5 67t-14.5 51.5t-35 37.5t-62 12q-31 0 -53 -9t-34 -22.5t-18.5 -37t-8 -45t-1.5 -54.5
t1.5 -54.5t8 -45t18.5 -37t34 -22.5t53 -9q38 0 62 12t35 37.5t14.5 51.5t3.5 67zM277 572q-75 0 -120.5 44.5t-47.5 133.5h67q2 -53 22.5 -72.5t78.5 -19.5t78.5 19.5t22.5 72.5h67q-2 -89 -47.5 -133.5t-120.5 -44.5z" />
    <glyph glyph-name="Ohungarumlaut" unicode="&#x150;" horiz-adv-x="710" 
d="M640 375q0 -66 -5 -116.5t-23 -104t-48 -88t-83 -57t-126 -22.5t-126 22.5t-83 57t-47.5 88t-23 104t-5.5 116.5t5.5 116.5t23 104t47.5 88t83 57t126 22.5t126 -22.5t83 -57t48 -88t23 -104t5 -116.5zM532 375q0 66 -6 112t-24 89t-54.5 65t-92.5 22t-92.5 -22
t-54.5 -65t-24 -89t-6 -112t6 -112t24 -89t54.5 -65t92.5 -22t92.5 22t54.5 65t24 89t6 112zM293 825h-57l80 175h122zM469 825h-56l80 175h121z" />
    <glyph glyph-name="ohungarumlaut" unicode="&#x151;" horiz-adv-x="554" 
d="M494 250q0 -64 -8.5 -108t-31.5 -81t-67 -55.5t-110 -18.5q-126 0 -171.5 66.5t-45.5 196.5t45.5 196.5t171.5 66.5q66 0 110 -18.5t67 -55.5t31.5 -81t8.5 -108zM392 250q0 41 -3.5 67t-14.5 51.5t-35 37.5t-62 12q-31 0 -53 -9t-34 -22.5t-18.5 -37t-8 -45t-1.5 -54.5
t1.5 -54.5t8 -45t18.5 -37t34 -22.5t53 -9q38 0 62 12t35 37.5t14.5 51.5t3.5 67zM215 575h-57l80 175h122zM391 575h-56l80 175h121z" />
    <glyph glyph-name="OE" unicode="&#x152;" horiz-adv-x="928" 
d="M825 438v-100h-273v-238h306v-100h-469q-90 0 -154 28t-99 80.5t-50.5 117.5t-15.5 149t15.5 149t50.5 117.5t99 80.5t154 28h469v-100h-306v-212h273zM447 100v550h-62q-110 0 -157 -72.5t-47 -202.5t47 -202.5t157 -72.5h62z" />
    <glyph glyph-name="oe" unicode="&#x153;" horiz-adv-x="874" 
d="M814 202h-316q14 -120 117 -120q89 0 172 36v-97q-75 -34 -172 -34q-113 0 -168 63q-52 -63 -170 -63q-126 0 -171.5 66.5t-45.5 196.5t45.5 196.5t171.5 66.5q118 0 170 -64q55 64 168 64q51 0 88 -14.5t58 -37t33 -59t16 -71t4 -81.5v-48zM277 82q69 0 91.5 39
t23.5 117v23q-1 78 -23.5 117.5t-91.5 39.5q-31 0 -53 -9t-34 -22.5t-18.5 -37t-8 -45t-1.5 -54.5t1.5 -54.5t8 -45t18.5 -37t34 -22.5t53 -9zM615 418q-60 0 -86 -33t-32 -94h211q-1 60 -19 93.5t-74 33.5z" />
    <glyph glyph-name="Racute" unicode="&#x154;" horiz-adv-x="671" 
d="M190 312v-312h-105v750h242q138 0 195.5 -55.5t57.5 -162.5q0 -158 -124 -202q13 -24 78.5 -147t96.5 -183h-130l-153 312h-158zM190 650v-238h151q76 0 101 30.5t25 89.5q0 57 -25.5 87.5t-100.5 30.5h-151zM343 825h-56l80 175h121z" />
    <glyph glyph-name="racute" unicode="&#x155;" horiz-adv-x="403" 
d="M363 505v-102q-42 15 -74 15q-62 0 -116 -24v-394h-103v500h69l10 -28q65 41 140 41q39 0 74 -8zM250 575h-56l80 175h121z" />
    <glyph glyph-name="Rcommaaccent" unicode="&#x156;" horiz-adv-x="671" 
d="M190 312v-312h-105v750h242q138 0 195.5 -55.5t57.5 -162.5q0 -158 -124 -202q13 -24 78.5 -147t96.5 -183h-130l-153 312h-158zM190 650v-238h151q76 0 101 30.5t25 89.5q0 57 -25.5 87.5t-100.5 30.5h-151zM353 -250h-61l14 66q-41 18 -41 64q0 29 20.5 49.5t49.5 20.5
t49.5 -20.5t20.5 -49.5q0 -18 -8 -34z" />
    <glyph glyph-name="rcommaaccent" unicode="&#x157;" horiz-adv-x="403" 
d="M363 505v-102q-42 15 -74 15q-62 0 -116 -24v-394h-103v500h69l10 -28q65 41 140 41q39 0 74 -8zM140 -250h-61l14 66q-41 18 -41 64q0 29 20.5 49.5t49.5 20.5t49.5 -20.5t20.5 -49.5q0 -18 -8 -34z" />
    <glyph glyph-name="Rcaron" unicode="&#x158;" horiz-adv-x="671" 
d="M190 312v-312h-105v750h242q138 0 195.5 -55.5t57.5 -162.5q0 -158 -124 -202q13 -24 78.5 -147t96.5 -183h-130l-153 312h-158zM190 650v-238h151q76 0 101 30.5t25 89.5q0 57 -25.5 87.5t-100.5 30.5h-151zM437 1000h56l-125 -175h-106l-125 175h56l122 -105z" />
    <glyph glyph-name="rcaron" unicode="&#x159;" horiz-adv-x="403" 
d="M363 505v-102q-42 15 -74 15q-62 0 -116 -24v-394h-103v500h69l10 -28q65 41 140 41q39 0 74 -8zM344 750h56l-125 -175h-106l-125 175h56l122 -105z" />
    <glyph glyph-name="Sacute" unicode="&#x15a;" horiz-adv-x="631" 
d="M323 663q-87 0 -119.5 -32.5t-32.5 -88.5q0 -24 7.5 -40.5t18 -26.5t33.5 -17.5t42 -11t56 -8.5q121 -14 180 -61.5t59 -152.5q0 -44 -13 -82.5t-43 -75t-88.5 -58t-139.5 -21.5q-51 0 -114.5 13t-104.5 32v103q6 -2 21.5 -8.5t21.5 -8.5t20 -7t21.5 -7t21 -5.5t24.5 -5
t25.5 -3.5t30.5 -2.5t34 -0.5q173 0 173 137q0 58 -31.5 80.5t-116.5 33.5h1q-136 17 -191 63t-55 142q0 38 11 73t37 70t80 56t131 21q117 0 205 -41v-106q-101 47 -205 47zM346 825h-56l80 175h121z" />
    <glyph glyph-name="sacute" unicode="&#x15b;" horiz-adv-x="486" 
d="M157 354q0 -23 18.5 -34.5t72.5 -16.5q104 -10 141.5 -45.5t37.5 -106.5q0 -69 -49 -116.5t-156 -47.5q-36 0 -83 8.5t-75 19.5v97q86 -30 159 -30q104 0 104 68q0 28 -18 42.5t-72 19.5q-103 9 -140.5 44.5t-37.5 97.5q0 65 46 112t146 47q87 0 153 -29v-95
q-89 29 -154 29q-53 0 -73 -16.5t-20 -47.5zM271 575h-56l80 175h121z" />
    <glyph glyph-name="Scircumflex" unicode="&#x15c;" horiz-adv-x="631" 
d="M323 663q-87 0 -119.5 -32.5t-32.5 -88.5q0 -24 7.5 -40.5t18 -26.5t33.5 -17.5t42 -11t56 -8.5q121 -14 180 -61.5t59 -152.5q0 -44 -13 -82.5t-43 -75t-88.5 -58t-139.5 -21.5q-51 0 -114.5 13t-104.5 32v103q6 -2 21.5 -8.5t21.5 -8.5t20 -7t21.5 -7t21 -5.5t24.5 -5
t25.5 -3.5t30.5 -2.5t34 -0.5q173 0 173 137q0 58 -31.5 80.5t-116.5 33.5h1q-136 17 -191 63t-55 142q0 38 11 73t37 70t80 56t131 21q117 0 205 -41v-106q-101 47 -205 47zM496 825h-56l-122 105l-122 -105h-56l125 175h106z" />
    <glyph glyph-name="scircumflex" unicode="&#x15d;" horiz-adv-x="486" 
d="M157 354q0 -23 18.5 -34.5t72.5 -16.5q104 -10 141.5 -45.5t37.5 -106.5q0 -69 -49 -116.5t-156 -47.5q-36 0 -83 8.5t-75 19.5v97q86 -30 159 -30q104 0 104 68q0 28 -18 42.5t-72 19.5q-103 9 -140.5 44.5t-37.5 97.5q0 65 46 112t146 47q87 0 153 -29v-95
q-89 29 -154 29q-53 0 -73 -16.5t-20 -47.5zM421 575h-56l-122 105l-122 -105h-56l125 175h106z" />
    <glyph glyph-name="Scedilla" unicode="&#x15e;" horiz-adv-x="631" 
d="M341 -185h-102q23 20 32 42.5t-8 36.5q-55 30 -8 94q-116 9 -191 44v103q6 -2 21.5 -8.5t21.5 -8.5t20 -7t21.5 -7t21 -5.5t24.5 -5t25.5 -3.5t30.5 -2.5t34 -0.5q173 0 173 137q0 58 -31.5 80.5t-116.5 33.5h1q-136 17 -191 63t-55 142q0 38 11 73t37 70t80 56t131 21
q117 0 205 -41v-106q-101 47 -205 47q-87 0 -119.5 -32.5t-32.5 -88.5q0 -24 7.5 -40.5t18 -26.5t33.5 -17.5t42 -11t56 -8.5q121 -14 180 -61.5t59 -152.5q0 -41 -11 -77t-36.5 -71t-75 -58.5t-118.5 -28.5q-25 -39 10 -60q30 -17 35 -41t-5 -41t-25 -32z" />
    <glyph glyph-name="scedilla" unicode="&#x15f;" horiz-adv-x="486" 
d="M269 -185h-102q23 20 32 42.5t-8 36.5q-54 29 -8 95q-80 9 -119 26v97q86 -30 159 -30q104 0 104 68q0 28 -18 42.5t-72 19.5q-103 9 -140.5 44.5t-37.5 97.5q0 65 46 112t146 47q87 0 153 -29v-95q-89 29 -154 29q-53 0 -73 -16.5t-20 -47.5q0 -23 18.5 -34.5
t72.5 -16.5q104 -10 141.5 -45.5t37.5 -106.5q0 -63 -41.5 -108.5t-131.5 -53.5q-27 -38 10 -60q30 -17 35 -41t-5 -41t-25 -32z" />
    <glyph glyph-name="Scaron" unicode="&#x160;" horiz-adv-x="631" 
d="M323 663q-87 0 -119.5 -32.5t-32.5 -88.5q0 -24 7.5 -40.5t18 -26.5t33.5 -17.5t42 -11t56 -8.5q121 -14 180 -61.5t59 -152.5q0 -44 -13 -82.5t-43 -75t-88.5 -58t-139.5 -21.5q-51 0 -114.5 13t-104.5 32v103q6 -2 21.5 -8.5t21.5 -8.5t20 -7t21.5 -7t21 -5.5t24.5 -5
t25.5 -3.5t30.5 -2.5t34 -0.5q173 0 173 137q0 58 -31.5 80.5t-116.5 33.5h1q-136 17 -191 63t-55 142q0 38 11 73t37 70t80 56t131 21q117 0 205 -41v-106q-101 47 -205 47zM440 1000h56l-125 -175h-106l-125 175h56l122 -105z" />
    <glyph glyph-name="scaron" unicode="&#x161;" horiz-adv-x="486" 
d="M157 354q0 -23 18.5 -34.5t72.5 -16.5q104 -10 141.5 -45.5t37.5 -106.5q0 -69 -49 -116.5t-156 -47.5q-36 0 -83 8.5t-75 19.5v97q86 -30 159 -30q104 0 104 68q0 28 -18 42.5t-72 19.5q-103 9 -140.5 44.5t-37.5 97.5q0 65 46 112t146 47q87 0 153 -29v-95
q-89 29 -154 29q-53 0 -73 -16.5t-20 -47.5zM365 750h56l-125 -175h-106l-125 175h56l122 -105z" />
    <glyph glyph-name="Tcommaaccent" unicode="&#x162;" horiz-adv-x="585" 
d="M543 650h-198v-650h-105v650h-198v100h501v-100zM311 -250h-61l14 66q-41 18 -41 64q0 29 20.5 49.5t49.5 20.5t49.5 -20.5t20.5 -49.5q0 -18 -8 -34z" />
    <glyph glyph-name="tcommaaccent" unicode="&#x163;" horiz-adv-x="409" 
d="M348 86v-93q-25 -6 -63 -6q-68 0 -116.5 35.5t-48.5 104.5v285h-93v62l93 26v126l101 28v-154h148v-88h-148v-276q0 -54 72 -54q33 0 55 4zM253 -250h-61l14 66q-41 18 -41 64q0 29 20.5 49.5t49.5 20.5t49.5 -20.5t20.5 -49.5q0 -18 -8 -34z" />
    <glyph glyph-name="Tcaron" unicode="&#x164;" horiz-adv-x="585" 
d="M543 650h-198v-650h-105v650h-198v100h501v-100zM414 1000h56l-125 -175h-106l-125 175h56l122 -105z" />
    <glyph glyph-name="tcaron" unicode="&#x165;" horiz-adv-x="409" 
d="M348 86v-93q-25 -6 -63 -6q-68 0 -116.5 35.5t-48.5 104.5v285h-93v62l93 26v126l101 28v-154h148v-88h-148v-276q0 -54 72 -54q33 0 55 4zM282 750h88l-48 -200h-56z" />
    <glyph glyph-name="Tbar" unicode="&#x166;" horiz-adv-x="585" 
d="M471 437v-98h-126v-339h-105v339h-126v98h126v213h-198v100h501v-100h-198v-213h126z" />
    <glyph glyph-name="tbar" unicode="&#x167;" horiz-adv-x="409" 
d="M348 86v-93q-25 -6 -63 -6q-68 0 -116.5 35.5t-48.5 104.5v109h-83v83h83v93h-93v62l93 26v126l101 28v-154h148v-88h-148v-93h124v-83h-124v-100q0 -54 72 -54q33 0 55 4z" />
    <glyph glyph-name="Utilde" unicode="&#x168;" horiz-adv-x="702" 
d="M351 88q166 0 166 164v498h105v-511q0 -62 -20 -109.5t-48.5 -73.5t-67.5 -42.5t-71 -21.5t-64 -5t-64 5t-71 21.5t-67.5 42.5t-48.5 73.5t-20 109.5v511h105v-498q0 -164 166 -164zM466 981l80 -7q-1 -71 -32 -104.5t-93 -32.5q-35 0 -60 15.5t-43 31t-37 15.5t-29 -9
t-12.5 -19t-3.5 -27l-80 7q1 71 32 105t93 33q28 -1 50 -11t33 -21.5t26 -21t31 -9.5q19 0 29 9t12.5 19.5t3.5 26.5z" />
    <glyph glyph-name="utilde" unicode="&#x169;" horiz-adv-x="538" 
d="M168 500v-354q0 -64 81 -64q66 0 116 24v394h103v-500h-69l-10 28q-62 -41 -140 -41q-91 0 -137.5 42t-46.5 119v352h103zM382 731l80 -7q-1 -71 -32 -104.5t-93 -32.5q-35 0 -60 15.5t-43 31t-37 15.5t-29 -9t-12.5 -19t-3.5 -27l-80 7q1 71 32 105t93 33q28 -1 50 -11
t33 -21.5t26 -21t31 -9.5q19 0 29 9t12.5 19.5t3.5 26.5z" />
    <glyph glyph-name="Umacron" unicode="&#x16a;" horiz-adv-x="702" 
d="M351 88q166 0 166 164v498h105v-511q0 -62 -20 -109.5t-48.5 -73.5t-67.5 -42.5t-71 -21.5t-64 -5t-64 5t-71 21.5t-67.5 42.5t-48.5 73.5t-20 109.5v511h105v-498q0 -164 166 -164zM488 891h-274v91h274v-91z" />
    <glyph glyph-name="umacron" unicode="&#x16b;" horiz-adv-x="538" 
d="M168 500v-354q0 -64 81 -64q66 0 116 24v394h103v-500h-69l-10 28q-62 -41 -140 -41q-91 0 -137.5 42t-46.5 119v352h103zM403 641h-274v91h274v-91z" />
    <glyph glyph-name="Ubreve" unicode="&#x16c;" horiz-adv-x="702" 
d="M351 88q166 0 166 164v498h105v-511q0 -62 -20 -109.5t-48.5 -73.5t-67.5 -42.5t-71 -21.5t-64 -5t-64 5t-71 21.5t-67.5 42.5t-48.5 73.5t-20 109.5v511h105v-498q0 -164 166 -164zM351 822q-75 0 -120.5 44.5t-47.5 133.5h67q2 -53 22.5 -72.5t78.5 -19.5t78.5 19.5
t22.5 72.5h67q-2 -89 -47.5 -133.5t-120.5 -44.5z" />
    <glyph glyph-name="ubreve" unicode="&#x16d;" horiz-adv-x="538" 
d="M168 500v-354q0 -64 81 -64q66 0 116 24v394h103v-500h-69l-10 28q-62 -41 -140 -41q-91 0 -137.5 42t-46.5 119v352h103zM266 572q-75 0 -120.5 44.5t-47.5 133.5h67q2 -53 22.5 -72.5t78.5 -19.5t78.5 19.5t22.5 72.5h67q-2 -89 -47.5 -133.5t-120.5 -44.5z" />
    <glyph glyph-name="Uring" unicode="&#x16e;" horiz-adv-x="702" 
d="M351 88q166 0 166 164v498h105v-511q0 -62 -20 -109.5t-48.5 -73.5t-67.5 -42.5t-71 -21.5t-64 -5t-64 5t-71 21.5t-67.5 42.5t-48.5 73.5t-20 109.5v511h105v-498q0 -164 166 -164zM452 912q0 -50 -27 -75t-74 -25q-48 0 -75 25t-27 75q0 51 27 76t75 25q47 0 74 -25
t27 -76zM395 912q0 45 -44 45q-23 0 -33.5 -10t-10.5 -35q0 -43 44 -43t44 43z" />
    <glyph glyph-name="uring" unicode="&#x16f;" horiz-adv-x="538" 
d="M168 500v-354q0 -64 81 -64q66 0 116 24v394h103v-500h-69l-10 28q-62 -41 -140 -41q-91 0 -137.5 42t-46.5 119v352h103zM368 662q0 -50 -27 -75t-74 -25q-48 0 -75 25t-27 75q0 51 27 76t75 25q47 0 74 -25t27 -76zM311 662q0 45 -44 45q-23 0 -33.5 -10t-10.5 -35
q0 -43 44 -43t44 43z" />
    <glyph glyph-name="Uhungarumlaut" unicode="&#x170;" horiz-adv-x="702" 
d="M351 88q166 0 166 164v498h105v-511q0 -62 -20 -109.5t-48.5 -73.5t-67.5 -42.5t-71 -21.5t-64 -5t-64 5t-71 21.5t-67.5 42.5t-48.5 73.5t-20 109.5v511h105v-498q0 -164 166 -164zM289 825h-57l80 175h122zM465 825h-56l80 175h121z" />
    <glyph glyph-name="uhungarumlaut" unicode="&#x171;" horiz-adv-x="538" 
d="M168 500v-354q0 -64 81 -64q66 0 116 24v394h103v-500h-69l-10 28q-62 -41 -140 -41q-91 0 -137.5 42t-46.5 119v352h103zM205 575h-57l80 175h122zM381 575h-56l80 175h121z" />
    <glyph glyph-name="Uogonek" unicode="&#x172;" horiz-adv-x="702" 
d="M351 88q166 0 166 164v498h105v-511q0 -192 -174 -239q-100 -45 -100 -110q0 -22 14 -34t37 -12q36 0 63 9v-68q-40 -15 -85 -15q-50 0 -84 26.5t-34 77.5q0 64 63 114q-42 3 -79.5 15t-76.5 38.5t-62.5 77t-23.5 120.5v511h105v-498q0 -164 166 -164z" />
    <glyph glyph-name="uogonek" unicode="&#x173;" horiz-adv-x="538" 
d="M168 500v-354q0 -64 81 -64q66 0 116 24v394h103v-500q-101 -46 -101 -110q0 -22 14 -34t37 -12q36 0 63 9v-68q-40 -15 -85 -15q-50 0 -84 26.5t-34 77.5q0 83 115 143l-4 11q-62 -41 -140 -41q-91 0 -137.5 42t-46.5 119v352h103z" />
    <glyph glyph-name="Wcircumflex" unicode="&#x174;" horiz-adv-x="908" 
d="M258 181l145 569h101l146 -570l105 570h113l-166 -763h-97l-151 593l-152 -593h-96l-166 763h113zM632 825h-56l-122 105l-122 -105h-56l125 175h106z" />
    <glyph glyph-name="wcircumflex" unicode="&#x175;" horiz-adv-x="711" 
d="M404 500l100 -338l75 338h107l-141 -513h-79l-110 382l-111 -382h-79l-141 513h108l76 -339l98 339h97zM533 575h-56l-122 105l-122 -105h-56l125 175h106z" />
    <glyph glyph-name="Ycircumflex" unicode="&#x176;" horiz-adv-x="726" 
d="M686 750l-271 -441v-309h-104v309l-271 441h126l197 -350l197 350h126zM541 825h-56l-122 105l-122 -105h-56l125 175h106z" />
    <glyph glyph-name="ycircumflex" unicode="&#x177;" horiz-adv-x="515" 
d="M25 500h116l117 -361l117 361h115l-288 -750h-112l120 274zM436 575h-56l-122 105l-122 -105h-56l125 175h106z" />
    <glyph glyph-name="Ydieresis" unicode="&#x178;" horiz-adv-x="726" 
d="M686 750l-271 -441v-309h-104v309l-271 441h126l197 -350l197 350h126zM403 917q0 29 20.5 49.5t49.5 20.5t49.5 -20.5t20.5 -49.5t-20.5 -49.5t-49.5 -20.5t-49.5 20.5t-20.5 49.5zM183 917q0 29 20.5 49.5t49.5 20.5t49.5 -20.5t20.5 -49.5t-20.5 -49.5t-49.5 -20.5
t-49.5 20.5t-20.5 49.5z" />
    <glyph glyph-name="Zacute" unicode="&#x179;" horiz-adv-x="642" 
d="M592 0h-542v68l386 582h-367v100h509v-68l-387 -582h401v-100zM344 825h-56l80 175h121z" />
    <glyph glyph-name="zacute" unicode="&#x17a;" horiz-adv-x="470" 
d="M435 0h-400v67l255 338h-241v95h377v-67l-255 -338h264v-95zM259 575h-56l80 175h121z" />
    <glyph glyph-name="Zdotaccent" unicode="&#x17b;" horiz-adv-x="642" 
d="M592 0h-542v68l386 582h-367v100h509v-68l-387 -582h401v-100zM246 917q0 29 20.5 49.5t49.5 20.5t49.5 -20.5t20.5 -49.5t-20.5 -49.5t-49.5 -20.5t-49.5 20.5t-20.5 49.5z" />
    <glyph glyph-name="zdotaccent" unicode="&#x17c;" horiz-adv-x="470" 
d="M435 0h-400v67l255 338h-241v95h377v-67l-255 -338h264v-95zM161 667q0 29 20.5 49.5t49.5 20.5t49.5 -20.5t20.5 -49.5t-20.5 -49.5t-49.5 -20.5t-49.5 20.5t-20.5 49.5z" />
    <glyph glyph-name="Zcaron" unicode="&#x17d;" horiz-adv-x="642" 
d="M592 0h-542v68l386 582h-367v100h509v-68l-387 -582h401v-100zM438 1000h56l-125 -175h-106l-125 175h56l122 -105z" />
    <glyph glyph-name="zcaron" unicode="&#x17e;" horiz-adv-x="470" 
d="M435 0h-400v67l255 338h-241v95h377v-67l-255 -338h264v-95zM353 750h56l-125 -175h-106l-125 175h56l122 -105z" />
    <glyph glyph-name="florin" unicode="&#x192;" 
d="M355 763q118 0 189 -31v-94q-88 30 -189 30q-47 0 -81.5 -28t-34.5 -79v-123h271v-88h-271v-350h-100v350h-93v61l93 27v123q0 94 54 148t162 54z" />
    <glyph glyph-name="Scommaaccent" unicode="&#x218;" horiz-adv-x="631" 
d="M323 663q-87 0 -119.5 -32.5t-32.5 -88.5q0 -24 7.5 -40.5t18 -26.5t33.5 -17.5t42 -11t56 -8.5q121 -14 180 -61.5t59 -152.5q0 -44 -13 -82.5t-43 -75t-88.5 -58t-139.5 -21.5q-51 0 -114.5 13t-104.5 32v103q6 -2 21.5 -8.5t21.5 -8.5t20 -7t21.5 -7t21 -5.5t24.5 -5
t25.5 -3.5t30.5 -2.5t34 -0.5q173 0 173 137q0 58 -31.5 80.5t-116.5 33.5h1q-136 17 -191 63t-55 142q0 38 11 73t37 70t80 56t131 21q117 0 205 -41v-106q-101 47 -205 47zM302 -250h-61l14 66q-41 18 -41 64q0 29 20.5 49.5t49.5 20.5t49.5 -20.5t20.5 -49.5
q0 -18 -8 -34z" />
    <glyph glyph-name="scommaaccent" unicode="&#x219;" horiz-adv-x="486" 
d="M157 354q0 -23 18.5 -34.5t72.5 -16.5q104 -10 141.5 -45.5t37.5 -106.5q0 -69 -49 -116.5t-156 -47.5q-36 0 -83 8.5t-75 19.5v97q86 -30 159 -30q104 0 104 68q0 28 -18 42.5t-72 19.5q-103 9 -140.5 44.5t-37.5 97.5q0 65 46 112t146 47q87 0 153 -29v-95
q-89 29 -154 29q-53 0 -73 -16.5t-20 -47.5zM251 -250h-61l14 66q-41 18 -41 64q0 29 20.5 49.5t49.5 20.5t49.5 -20.5t20.5 -49.5q0 -18 -8 -34z" />
    <glyph glyph-name="circumflex" unicode="&#x2c6;" horiz-adv-x="540" 
d="M458 575h-56l-122 105l-122 -105h-56l125 175h106z" />
    <glyph glyph-name="caron" unicode="&#x2c7;" horiz-adv-x="540" 
d="M402 750h56l-125 -175h-106l-125 175h56l122 -105z" />
    <glyph glyph-name="breve" unicode="&#x2d8;" horiz-adv-x="540" 
d="M270 572q-75 0 -120.5 44.5t-47.5 133.5h67q2 -53 22.5 -72.5t78.5 -19.5t78.5 19.5t22.5 72.5h67q-2 -89 -47.5 -133.5t-120.5 -44.5z" />
    <glyph glyph-name="dotaccent" unicode="&#x2d9;" horiz-adv-x="540" 
d="M210 667q0 29 20.5 49.5t49.5 20.5t49.5 -20.5t20.5 -49.5t-20.5 -49.5t-49.5 -20.5t-49.5 20.5t-20.5 49.5z" />
    <glyph glyph-name="ring" unicode="&#x2da;" horiz-adv-x="602" 
d="M381 662q0 -50 -27 -75t-74 -25q-48 0 -75 25t-27 75q0 51 27 76t75 25q47 0 74 -25t27 -76zM324 662q0 45 -44 45q-23 0 -33.5 -10t-10.5 -35q0 -43 44 -43t44 43z" />
    <glyph glyph-name="ogonek" unicode="&#x2db;" horiz-adv-x="526" 
d="M286 26l66 -26q-101 -46 -101 -110q0 -22 14 -34t37 -12q36 0 63 9v-68q-40 -15 -85 -15q-50 0 -84 26.5t-34 77.5q0 89 124 152z" />
    <glyph glyph-name="tilde" unicode="&#x2dc;" horiz-adv-x="540" 
d="M395 731l80 -7q-1 -71 -32 -104.5t-93 -32.5q-35 0 -60 15.5t-43 31t-37 15.5t-29 -9t-12.5 -19t-3.5 -27l-80 7q1 71 32 105t93 33q28 -1 50 -11t33 -21.5t26 -21t31 -9.5q19 0 29 9t12.5 19.5t3.5 26.5z" />
    <glyph glyph-name="hungarumlaut" unicode="&#x2dd;" horiz-adv-x="540" 
d="M210 575h-57l80 175h122zM386 575h-56l80 175h121z" />
    <glyph glyph-name="pi" unicode="&#x3c0;" horiz-adv-x="680" 
d="M340 -13q-58 0 -103 11t-84 39t-60 81.5t-21 131.5t21 132t60 81.5t84 38.5t103 11t103 -11t84 -38.5t60 -81.5t21 -132t-21 -131.5t-60 -81.5t-84 -39t-103 -11zM340 71q88 0 133.5 36.5t45.5 142.5t-45.5 142.5t-133.5 36.5t-133.5 -36.5t-45.5 -142.5t45.5 -142.5
t133.5 -36.5zM368 194h-47v-79h-80v270h127q51 0 75 -26.5t24 -69.5q0 -41 -24 -68t-75 -27zM321 307v-38h45q20 0 20 19t-20 19h-45z" />
    <glyph glyph-name="enspace" unicode="&#x2002;" horiz-adv-x="500" 
 />
    <glyph glyph-name="emspace" unicode="&#x2003;" horiz-adv-x="1000" 
 />
    <glyph glyph-name="threeperemspace" unicode="&#x2004;" horiz-adv-x="333" 
 />
    <glyph glyph-name="fourperemspace" unicode="&#x2005;" horiz-adv-x="250" 
 />
    <glyph glyph-name="sixperemspace" unicode="&#x2006;" horiz-adv-x="167" 
 />
    <glyph glyph-name="figurespace" unicode="&#x2007;" 
 />
    <glyph glyph-name="punctuationspace" unicode="&#x2008;" horiz-adv-x="220" 
 />
    <glyph glyph-name="thinspace" unicode="&#x2009;" horiz-adv-x="100" 
 />
    <glyph glyph-name="hairspace" unicode="&#x200a;" horiz-adv-x="50" 
 />
    <glyph glyph-name="zerowidthspace" unicode="&#x200b;" horiz-adv-x="0" 
 />
    <glyph glyph-name="figuredash" unicode="&#x2012;" 
d="M540 390v-98h-480v98h480z" />
    <glyph glyph-name="endash" unicode="&#x2013;" horiz-adv-x="500" 
d="M440 390v-98h-380v98h380z" />
    <glyph glyph-name="emdash" unicode="&#x2014;" horiz-adv-x="1000" 
d="M940 390v-98h-880v98h880z" />
    <glyph glyph-name="afii00208" unicode="&#x2015;" horiz-adv-x="1200" 
d="M1140 390v-98h-1080v98h1080z" />
    <glyph glyph-name="quoteleft" unicode="&#x2018;" horiz-adv-x="190" 
d="M103 750h49q-2 -4 -5 -11.5t-11 -33t-11.5 -52.5t-6.5 -69.5t5 -83.5h-125q1 43 12.5 85t26.5 70.5t30 51t25 33.5z" />
    <glyph glyph-name="quoteright" unicode="&#x2019;" horiz-adv-x="190" 
d="M87 500h-49q2 4 5 11.5t11 33t11.5 52.5t6.5 69.5t-5 83.5h125q-1 -43 -12.5 -85t-26.5 -70.5t-30 -51t-25 -33.5z" />
    <glyph glyph-name="quotesinglbase" unicode="&#x201a;" horiz-adv-x="190" 
d="M87 -160h-49q2 4 5 11.5t11 33t11.5 52.5t6.5 69.5t-5 83.5h125q-1 -43 -12.5 -85t-26.5 -70.5t-30 -51t-25 -33.5z" />
    <glyph glyph-name="quotedblleft" unicode="&#x201c;" horiz-adv-x="370" 
d="M103 750h49q-2 -4 -5 -11.5t-11 -33t-11.5 -52.5t-6.5 -69.5t5 -83.5h-125q1 43 12.5 85t26.5 70.5t30 51t25 33.5zM283 750h49q-2 -4 -5 -11.5t-11 -33t-11.5 -52.5t-6.5 -69.5t5 -83.5h-125q1 43 12.5 85t26.5 70.5t30 51t25 33.5z" />
    <glyph glyph-name="quotedblright" unicode="&#x201d;" horiz-adv-x="370" 
d="M87 500h-49q2 4 5 11.5t11 33t11.5 52.5t6.5 69.5t-5 83.5h125q-1 -43 -12.5 -85t-26.5 -70.5t-30 -51t-25 -33.5zM267 500h-49q2 4 5 11.5t11 33t11.5 52.5t6.5 69.5t-5 83.5h125q-1 -43 -12.5 -85t-26.5 -70.5t-30 -51t-25 -33.5z" />
    <glyph glyph-name="quotedblbase" unicode="&#x201e;" horiz-adv-x="370" 
d="M87 -160h-49q2 4 5 11.5t11 33t11.5 52.5t6.5 69.5t-5 83.5h125q-1 -43 -12.5 -85t-26.5 -70.5t-30 -51t-25 -33.5zM267 -160h-49q2 4 5 11.5t11 33t11.5 52.5t6.5 69.5t-5 83.5h125q-1 -43 -12.5 -85t-26.5 -70.5t-30 -51t-25 -33.5z" />
    <glyph glyph-name="dagger" unicode="&#x2020;" horiz-adv-x="404" 
d="M260 750l-20 -138l139 19v-115l-139 19l30 -240h-136l30 240l-139 -19v115l138 -19l-19 138h116z" />
    <glyph glyph-name="daggerdbl" unicode="&#x2021;" horiz-adv-x="404" 
d="M260 750l-20 -138l139 19v-115l-139 19l8 -55l-8 -53l139 19v-116l-139 20l30 -240h-136l30 240l-139 -20v116l138 -19l-7 53l7 55l-138 -19v115l138 -19l-19 138h116z" />
    <glyph glyph-name="bullet" unicode="&#x2022;" horiz-adv-x="400" 
d="M65 375q0 56 39.5 95.5t95.5 39.5t95.5 -39.5t39.5 -95.5t-39.5 -95.5t-95.5 -39.5t-95.5 39.5t-39.5 95.5z" />
    <glyph glyph-name="ellipsis" unicode="&#x2026;" horiz-adv-x="990" 
d="M95 57q0 29 20.5 49.5t49.5 20.5t49.5 -20.5t20.5 -49.5t-20.5 -49.5t-49.5 -20.5t-49.5 20.5t-20.5 49.5zM755 57q0 29 20.5 49.5t49.5 20.5t49.5 -20.5t20.5 -49.5t-20.5 -49.5t-49.5 -20.5t-49.5 20.5t-20.5 49.5zM425 57q0 29 20.5 49.5t49.5 20.5t49.5 -20.5
t20.5 -49.5t-20.5 -49.5t-49.5 -20.5t-49.5 20.5t-20.5 49.5z" />
    <glyph glyph-name="perthousand" unicode="&#x2030;" horiz-adv-x="1405" 
d="M237 353q-95 0 -138.5 51t-43.5 154t43.5 154t138.5 51q94 0 138 -51.5t44 -153.5t-44 -153.5t-138 -51.5zM748 397q95 0 138.5 -51t43.5 -154t-43.5 -154t-138.5 -51q-94 0 -137.5 51t-43.5 154t43.5 154t137.5 51zM1168 397q95 0 138.5 -51t43.5 -154t-43.5 -154
t-138.5 -51q-94 0 -137.5 51t-43.5 154t43.5 154t137.5 51zM286 0h-119l532 750h119zM237 449q45 0 64 24.5t19 84.5t-19 85t-64 25t-64 -25t-19 -85t19 -84.5t64 -24.5zM1168 301q-44 0 -63.5 -25t-19.5 -84t19.5 -84.5t63.5 -25.5q45 0 64 25t19 85t-19 84.5t-64 24.5z
M748 301q-44 0 -63.5 -25t-19.5 -84t19.5 -84.5t63.5 -25.5q45 0 64 25t19 85t-19 84.5t-64 24.5z" />
    <glyph glyph-name="guilsinglleft" unicode="&#x2039;" horiz-adv-x="305" 
d="M55 204v92l190 140v-87l-107 -99l107 -99v-88z" />
    <glyph glyph-name="guilsinglright" unicode="&#x203a;" horiz-adv-x="305" 
d="M250 296v-92l-190 -141v88l107 99l-107 99v87z" />
    <glyph glyph-name="fraction" unicode="&#x2044;" horiz-adv-x="551" 
d="M69 0h-119l532 750h119z" />
    <glyph glyph-name="Euro" unicode="&#x20ac;" horiz-adv-x="546" 
d="M90 401h-55v99h61q14 134 74.5 198.5t189.5 64.5q93 0 157 -27v-97q-80 26 -157 26q-72 0 -108.5 -40.5t-48.5 -124.5h260l-33 -99h-234v-52h217l-33 -99h-177q12 -85 48.5 -125t108.5 -40q77 0 157 26v-97q-64 -27 -157 -27q-129 0 -189.5 64.5t-74.5 198.5h-61v99h55
v52z" />
    <glyph glyph-name="trademark" unicode="&#x2122;" horiz-adv-x="575" 
d="M410 530h-38l-64 128l2 -158h-49v250h55l74 -156l76 156h54v-250h-48l2 158zM230 704h-76v-204h-52v204h-77v46h205v-46z" />
    <glyph glyph-name="Omega" unicode="&#x2126;" horiz-adv-x="396" 
d="M229 459q50 0 114 16v-93q-61 -15 -114 -15q-92 0 -134 49.5t-42 148.5t42 148.5t134 49.5q53 0 114 -15v-93q-64 16 -114 16q-44 0 -62 -24t-18 -82t18 -82t62 -24z" />
    <glyph glyph-name="partialdiff" unicode="&#x2202;" horiz-adv-x="552" 
d="M492 251q0 -63 -9 -108t-32 -82t-66.5 -55.5t-108.5 -18.5q-123 0 -169.5 67.5t-46.5 196.5q0 128 46.5 195t169.5 67q65 0 103 -26q-21 180 -140 180q-97 0 -165 -34v97q59 33 165 33q61 0 105 -22.5t72.5 -63t45.5 -105.5t23.5 -141.5t6.5 -179.5zM389 251
q0 85 -21 125.5t-92 40.5q-31 0 -52.5 -8.5t-33 -21.5t-18 -36.5t-8 -44.5t-1.5 -55t1.5 -55t8 -45t18 -37t33 -22t52.5 -9q38 0 61.5 12t34 37t14 51t3.5 68z" />
    <glyph glyph-name="Delta" unicode="&#x2206;" horiz-adv-x="660" 
d="M67 250q0 109 77 186t186 77t186 -77t77 -186t-77 -186t-186 -77t-186 77t-77 186z" />
    <glyph glyph-name="product" unicode="&#x220f;" horiz-adv-x="680" 
d="M340 -13q-58 0 -103 11t-84 39t-60 81.5t-21 131.5t21 132t60 81.5t84 38.5t103 11t103 -11t84 -38.5t60 -81.5t21 -132t-21 -131.5t-60 -81.5t-84 -39t-103 -11zM340 71q88 0 133.5 36.5t45.5 142.5t-45.5 142.5t-133.5 36.5t-133.5 -36.5t-45.5 -142.5t45.5 -142.5
t133.5 -36.5zM342 201h-31v-86h-79v270h118q99 0 99 -91q0 -51 -31 -75l54 -104h-88zM311 307v-28h40q15 0 15 14t-15 14h-40z" />
    <glyph glyph-name="summation" unicode="&#x2211;" horiz-adv-x="910" 
d="M67 375q0 161 113.5 274.5t274.5 113.5t274.5 -113.5t113.5 -274.5t-113.5 -274.5t-274.5 -113.5t-274.5 113.5t-113.5 274.5z" />
    <glyph glyph-name="minus" unicode="&#x2212;" horiz-adv-x="520" 
d="M60 292v98h400v-98h-400z" />
    <glyph glyph-name="radical" unicode="&#x221a;" horiz-adv-x="660" 
d="M80 0v500h500v-500h-500zM475 400h-290v-300h290v300z" />
    <glyph glyph-name="infinity" unicode="&#x221e;" horiz-adv-x="575" 
d="M410 530h-38l-64 128l2 -158h-49v250h55l75 -156l75 156h54v-250h-48l2 158zM78 677q0 -12 12 -17t43 -8q54 -5 75.5 -22t21.5 -55q0 -81 -110 -81q-53 0 -86 14v46q42 -14 87 -14q60 0 60 34q0 15 -11.5 22t-41.5 10q-55 5 -76.5 20t-21.5 51q0 79 105 79q50 0 83 -14
v-46q-42 14 -84 14q-31 0 -43.5 -7.5t-12.5 -25.5z" />
    <glyph glyph-name="integral" unicode="&#x222b;" horiz-adv-x="910" 
d="M80 0v750h750v-750h-750zM725 650h-540v-550h540v550z" />
    <glyph glyph-name="approxequal" unicode="&#x2248;" horiz-adv-x="660" 
d="M80 0v500h500v-500h-500zM475 400h-290v-300h290v300zM273 124l-69 69l57 57l-57 57l69 69l57 -57l57 57l69 -69l-57 -57l57 -57l-69 -69l-57 57z" />
    <glyph glyph-name="notequal" unicode="&#x2260;" horiz-adv-x="910" 
d="M830 0h-750v750h750v-750z" />
    <glyph glyph-name="lessequal" unicode="&#x2264;" horiz-adv-x="860" 
d="M50 348v54l512 361v-126l-306 -201l-21 -12h565v-98h-564l21 -12l305 -201v-126z" />
    <glyph glyph-name="greaterequal" unicode="&#x2265;" horiz-adv-x="860" 
d="M810 402v-54l-512 -361v126l305 201l21 12h-564v98h565l-21 12l-306 201v126z" />
    <glyph glyph-name="lozenge" unicode="&#x25ca;" horiz-adv-x="910" 
d="M80 0v750h750v-750h-750zM725 650h-540v-550h540v550zM386 375l-182 182l69 69l182 -182l182 182l69 -69l-182 -182l182 -182l-69 -69l-182 182l-182 -182l-69 69z" />
    <glyph glyph-name="onethirdemdash" horiz-adv-x="333" 
d="M283 390v-98h-233v98h233z" />
    <glyph glyph-name="threequarteremdash" horiz-adv-x="750" 
d="M690 390v-98h-630v98h630z" />
    <glyph glyph-name="invertedbreve" horiz-adv-x="500" 
d="M270 760q75 0 120.5 -44.5t47.5 -133.5h-67q-2 53 -22.5 72.5t-78.5 19.5t-78.5 -19.5t-22.5 -72.5h-67q2 89 47.5 133.5t120.5 44.5z" />
    <glyph glyph-name="doublegrave" horiz-adv-x="540" 
d="M387 575h-57l-145 175h122zM210 575h-56l-145 175h121z" />
    <glyph glyph-name="a.smcp" horiz-adv-x="572" 
d="M532 0h-108l-43 112h-191l-42 -112h-108l211 513h70zM286 362l-63 -165h125z" />
    <glyph glyph-name="b.smcp" horiz-adv-x="529" 
d="M85 0v500h211q87 0 121.5 -34t34.5 -104q0 -26 -10 -50.5t-26 -33.5q27 -13 42.5 -47t15.5 -73q0 -158 -172 -158h-217zM371 161q0 32 -14 48.5t-51 16.5h-123v-130h123q37 0 51 16.5t14 48.5zM183 315h122q28 0 38 11t10 34t-11 34t-42 11h-117v-90z" />
    <glyph glyph-name="c.smcp" horiz-adv-x="535" 
d="M70 250q0 117 58.5 190t179.5 73q100 0 157 -24v-94q-70 23 -158 23q-71 0 -103 -48.5t-32 -119.5t32 -119.5t103 -48.5q88 0 158 23v-94q-57 -24 -157 -24q-121 0 -179.5 73t-58.5 190z" />
    <glyph glyph-name="d.smcp" horiz-adv-x="573" 
d="M260 0h-175v500h175q243 0 243 -250t-243 -250zM183 94h78q78 0 110.5 40t32.5 116t-32.5 116t-110.5 40h-78v-312z" />
    <glyph glyph-name="e.smcp" horiz-adv-x="532" 
d="M429 303v-94h-245v-115h278v-94h-377v500h377v-94h-278v-103h245z" />
    <glyph glyph-name="f.smcp" horiz-adv-x="512" 
d="M420 303v-94h-237v-209h-98v500h367v-94h-269v-103h237z" />
    <glyph glyph-name="g.smcp" horiz-adv-x="578" 
d="M307 82q52 0 88 7v94h-102v94h200v-254q-67 -36 -186 -36q-121 0 -179 73t-58 190t58 190t179 73q48 0 100 -8t77 -23v-94q-69 30 -177 30q-71 0 -103 -48.5t-32 -119.5t32 -119.5t103 -48.5z" />
    <glyph glyph-name="h.smcp" horiz-adv-x="598" 
d="M513 0h-99v209h-230v-209h-99v500h99v-197h230v197h99v-500z" />
    <glyph glyph-name="i.smcp" horiz-adv-x="312" 
d="M205 0h-98v500h98v-500z" />
    <glyph glyph-name="j.smcp" horiz-adv-x="417" 
d="M45 -3v97q33 -12 84 -12q82 0 82 61v357h99v-355q0 -158 -181 -158q-51 0 -84 10z" />
    <glyph glyph-name="k.smcp" horiz-adv-x="553" 
d="M358 500h145l-216 -210l236 -290h-137l-167 225l-36 -35v-190h-98v500h98v-188z" />
    <glyph glyph-name="l.smcp" horiz-adv-x="512" 
d="M184 500v-406h278v-94h-377v500h99z" />
    <glyph glyph-name="m.smcp" horiz-adv-x="690" 
d="M384 59h-78l-127 258l3 -317h-97v500h109l151 -311l151 311h109v-500h-97l3 317z" />
    <glyph glyph-name="n.smcp" horiz-adv-x="598" 
d="M513 0h-69l-261 316l1 -316h-99v500h69l261 -316l-1 316h99v-500z" />
    <glyph glyph-name="o.smcp" horiz-adv-x="606" 
d="M536 250q0 -263 -233 -263t-233 263t233 263t233 -263zM436 250q0 80 -28.5 124t-104.5 44t-104.5 -43.5t-28.5 -124.5t28.5 -124.5t104.5 -43.5t104.5 44t28.5 124z" />
    <glyph glyph-name="p.smcp" horiz-adv-x="511" 
d="M292 164h-108v-164h-99v500h207q91 0 132.5 -46.5t41.5 -120.5t-42 -121.5t-132 -47.5zM362 332q0 74 -72 74h-106v-149h106q72 0 72 75z" />
    <glyph glyph-name="q.smcp" horiz-adv-x="606" 
d="M536 250q0 -161 -85 -222v-1l236 -41v-110l-452 118q-86 23 -125.5 84.5t-39.5 171.5q0 263 233 263t233 -263zM436 250q0 80 -28.5 124t-104.5 44t-104.5 -43.5t-28.5 -124.5t28.5 -124.5t104.5 -43.5t104.5 44t28.5 124z" />
    <glyph glyph-name="r.smcp" horiz-adv-x="551" 
d="M391 0l-95 183h-112v-183h-99v500h218q172 0 172 -158q0 -102 -80 -142l116 -200h-120zM371 341q0 31 -15 48t-57 17h-115v-130h115q42 0 57 17t15 48z" />
    <glyph glyph-name="s.smcp" horiz-adv-x="530" 
d="M162 355q0 -26 23.5 -36t85.5 -16q108 -10 151 -43.5t43 -106.5q0 -74 -52.5 -120t-167.5 -46q-38 0 -93.5 8t-77.5 18v94q69 -25 172 -25q120 0 120 70q0 29 -22.5 42t-81.5 18q-111 10 -154 40t-43 98q0 163 210 163q106 0 167 -26v-92q-72 23 -168 23
q-61 0 -86.5 -15.5t-25.5 -47.5z" />
    <glyph glyph-name="t.smcp" horiz-adv-x="503" 
d="M458 406h-155v-406h-103v406h-155v94h413v-94z" />
    <glyph glyph-name="u.smcp" horiz-adv-x="598" 
d="M299 -13q-111 0 -165 47t-54 132v334h103v-334q0 -84 116 -84t116 84v334h103v-334q0 -85 -54 -132t-165 -47z" />
    <glyph glyph-name="v.smcp" horiz-adv-x="572" 
d="M422 500h110l-211 -513h-70l-211 513h110l136 -362z" />
    <glyph glyph-name="w.smcp" horiz-adv-x="760" 
d="M610 500h110l-146 -513h-78l-116 364l-116 -364h-78l-146 513h110l78 -324l105 324h94l105 -324z" />
    <glyph glyph-name="x.smcp" horiz-adv-x="583" 
d="M162 0h-127l197 257l-186 243h125l121 -165l121 165h125l-186 -243l196 -257h-126l-130 180z" />
    <glyph glyph-name="y.smcp" horiz-adv-x="608" 
d="M445 500h123l-214 -322v-178h-99v177l-215 323h123l141 -233z" />
    <glyph glyph-name="z.smcp" horiz-adv-x="528" 
d="M478 0h-428v68l276 337h-262v95h405v-68l-277 -337h286v-95z" />
    <glyph glyph-name="aacute.smcp" horiz-adv-x="572" 
d="M532 0h-108l-43 112h-191l-42 -112h-108l211 513h70zM314 575h-56l80 175h121zM286 362l-63 -165h125z" />
    <glyph glyph-name="agrave.smcp" horiz-adv-x="572" 
d="M532 0h-108l-43 112h-191l-42 -112h-108l211 513h70zM314 575h-56l-145 175h121zM286 362l-63 -165h125z" />
    <glyph glyph-name="acircumflex.smcp" horiz-adv-x="572" 
d="M532 0h-108l-43 112h-191l-42 -112h-108l211 513h70zM464 575h-56l-122 105l-122 -105h-56l125 175h106zM286 362l-63 -165h125z" />
    <glyph glyph-name="adieresis.smcp" horiz-adv-x="572" 
d="M532 0h-108l-43 112h-191l-42 -112h-108l211 513h70zM326 667q0 29 20.5 49.5t49.5 20.5t49.5 -20.5t20.5 -49.5t-20.5 -49.5t-49.5 -20.5t-49.5 20.5t-20.5 49.5zM106 667q0 29 20.5 49.5t49.5 20.5t49.5 -20.5t20.5 -49.5t-20.5 -49.5t-49.5 -20.5t-49.5 20.5
t-20.5 49.5zM286 362l-63 -165h125z" />
    <glyph glyph-name="atilde.smcp" horiz-adv-x="572" 
d="M532 0h-108l-43 112h-191l-42 -112h-108l211 513h70zM286 362l-63 -165h125zM401 731l80 -7q-1 -71 -32 -104.5t-93 -32.5q-35 0 -60 15.5t-43 31t-37 15.5t-29 -9t-12.5 -19t-3.5 -27l-80 7q1 71 32 105t93 33q28 -1 50 -11t33 -21.5t26 -21t31 -9.5q19 0 29 9
t12.5 19.5t3.5 26.5z" />
    <glyph glyph-name="aring.smcp" horiz-adv-x="572" 
d="M532 0h-108l-43 112h-191l-42 -112h-108l211 513h70zM387 662q0 -50 -27 -75t-74 -25q-48 0 -75 25t-27 75q0 51 27 76t75 25q47 0 74 -25t27 -76zM286 362l-63 -165h125zM330 662q0 45 -44 45q-23 0 -33.5 -10t-10.5 -35q0 -43 44 -43t44 43z" />
    <glyph glyph-name="lslash.smcp" horiz-adv-x="542" 
d="M375 271l-161 -72v-105h278v-94h-377v154l-90 -40v89l90 40v257h99v-212l161 72v-89z" />
    <glyph glyph-name="ntilde.smcp" horiz-adv-x="598" 
d="M513 0h-69l-261 316l1 -316h-99v500h69l261 -316l-1 316h99v-500zM414 731l80 -7q-1 -71 -32 -104.5t-93 -32.5q-35 0 -60 15.5t-43 31t-37 15.5t-29 -9t-12.5 -19t-3.5 -27l-80 7q1 71 32 105t93 33q28 -1 50 -11t33 -21.5t26 -21t31 -9.5q19 0 29 9t12.5 19.5t3.5 26.5
z" />
    <glyph glyph-name="eth.smcp" horiz-adv-x="603" 
d="M25 205v89h90v206h175q243 0 243 -250t-243 -250h-175v205h-90zM213 94h78q78 0 110.5 40t32.5 116t-32.5 116t-110.5 40h-78v-112h120v-89h-120v-111z" />
    <glyph glyph-name="thorn.smcp" horiz-adv-x="511" 
d="M292 82h-108v-82h-99v500h99v-82h108q91 0 132.5 -46.5t41.5 -120.5t-42 -121.5t-132 -47.5zM362 250q0 74 -72 74h-106v-149h106q72 0 72 75z" />
    <glyph glyph-name="ordfeminine.smcp" horiz-adv-x="400" 
d="M396 375h-108l-20 58h-137l-18 -58h-108l160 388h70zM200 612l-36 -94h71z" />
    <glyph glyph-name="ordmasculine.smcp" horiz-adv-x="469" 
d="M56 565q0 99 42 148.5t133 49.5q182 0 182 -198t-182 -198q-91 0 -133 49.5t-42 148.5zM151 565q0 -57 19 -81.5t61 -24.5q45 0 66.5 25t21.5 81t-21.5 81t-66.5 25q-42 0 -61 -24.5t-19 -81.5z" />
    <glyph glyph-name="Euro.OP" horiz-adv-x="546" 
d="M90 262h-55v99h71q50 152 222 152q93 0 157 -27v-94q-83 27 -158 27t-109 -58h208l-33 -99h-201v-24h191l-33 -99h-132q33 -58 109 -58q75 0 158 27v-94q-64 -27 -157 -27q-173 0 -222 152h-71v99h55v24z" />
    <glyph glyph-name="sterling.OP" horiz-adv-x="565" 
d="M208 339v-36h203v-94h-203v-115h287v-94h-455v94h65v115h-65v94h65v35q0 84 47 129.5t159 45.5q93 0 165 -31v-94q-88 30 -165 30q-56 0 -79.5 -18.5t-23.5 -60.5z" />
    <glyph glyph-name="florin.OP" horiz-adv-x="530" 
d="M305 513q94 0 159 -28v-94q-79 27 -159 27q-38 0 -62 -20t-24 -57v-70h221v-88h-221v-433h-100v433h-93v61l93 27v70q0 81 46 126.5t140 45.5z" />
    <glyph glyph-name="yen.OP" horiz-adv-x="582" 
d="M510 207v-98h-169v-109h-99v109h-170v98h149l-16 24h-133v99h69l-113 171h122l141 -233l141 233h122l-113 -171h69v-99h-134l-16 -24h150z" />
    <glyph glyph-name="numbersign.OP" horiz-adv-x="585" 
d="M245 -1l43 117h-99l-45 -117h-103l45 117h-76l29 99h85l28 71h-77l29 99h86l43 115h103l-44 -115h101l43 115h103l-44 -115h80l-29 -99h-89l-28 -71h81l-29 -99h-89l-45 -117h-102zM254 286l-28 -71h100l28 71h-100z" />
    <glyph glyph-name="dollar.OP" horiz-adv-x="490" 
d="M159 354q0 -23 18.5 -34.5t72.5 -16.5q104 -10 141.5 -45.5t37.5 -106.5q0 -66 -45.5 -113t-143.5 -51l-36 -104h-109l43 113q-43 6 -72 19v97q86 -30 159 -30q104 0 104 68q0 28 -18 42.5t-72 19.5q-103 9 -140.5 44.5t-37.5 97.5q0 64 44 110.5t140 48.5l36 104h109
l-44 -114q25 -5 60 -19v-95q-89 29 -154 29q-53 0 -73 -16.5t-20 -47.5z" />
    <glyph glyph-name="cent.OP" horiz-adv-x="500" 
d="M164 250q0 -78 25.5 -123t93.5 -45q73 0 157 29v-95q-62 -29 -157 -29h-13l-36 -104h-109l48 124q-113 51 -113 243q0 124 49.5 192t165.5 71l36 104h109l-43 -113q40 -9 63 -20v-95q-84 29 -157 29q-68 0 -93.5 -45t-25.5 -123z" />
    <glyph glyph-name="zero.OP" 
d="M300 -13q-238 0 -238 263t238 263t238 -263t-238 -263zM300 418q-133 0 -133 -168q0 -89 34 -128.5t99 -39.5t99 39.5t34 128.5q0 168 -133 168z" />
    <glyph glyph-name="one.OP" horiz-adv-x="360" 
d="M199 513h52v-513h-107v409l-127 -5v58z" />
    <glyph glyph-name="two.OP" horiz-adv-x="500" 
d="M422 349q0 -43 -34 -85t-70.5 -68t-133.5 -89l-18 -12h277v-95h-418v78l250 190q28 22 37.5 39.5t9.5 42.5q0 68 -104 68q-73 0 -159 -30v97q28 11 75 19.5t83 8.5q109 0 157 -45t48 -119z" />
    <glyph glyph-name="three.OP" horiz-adv-x="550" 
d="M226 418q-77 0 -165 -32v99q69 28 165 28q124 0 180 -59t56 -152q0 -44 -19.5 -89.5t-52.5 -67.5q47 -21 71 -70.5t24 -107.5q0 -100 -60.5 -165t-191.5 -65q-108 0 -172 33v96q93 -34 172 -34q146 0 146 135q0 62 -33 92t-107 30h-120v98h120q62 0 89.5 34.5t27.5 80.5
q0 116 -130 116z" />
    <glyph glyph-name="four.OP" 
d="M54 0v62l314 451h70v-418h118v-95h-118v-250h-100v250h-284zM188 95h150v218z" />
    <glyph glyph-name="five.OP" horiz-adv-x="530" 
d="M222 -263q-87 0 -165 38v100q81 -43 166 -43q170 0 170 153q0 35 -10.5 59t-23 36t-39.5 18t-42.5 6.5t-49.5 0.5h-149v395h404v-95h-304v-205q37 3 70 3q53 0 91.5 -7.5t77 -28.5t59 -67t20.5 -115q0 -248 -275 -248z" />
    <glyph glyph-name="six.OP" horiz-adv-x="605" 
d="M520 734v-99q-79 31 -182 31q-47 0 -80.5 -19.5t-52 -57t-27.5 -78.5t-13 -97q54 59 148 59q60 0 103.5 -16t67 -39.5t37.5 -59t17.5 -64t3.5 -64.5q0 -34 -4.5 -64.5t-19.5 -64.5t-39 -58t-66.5 -40t-99.5 -16q-63 0 -108 17t-71.5 45t-41.5 75t-19.5 95t-4.5 117
q0 78 6 137.5t24 116t47.5 93t78 58.5t114.5 22q110 0 182 -29zM174 230q0 -148 139 -148q39 0 66 14.5t39.5 39t17 47t4.5 47.5q0 148 -127 148q-42 0 -71 -14t-43 -37.5t-19.5 -47t-5.5 -49.5z" />
    <glyph glyph-name="seven.OP" horiz-adv-x="465" 
d="M169 -250h-115l282 655h-315v95h423v-68z" />
    <glyph glyph-name="eight.OP" 
d="M300 -13q-132 0 -193 63t-61 162q0 55 24 107t69 77q-32 25 -51 68.5t-19 85.5q0 92 55.5 152.5t175.5 60.5t175.5 -60.5t55.5 -152.5q0 -42 -19 -85.5t-51 -68.5q45 -25 69 -77t24 -107q0 -99 -61 -162t-193 -63zM300 341q-72 0 -110 -34t-38 -95q0 -53 34.5 -91.5
t113.5 -38.5t113.5 38.5t34.5 91.5q0 61 -38 95t-110 34zM300 435q63 0 94 35t31 80q0 49 -27.5 83.5t-97.5 34.5t-97.5 -34.5t-27.5 -83.5q0 -45 31 -80t94 -35z" />
    <glyph glyph-name="nine.OP" horiz-adv-x="605" 
d="M90 -234v99q79 -31 182 -31q47 0 80.5 19.5t52 57t27.5 78.5t13 97q-54 -59 -148 -59q-60 0 -103.5 16t-67 39.5t-37.5 59t-17.5 64t-3.5 64.5q0 34 4.5 64.5t19.5 64.5t39 58t66.5 40t99.5 16q63 0 108 -17t71.5 -45t41.5 -75t19.5 -95t4.5 -117q0 -78 -6 -137.5
t-24 -116t-47.5 -93t-78 -58.5t-114.5 -22q-110 0 -182 29zM436 270q0 148 -139 148q-39 0 -66 -14.5t-39.5 -39t-17 -47t-4.5 -47.5q0 -148 127 -148q42 0 71 14t43 37.5t19.5 47t5.5 49.5z" />
    <glyph glyph-name="zero.LP" 
d="M300 -13q-48 0 -84.5 9.5t-61.5 25.5t-42.5 44t-27.5 56.5t-15.5 73t-7 83t-1.5 96.5t1.5 96.5t7 83t15.5 73t27.5 56.5t42.5 44t61.5 25.5t84.5 9.5t84.5 -9.5t61.5 -25.5t42.5 -44t27.5 -56.5t15.5 -73t7 -83t1.5 -96.5t-1.5 -96.5t-7 -83t-15.5 -73t-27.5 -56.5
t-42.5 -44t-61.5 -25.5t-84.5 -9.5zM300 668q-28 0 -49 -8t-35 -19.5t-23.5 -34.5t-15 -42.5t-8 -55.5t-3 -61.5t-0.5 -71.5t0.5 -71.5t3 -61.5t8 -55.5t15 -42.5t23.5 -34.5t35 -19.5t49 -8t49 8t35 19.5t23.5 34.5t15 42.5t8 55.5t3 61.5t0.5 71.5t-0.5 71.5t-3 61.5
t-8 55.5t-15 42.5t-23.5 34.5t-35 19.5t-49 8z" />
    <glyph glyph-name="two.LP" 
d="M426 555q0 53 -29 82.5t-108 29.5q-95 0 -194 -42v101q83 37 193 37q242 0 242 -208q0 -93 -93 -193l-247 -264h350v-98h-490v70l338 381q38 44 38 104z" />
    <glyph glyph-name="three.LP" 
d="M266 668q-48 0 -108.5 -9.5t-96.5 -22.5v99q30 12 91.5 20t108.5 8q78 0 131 -16.5t80.5 -47.5t38.5 -66t11 -81q0 -44 -19.5 -89.5t-52.5 -67.5q47 -21 71 -70.5t24 -107.5q0 -49 -12 -87t-40.5 -72t-85.5 -52.5t-139 -18.5q-143 0 -207 33v96q93 -34 212 -34
q52 0 87 11.5t51 32.5t22 42t6 49q0 62 -33 92t-107 30h-155v98h155q62 0 89.5 34.5t27.5 80.5q0 53 -31 84.5t-119 31.5z" />
    <glyph glyph-name="four.LP" 
d="M54 202v62l334 499h70v-466h98v-95h-98v-202h-100v202h-304zM181 297h177v264z" />
    <glyph glyph-name="five.LP" 
d="M259 -13q-146 0 -202 33v99q26 -17 85.5 -27t117.5 -10q183 0 183 153q0 22 -3.5 40t-12 30.5t-16 21t-24 14t-26 8.5t-32 4.5t-32.5 1.5h-36h-182v395h454v-95h-354v-205q51 3 111 3q46 0 80 -4t69.5 -17t57.5 -36t36 -64t14 -97q0 -78 -24.5 -130t-69.5 -76.5
t-89.5 -33t-104.5 -8.5z" />
    <glyph glyph-name="six.LP" 
d="M515 734v-99q-79 31 -182 31q-47 0 -80.5 -19.5t-52 -57t-27.5 -78.5t-13 -97q54 59 148 59q60 0 103.5 -16t67 -39.5t37.5 -59t17.5 -64t3.5 -64.5q0 -34 -4.5 -64.5t-19.5 -64.5t-39 -58t-66.5 -40t-99.5 -16q-63 0 -108 17t-71.5 45t-41.5 75t-19.5 95t-4.5 117
q0 78 6 137.5t24 116t47.5 93t78 58.5t114.5 22q109 0 182 -29zM169 230q0 -148 139 -148q39 0 66 14.5t39.5 39t17 47t4.5 47.5q0 148 -127 148q-42 0 -71 -14t-43 -37.5t-19.5 -47t-5.5 -49.5z" />
    <glyph glyph-name="seven.LP" 
d="M225 0h-115l332 655h-392v95h500v-68z" />
    <glyph glyph-name="eight.LP" 
d="M300 -13q-132 0 -193 63t-61 162q0 55 24 107t69 77q-32 25 -51 68.5t-19 85.5q0 92 55.5 152.5t175.5 60.5t175.5 -60.5t55.5 -152.5q0 -42 -19 -85.5t-51 -68.5q45 -25 69 -77t24 -107q0 -99 -61 -162t-193 -63zM300 341q-72 0 -110 -34t-38 -95q0 -53 34.5 -91.5
t113.5 -38.5t113.5 38.5t34.5 91.5q0 61 -38 95t-110 34zM300 435q63 0 94 35t31 80q0 49 -27.5 83.5t-97.5 34.5t-97.5 -34.5t-27.5 -83.5q0 -45 31 -80t94 -35z" />
    <glyph glyph-name="nine.LP" 
d="M85 16v99q79 -31 182 -31q47 0 80.5 19.5t52 57t27.5 78.5t13 97q-54 -59 -148 -59q-60 0 -103.5 16t-67 39.5t-37.5 59t-17.5 64t-3.5 64.5q0 34 4.5 64.5t19.5 64.5t39 58t66.5 40t99.5 16q63 0 108 -17t71.5 -45t41.5 -75t19.5 -95t4.5 -117q0 -78 -6 -137.5t-24 -116
t-47.5 -93t-78 -58.5t-114.5 -22q-109 0 -182 29zM431 520q0 148 -139 148q-39 0 -66 -14.5t-39.5 -39t-17 -47t-4.5 -47.5q0 -148 127 -148q42 0 71 14t43 37.5t19.5 47t5.5 49.5z" />
    <glyph glyph-name="one.LP" horiz-adv-x="360" 
d="M199 763h52v-763h-107v659l-127 -5v58z" />
    <glyph glyph-name="zcaron.smcp" horiz-adv-x="528" 
d="M387 750h56l-125 -175h-106l-125 175h56l122 -105zM478 0h-428v68l276 337h-262v95h405v-68l-277 -337h286v-95z" />
    <glyph glyph-name="yacute.smcp" horiz-adv-x="608" 
d="M445 500h123l-214 -322v-178h-99v177l-215 323h123l141 -233zM332 575h-56l80 175h121z" />
    <glyph glyph-name="ydieresis.smcp" horiz-adv-x="608" 
d="M445 500h123l-214 -322v-178h-99v177l-215 323h123l141 -233zM344 667q0 29 20.5 49.5t49.5 20.5t49.5 -20.5t20.5 -49.5t-20.5 -49.5t-49.5 -20.5t-49.5 20.5t-20.5 49.5zM124 667q0 29 20.5 49.5t49.5 20.5t49.5 -20.5t20.5 -49.5t-20.5 -49.5t-49.5 -20.5t-49.5 20.5
t-20.5 49.5z" />
    <glyph glyph-name="oacute.smcp" horiz-adv-x="606" 
d="M536 250q0 -263 -233 -263t-233 263t233 263t233 -263zM436 250q0 80 -28.5 124t-104.5 44t-104.5 -43.5t-28.5 -124.5t28.5 -124.5t104.5 -43.5t104.5 44t28.5 124zM331 575h-56l80 175h121z" />
    <glyph glyph-name="ograve.smcp" horiz-adv-x="606" 
d="M536 250q0 -263 -233 -263t-233 263t233 263t233 -263zM436 250q0 80 -28.5 124t-104.5 44t-104.5 -43.5t-28.5 -124.5t28.5 -124.5t104.5 -43.5t104.5 44t28.5 124zM331 575h-56l-145 175h121z" />
    <glyph glyph-name="ocircumflex.smcp" horiz-adv-x="606" 
d="M536 250q0 -263 -233 -263t-233 263t233 263t233 -263zM436 250q0 80 -28.5 124t-104.5 44t-104.5 -43.5t-28.5 -124.5t28.5 -124.5t104.5 -43.5t104.5 44t28.5 124zM481 575h-56l-122 105l-122 -105h-56l125 175h106z" />
    <glyph glyph-name="odieresis.smcp" horiz-adv-x="606" 
d="M536 250q0 -263 -233 -263t-233 263t233 263t233 -263zM436 250q0 80 -28.5 124t-104.5 44t-104.5 -43.5t-28.5 -124.5t28.5 -124.5t104.5 -43.5t104.5 44t28.5 124zM123 667q0 29 20.5 49.5t49.5 20.5t49.5 -20.5t20.5 -49.5t-20.5 -49.5t-49.5 -20.5t-49.5 20.5
t-20.5 49.5zM343 667q0 29 20.5 49.5t49.5 20.5t49.5 -20.5t20.5 -49.5t-20.5 -49.5t-49.5 -20.5t-49.5 20.5t-20.5 49.5z" />
    <glyph glyph-name="otilde.smcp" horiz-adv-x="606" 
d="M536 250q0 -263 -233 -263t-233 263t233 263t233 -263zM436 250q0 80 -28.5 124t-104.5 44t-104.5 -43.5t-28.5 -124.5t28.5 -124.5t104.5 -43.5t104.5 44t28.5 124zM418 731l80 -7q-1 -71 -32 -104.5t-93 -32.5q-35 0 -60 15.5t-43 31t-37 15.5t-29 -9t-12.5 -19
t-3.5 -27l-80 7q1 71 32 105t93 33q28 -1 50 -11t33 -21.5t26 -21t31 -9.5q19 0 29 9t12.5 19.5t3.5 26.5z" />
    <glyph glyph-name="oslash.smcp" horiz-adv-x="606" 
d="M536 250q0 -263 -233 -263q-63 0 -110 19l-4 -6h-121l48 69q-46 64 -46 181q0 263 233 263q63 0 109 -20l5 7h121l-48 -69q46 -66 46 -181zM436 250q0 52 -11 88l-174 -249q20 -7 52 -7q76 0 104.5 44t28.5 124zM170 250q0 -56 10 -89l174 250q-24 7 -51 7
q-76 0 -104.5 -43.5t-28.5 -124.5z" />
    <glyph glyph-name="oe.smcp" horiz-adv-x="776" 
d="M673 303v-94h-215v-115h248v-94h-393q-243 0 -243 250t243 250h393v-94h-248v-103h215zM169 250q0 -76 32.5 -116t110.5 -40h47v312h-47q-78 0 -110.5 -40t-32.5 -116z" />
    <glyph glyph-name="scaron.smcp" horiz-adv-x="530" 
d="M162 355q0 -26 23.5 -36t85.5 -16q108 -10 151 -43.5t43 -106.5q0 -74 -52.5 -120t-167.5 -46q-38 0 -93.5 8t-77.5 18v94q69 -25 172 -25q120 0 120 70q0 29 -22.5 42t-81.5 18q-111 10 -154 40t-43 98q0 163 210 163q106 0 167 -26v-92q-72 23 -168 23
q-61 0 -86.5 -15.5t-25.5 -47.5zM379 750h56l-125 -175h-106l-125 175h56l122 -105z" />
    <glyph glyph-name="uacute.smcp" horiz-adv-x="598" 
d="M299 -13q-111 0 -165 47t-54 132v334h103v-334q0 -84 116 -84t116 84v334h103v-334q0 -85 -54 -132t-165 -47zM327 575h-56l80 175h121z" />
    <glyph glyph-name="ugrave.smcp" horiz-adv-x="598" 
d="M299 -13q-111 0 -165 47t-54 132v334h103v-334q0 -84 116 -84t116 84v334h103v-334q0 -85 -54 -132t-165 -47zM327 575h-56l-145 175h121z" />
    <glyph glyph-name="ucircumflex.smcp" horiz-adv-x="598" 
d="M299 -13q-111 0 -165 47t-54 132v334h103v-334q0 -84 116 -84t116 84v334h103v-334q0 -85 -54 -132t-165 -47zM477 575h-56l-122 105l-122 -105h-56l125 175h106z" />
    <glyph glyph-name="udieresis.smcp" horiz-adv-x="598" 
d="M299 -13q-111 0 -165 47t-54 132v334h103v-334q0 -84 116 -84t116 84v334h103v-334q0 -85 -54 -132t-165 -47zM339 667q0 29 20.5 49.5t49.5 20.5t49.5 -20.5t20.5 -49.5t-20.5 -49.5t-49.5 -20.5t-49.5 20.5t-20.5 49.5zM119 667q0 29 20.5 49.5t49.5 20.5t49.5 -20.5
t20.5 -49.5t-20.5 -49.5t-49.5 -20.5t-49.5 20.5t-20.5 49.5z" />
    <glyph glyph-name="iacute.smcp" horiz-adv-x="312" 
d="M205 0h-98v500h98v-500zM185 575h-56l80 175h121z" />
    <glyph glyph-name="igrave.smcp" horiz-adv-x="312" 
d="M205 0h-98v500h98v-500zM185 575h-56l-145 175h121z" />
    <glyph glyph-name="icircumflex.smcp" horiz-adv-x="312" 
d="M205 0h-98v500h98v-500zM335 575h-56l-122 105l-122 -105h-56l125 175h106z" />
    <glyph glyph-name="idieresis.smcp" horiz-adv-x="312" 
d="M205 0h-98v500h98v-500zM197 667q0 29 20.5 49.5t49.5 20.5t49.5 -20.5t20.5 -49.5t-20.5 -49.5t-49.5 -20.5t-49.5 20.5t-20.5 49.5zM-23 667q0 29 20.5 49.5t49.5 20.5t49.5 -20.5t20.5 -49.5t-20.5 -49.5t-49.5 -20.5t-49.5 20.5t-20.5 49.5z" />
    <glyph glyph-name="ae.smcp" horiz-adv-x="780" 
d="M677 303v-94h-215v-115h248v-94h-347v209h-117l-134 -209h-113l329 500h382v-94h-248v-103h215zM307 303h56v87z" />
    <glyph glyph-name="ccedilla.smcp" horiz-adv-x="535" 
d="M347 -185h-102q23 20 32 42.5t-8 36.5q-55 30 -7 96q-97 14 -144.5 84.5t-47.5 175.5q0 117 58.5 190t179.5 73q100 0 157 -24v-94q-70 23 -158 23q-71 0 -103 -48.5t-32 -119.5t32 -119.5t103 -48.5q88 0 158 23v-94q-54 -22 -134 -24q-26 -37 11 -58q30 -17 35 -41
t-5 -41t-25 -32z" />
    <glyph glyph-name="eacute.smcp" horiz-adv-x="532" 
d="M429 303v-94h-245v-115h278v-94h-377v500h377v-94h-278v-103h245zM302 575h-56l80 175h121z" />
    <glyph glyph-name="egrave.smcp" horiz-adv-x="532" 
d="M429 303v-94h-245v-115h278v-94h-377v500h377v-94h-278v-103h245zM302 575h-56l-145 175h121z" />
    <glyph glyph-name="ecircumflex.smcp" horiz-adv-x="532" 
d="M429 303v-94h-245v-115h278v-94h-377v500h377v-94h-278v-103h245zM452 575h-56l-122 105l-122 -105h-56l125 175h106z" />
    <glyph glyph-name="edieresis.smcp" horiz-adv-x="532" 
d="M429 303v-94h-245v-115h278v-94h-377v500h377v-94h-278v-103h245zM94 667q0 29 20.5 49.5t49.5 20.5t49.5 -20.5t20.5 -49.5t-20.5 -49.5t-49.5 -20.5t-49.5 20.5t-20.5 49.5zM314 667q0 29 20.5 49.5t49.5 20.5t49.5 -20.5t20.5 -49.5t-20.5 -49.5t-49.5 -20.5
t-49.5 20.5t-20.5 49.5z" />
    <glyph glyph-name="idotaccent" horiz-adv-x="275" 
d="M221 -13h-19q-61 0 -91 28t-30 93v392h101v-395q0 -13 8.5 -18t30.5 -5v-95zM62 667q0 29 20.5 49.5t49.5 20.5t49.5 -20.5t20.5 -49.5t-20.5 -49.5t-49.5 -20.5t-49.5 20.5t-20.5 49.5z" />
    <glyph glyph-name="Imacron" horiz-adv-x="319" 
d="M212 0h-105v750h105v-750zM297 891h-274v91h274v-91z" />
    <glyph glyph-name="amacron.smcp" horiz-adv-x="572" 
d="M532 0h-108l-43 112h-191l-42 -112h-108l211 513h70zM286 362l-63 -165h125zM423 641h-274v91h274v-91z" />
    <glyph glyph-name="abreve.smcp" horiz-adv-x="572" 
d="M532 0h-108l-43 112h-191l-42 -112h-108l211 513h70zM286 362l-63 -165h125zM286 572q-75 0 -120.5 44.5t-47.5 133.5h67q2 -53 22.5 -72.5t78.5 -19.5t78.5 19.5t22.5 72.5h67q-2 -89 -47.5 -133.5t-120.5 -44.5z" />
    <glyph glyph-name="aogonek.smcp" horiz-adv-x="572" 
d="M532 0q-101 -46 -101 -110q0 -22 14 -34t37 -12q36 0 63 9v-68q-40 -15 -85 -15q-50 0 -84 26.5t-34 77.5q0 71 81 127l-42 111h-191l-42 -112h-108l211 513h70zM286 362l-63 -165h125z" />
    <glyph glyph-name="cacute.smcp" horiz-adv-x="535" 
d="M70 250q0 117 58.5 190t179.5 73q100 0 157 -24v-94q-70 23 -158 23q-71 0 -103 -48.5t-32 -119.5t32 -119.5t103 -48.5q88 0 158 23v-94q-57 -24 -157 -24q-121 0 -179.5 73t-58.5 190zM328 575h-56l80 175h121z" />
    <glyph glyph-name="ccircumflex.smcp" horiz-adv-x="535" 
d="M70 250q0 117 58.5 190t179.5 73q100 0 157 -24v-94q-70 23 -158 23q-71 0 -103 -48.5t-32 -119.5t32 -119.5t103 -48.5q88 0 158 23v-94q-57 -24 -157 -24q-121 0 -179.5 73t-58.5 190zM478 575h-56l-122 105l-122 -105h-56l125 175h106z" />
    <glyph glyph-name="ccaron.smcp" horiz-adv-x="535" 
d="M70 250q0 117 58.5 190t179.5 73q100 0 157 -24v-94q-70 23 -158 23q-71 0 -103 -48.5t-32 -119.5t32 -119.5t103 -48.5q88 0 158 23v-94q-57 -24 -157 -24q-121 0 -179.5 73t-58.5 190zM122 750h56l122 -105l122 105h56l-125 -175h-106z" />
    <glyph glyph-name="cdotaccent.smcp" horiz-adv-x="535" 
d="M70 250q0 117 58.5 190t179.5 73q100 0 157 -24v-94q-70 23 -158 23q-71 0 -103 -48.5t-32 -119.5t32 -119.5t103 -48.5q88 0 158 23v-94q-57 -24 -157 -24q-121 0 -179.5 73t-58.5 190zM230 667q0 29 20.5 49.5t49.5 20.5t49.5 -20.5t20.5 -49.5t-20.5 -49.5
t-49.5 -20.5t-49.5 20.5t-20.5 49.5z" />
    <glyph glyph-name="dcaron.smcp" horiz-adv-x="573" 
d="M260 0h-175v500h175q243 0 243 -250t-243 -250zM183 94h78q78 0 110.5 40t32.5 116t-32.5 116t-110.5 40h-78v-312zM388 750h56l-125 -175h-106l-125 175h56l122 -105z" />
    <glyph glyph-name="ecaron.smcp" horiz-adv-x="532" 
d="M429 303v-94h-245v-115h278v-94h-377v500h377v-94h-278v-103h245zM396 750h56l-125 -175h-106l-125 175h56l122 -105z" />
    <glyph glyph-name="emacron.smcp" horiz-adv-x="532" 
d="M429 303v-94h-245v-115h278v-94h-377v500h377v-94h-278v-103h245zM411 641h-274v91h274v-91z" />
    <glyph glyph-name="ebreve.smcp" horiz-adv-x="532" 
d="M429 303v-94h-245v-115h278v-94h-377v500h377v-94h-278v-103h245zM274 572q-75 0 -120.5 44.5t-47.5 133.5h67q2 -53 22.5 -72.5t78.5 -19.5t78.5 19.5t22.5 72.5h67q-2 -89 -47.5 -133.5t-120.5 -44.5z" />
    <glyph glyph-name="eogonek.smcp" horiz-adv-x="532" 
d="M429 303v-94h-245v-115h278v-94q-101 -46 -101 -110q0 -22 14 -34t37 -12q36 0 63 9v-68q-40 -15 -85 -15q-50 0 -84 26.5t-34 77.5q0 72 79 126h-266v500h377v-94h-278v-103h245z" />
    <glyph glyph-name="gcircumflex.smcp" horiz-adv-x="578" 
d="M307 82q52 0 88 7v94h-102v94h200v-254q-67 -36 -186 -36q-121 0 -179 73t-58 190t58 190t179 73q48 0 100 -8t77 -23v-94q-69 30 -177 30q-71 0 -103 -48.5t-32 -119.5t32 -119.5t103 -48.5zM477 575h-56l-122 105l-122 -105h-56l125 175h106z" />
    <glyph glyph-name="gbreve.smcp" horiz-adv-x="578" 
d="M307 82q52 0 88 7v94h-102v94h200v-254q-67 -36 -186 -36q-121 0 -179 73t-58 190t58 190t179 73q48 0 100 -8t77 -23v-94q-69 30 -177 30q-71 0 -103 -48.5t-32 -119.5t32 -119.5t103 -48.5zM299 572q-75 0 -120.5 44.5t-47.5 133.5h67q2 -53 22.5 -72.5t78.5 -19.5
t78.5 19.5t22.5 72.5h67q-2 -89 -47.5 -133.5t-120.5 -44.5z" />
    <glyph glyph-name="gdotaccent.smcp" horiz-adv-x="578" 
d="M307 82q52 0 88 7v94h-102v94h200v-254q-67 -36 -186 -36q-121 0 -179 73t-58 190t58 190t179 73q48 0 100 -8t77 -23v-94q-69 30 -177 30q-71 0 -103 -48.5t-32 -119.5t32 -119.5t103 -48.5zM229 667q0 29 20.5 49.5t49.5 20.5t49.5 -20.5t20.5 -49.5t-20.5 -49.5
t-49.5 -20.5t-49.5 20.5t-20.5 49.5z" />
    <glyph glyph-name="gcommaaccent.smcp" horiz-adv-x="578" 
d="M307 82q52 0 88 7v94h-102v94h200v-254q-67 -36 -186 -36q-121 0 -179 73t-58 190t58 190t179 73q48 0 100 -8t77 -23v-94q-69 30 -177 30q-71 0 -103 -48.5t-32 -119.5t32 -119.5t103 -48.5zM318 -250h-61l14 66q-41 18 -41 64q0 29 20.5 49.5t49.5 20.5t49.5 -20.5
t20.5 -49.5q0 -18 -8 -34z" />
    <glyph glyph-name="hcircumflex.smcp" horiz-adv-x="598" 
d="M513 0h-99v209h-230v-209h-99v500h99v-197h230v197h99v-500zM477 575h-56l-122 105l-122 -105h-56l125 175h106z" />
    <glyph glyph-name="hbar.smcp" horiz-adv-x="598" 
d="M414 438v62h99v-500h-99v209h-230v-209h-99v500h99v-62h230zM184 303h230v52h-230v-52z" />
    <glyph glyph-name="itilde.smcp" horiz-adv-x="312" 
d="M205 0h-98v500h98v-500zM272 731l80 -7q-1 -71 -32 -104.5t-93 -32.5q-35 0 -60 15.5t-43 31t-37 15.5t-29 -9t-12.5 -19t-3.5 -27l-80 7q1 71 32 105t93 33q28 -1 50 -11t33 -21.5t26 -21t31 -9.5q19 0 29 9t12.5 19.5t3.5 26.5z" />
    <glyph glyph-name="imacron.smcp" horiz-adv-x="312" 
d="M205 0h-98v500h98v-500zM293 641h-274v91h274v-91z" />
    <glyph glyph-name="ibreve.smcp" horiz-adv-x="312" 
d="M205 0h-98v500h98v-500zM156 572q-75 0 -120.5 44.5t-47.5 133.5h67q2 -53 22.5 -72.5t78.5 -19.5t78.5 19.5t22.5 72.5h67q-2 -89 -47.5 -133.5t-120.5 -44.5z" />
    <glyph glyph-name="iogonek.smcp" horiz-adv-x="312" 
d="M205 0q-76 -54 -76 -110q0 -22 14 -34t37 -12q36 0 63 9v-68q-40 -15 -85 -15q-50 0 -84 26.5t-34 77.5q0 75 67 127v499h98v-500z" />
    <glyph glyph-name="jcircumflex.smcp" horiz-adv-x="417" 
d="M45 -3v97q33 -12 84 -12q82 0 82 61v357h99v-355q0 -158 -181 -158q-51 0 -84 10zM439 575h-56l-122 105l-122 -105h-56l125 175h106z" />
    <glyph glyph-name="lacute.smcp" horiz-adv-x="512" 
d="M184 500v-406h278v-94h-377v500h99zM163 575h-56l80 175h121z" />
    <glyph glyph-name="lcaron.smcp" horiz-adv-x="512" 
d="M184 500v-406h278v-94h-377v500h99zM293 600h88l-48 -200h-56z" />
    <glyph glyph-name="lcommaaccent.smcp" horiz-adv-x="512" 
d="M184 500v-406h278v-94h-377v500h99zM297 -250h-61l14 66q-41 18 -41 64q0 29 20.5 49.5t49.5 20.5t49.5 -20.5t20.5 -49.5q0 -18 -8 -34z" />
    <glyph glyph-name="nacute.smcp" horiz-adv-x="598" 
d="M513 0h-69l-261 316l1 -316h-99v500h69l261 -316l-1 316h99v-500zM327 575h-56l80 175h121z" />
    <glyph glyph-name="ncaron.smcp" horiz-adv-x="598" 
d="M513 0h-69l-261 316l1 -316h-99v500h69l261 -316l-1 316h99v-500zM421 750h56l-125 -175h-106l-125 175h56l122 -105z" />
    <glyph glyph-name="omacron.smcp" horiz-adv-x="606" 
d="M536 250q0 -263 -233 -263t-233 263t233 263t233 -263zM436 250q0 80 -28.5 124t-104.5 44t-104.5 -43.5t-28.5 -124.5t28.5 -124.5t104.5 -43.5t104.5 44t28.5 124zM440 641h-274v91h274v-91z" />
    <glyph glyph-name="obreve.smcp" horiz-adv-x="606" 
d="M536 250q0 -263 -233 -263t-233 263t233 263t233 -263zM436 250q0 80 -28.5 124t-104.5 44t-104.5 -43.5t-28.5 -124.5t28.5 -124.5t104.5 -43.5t104.5 44t28.5 124zM303 572q-75 0 -120.5 44.5t-47.5 133.5h67q2 -53 22.5 -72.5t78.5 -19.5t78.5 19.5t22.5 72.5h67
q-2 -89 -47.5 -133.5t-120.5 -44.5z" />
    <glyph glyph-name="ohungarumlaut.smcp" horiz-adv-x="606" 
d="M536 250q0 -263 -233 -263t-233 263t233 263t233 -263zM436 250q0 80 -28.5 124t-104.5 44t-104.5 -43.5t-28.5 -124.5t28.5 -124.5t104.5 -43.5t104.5 44t28.5 124zM236 575h-57l80 175h122zM412 575h-56l80 175h121z" />
    <glyph glyph-name="racute.smcp" horiz-adv-x="551" 
d="M391 0l-95 183h-112v-183h-99v500h218q172 0 172 -158q0 -102 -80 -142l116 -200h-120zM371 341q0 31 -15 48t-57 17h-115v-130h115q42 0 57 17t15 48zM294 575h-56l80 175h121z" />
    <glyph glyph-name="rcaron.smcp" horiz-adv-x="551" 
d="M391 0l-95 183h-112v-183h-99v500h218q172 0 172 -158q0 -102 -80 -142l116 -200h-120zM371 341q0 31 -15 48t-57 17h-115v-130h115q42 0 57 17t15 48zM388 750h56l-125 -175h-106l-125 175h56l122 -105z" />
    <glyph glyph-name="sacute.smcp" horiz-adv-x="530" 
d="M162 355q0 -26 23.5 -36t85.5 -16q108 -10 151 -43.5t43 -106.5q0 -74 -52.5 -120t-167.5 -46q-38 0 -93.5 8t-77.5 18v94q69 -25 172 -25q120 0 120 70q0 29 -22.5 42t-81.5 18q-111 10 -154 40t-43 98q0 163 210 163q106 0 167 -26v-92q-72 23 -168 23
q-61 0 -86.5 -15.5t-25.5 -47.5zM285 575h-56l80 175h121z" />
    <glyph glyph-name="scircumflex.smcp" horiz-adv-x="530" 
d="M162 355q0 -26 23.5 -36t85.5 -16q108 -10 151 -43.5t43 -106.5q0 -74 -52.5 -120t-167.5 -46q-38 0 -93.5 8t-77.5 18v94q69 -25 172 -25q120 0 120 70q0 29 -22.5 42t-81.5 18q-111 10 -154 40t-43 98q0 163 210 163q106 0 167 -26v-92q-72 23 -168 23
q-61 0 -86.5 -15.5t-25.5 -47.5zM135 575h-56l125 175h106l125 -175h-56l-122 105z" />
    <glyph glyph-name="scommaaccent.smcp" horiz-adv-x="530" 
d="M162 355q0 -26 23.5 -36t85.5 -16q108 -10 151 -43.5t43 -106.5q0 -74 -52.5 -120t-167.5 -46q-38 0 -93.5 8t-77.5 18v94q69 -25 172 -25q120 0 120 70q0 29 -22.5 42t-81.5 18q-111 10 -154 40t-43 98q0 163 210 163q106 0 167 -26v-92q-72 23 -168 23
q-61 0 -86.5 -15.5t-25.5 -47.5zM267 -250h-61l14 66q-41 18 -41 64q0 29 20.5 49.5t49.5 20.5t49.5 -20.5t20.5 -49.5q0 -18 -8 -34z" />
    <glyph glyph-name="scedilla.smcp" horiz-adv-x="530" 
d="M296 -185h-102q23 20 32 42.5t-8 36.5q-54 29 -8 95q-101 8 -136 24v94q69 -25 172 -25q120 0 120 70q0 29 -22.5 42t-81.5 18q-111 10 -154 40t-43 98q0 163 210 163q106 0 167 -26v-92q-72 23 -168 23q-61 0 -86.5 -15.5t-25.5 -47.5q0 -26 23.5 -36t85.5 -16
q108 -10 151 -43.5t43 -106.5q0 -67 -44 -112t-140 -52q-27 -38 10 -60q30 -17 35 -41t-5 -41t-25 -32z" />
    <glyph glyph-name="tcaron.smcp" horiz-adv-x="503" 
d="M458 406h-155v-406h-103v406h-155v94h413v-94zM374 750h56l-125 -175h-106l-125 175h56l122 -105z" />
    <glyph glyph-name="tcommaaccent.smcp" horiz-adv-x="503" 
d="M458 406h-155v-406h-103v406h-155v94h413v-94zM270 -250h-61l14 66q-41 18 -41 64q0 29 20.5 49.5t49.5 20.5t49.5 -20.5t20.5 -49.5q0 -18 -8 -34z" />
    <glyph glyph-name="tbar.smcp" horiz-adv-x="503" 
d="M458 406h-155v-108h101v-83h-101v-215h-103v215h-101v83h101v108h-155v94h413v-94z" />
    <glyph glyph-name="utilde.smcp" horiz-adv-x="598" 
d="M299 -13q-111 0 -165 47t-54 132v334h103v-334q0 -84 116 -84t116 84v334h103v-334q0 -85 -54 -132t-165 -47zM414 731l80 -7q-1 -71 -32 -104.5t-93 -32.5q-35 0 -60 15.5t-43 31t-37 15.5t-29 -9t-12.5 -19t-3.5 -27l-80 7q1 71 32 105t93 33q28 -1 50 -11t33 -21.5
t26 -21t31 -9.5q19 0 29 9t12.5 19.5t3.5 26.5z" />
    <glyph glyph-name="uring.smcp" horiz-adv-x="598" 
d="M299 -13q-111 0 -165 47t-54 132v334h103v-334q0 -84 116 -84t116 84v334h103v-334q0 -85 -54 -132t-165 -47zM400 662q0 -50 -27 -75t-74 -25q-48 0 -75 25t-27 75q0 51 27 76t75 25q47 0 74 -25t27 -76zM343 662q0 45 -44 45q-23 0 -33.5 -10t-10.5 -35q0 -43 44 -43
t44 43z" />
    <glyph glyph-name="umacron.smcp" horiz-adv-x="598" 
d="M299 -13q-111 0 -165 47t-54 132v334h103v-334q0 -84 116 -84t116 84v334h103v-334q0 -85 -54 -132t-165 -47zM436 641h-274v91h274v-91z" />
    <glyph glyph-name="ubreve.smcp" horiz-adv-x="598" 
d="M299 -13q-111 0 -165 47t-54 132v334h103v-334q0 -84 116 -84t116 84v334h103v-334q0 -85 -54 -132t-165 -47zM299 572q-75 0 -120.5 44.5t-47.5 133.5h67q2 -53 22.5 -72.5t78.5 -19.5t78.5 19.5t22.5 72.5h67q-2 -89 -47.5 -133.5t-120.5 -44.5z" />
    <glyph glyph-name="uhungarumlaut.smcp" horiz-adv-x="598" 
d="M299 -13q-111 0 -165 47t-54 132v334h103v-334q0 -84 116 -84t116 84v334h103v-334q0 -85 -54 -132t-165 -47zM232 575h-57l80 175h122zM408 575h-56l80 175h121z" />
    <glyph glyph-name="uogonek.smcp" horiz-adv-x="598" 
d="M518 166q0 -130 -119 -166q-101 -46 -101 -110q0 -22 14 -34t37 -12q36 0 63 9v-68q-40 -15 -85 -15q-50 0 -84 26.5t-34 77.5q0 63 63 114q-97 5 -144.5 51.5t-47.5 126.5v334h103v-334q0 -84 116 -84t116 84v334h103v-334z" />
    <glyph glyph-name="wcircumflex.smcp" horiz-adv-x="760" 
d="M610 500h110l-146 -513h-78l-116 364l-116 -364h-78l-146 513h110l78 -324l105 324h94l105 -324zM558 575h-56l-122 105l-122 -105h-56l125 175h106z" />
    <glyph glyph-name="ycircumflex.smcp" horiz-adv-x="608" 
d="M445 500h123l-214 -322v-178h-99v177l-215 323h123l141 -233zM482 575h-56l-122 105l-122 -105h-56l125 175h106z" />
    <glyph glyph-name="zacute.smcp" horiz-adv-x="528" 
d="M478 0h-428v68l276 337h-262v95h405v-68l-277 -337h286v-95zM293 575h-56l80 175h121z" />
    <glyph glyph-name="zdotaccent.smcp" horiz-adv-x="528" 
d="M478 0h-428v68l276 337h-262v95h405v-68l-277 -337h286v-95zM194 667q0 29 20.5 49.5t49.5 20.5t49.5 -20.5t20.5 -49.5t-20.5 -49.5t-49.5 -20.5t-49.5 20.5t-20.5 49.5z" />
    <glyph glyph-name="commaaccent" 
d="M230 -120q0 29 20.5 49.5t49.5 20.5t49.5 -20.5t20.5 -49.5t-20.5 -49.5t-49.5 -20.5t-49.5 20.5t-20.5 49.5z" />
    <glyph glyph-name="idotaccent.smcp" horiz-adv-x="312" 
d="M86 667q0 29 20.5 49.5t49.5 20.5t49.5 -20.5t20.5 -49.5t-20.5 -49.5t-49.5 -20.5t-49.5 20.5t-20.5 49.5zM205 0h-98v500h98v-500z" />
    <glyph glyph-name="kcommaaccent.smcp" horiz-adv-x="553" 
d="M295 -250h-61l14 66q-41 18 -41 64q0 29 20.5 49.5t49.5 20.5t49.5 -20.5t20.5 -49.5q0 -18 -8 -34zM358 500h145l-216 -210l236 -290h-137l-167 225l-36 -35v-190h-98v500h98v-188z" />
    <glyph glyph-name="ldot.smcp" horiz-adv-x="512" 
d="M184 500v-406h278v-94h-377v500h99zM318 275q0 29 20.5 49.5t49.5 20.5t49.5 -20.5t20.5 -49.5t-20.5 -49.5t-49.5 -20.5t-49.5 20.5t-20.5 49.5z" />
    <glyph glyph-name="ncommaaccent.smcp" horiz-adv-x="598" 
d="M513 0h-69l-261 316l1 -316h-99v500h69l261 -316l-1 316h99v-500zM317 -250h-61l14 66q-41 18 -41 64q0 29 20.5 49.5t49.5 20.5t49.5 -20.5t20.5 -49.5q0 -18 -8 -34z" />
    <glyph glyph-name="rcommaaccent.smcp" horiz-adv-x="551" 
d="M391 0l-95 183h-112v-183h-99v500h218q172 0 172 -158q0 -102 -80 -142l116 -200h-120zM371 341q0 31 -15 48t-57 17h-115v-130h115q42 0 57 17t15 48zM302 -250h-61l14 66q-41 18 -41 64q0 29 20.5 49.5t49.5 20.5t49.5 -20.5t20.5 -49.5q0 -18 -8 -34z" />
    <glyph glyph-name="edotaccent.smcp" horiz-adv-x="532" 
d="M429 303v-94h-245v-115h278v-94h-377v500h377v-94h-278v-103h245zM204 667q0 29 20.5 49.5t49.5 20.5t49.5 -20.5t20.5 -49.5t-20.5 -49.5t-49.5 -20.5t-49.5 20.5t-20.5 49.5z" />
    <glyph glyph-name="dcroat.smcp" horiz-adv-x="603" 
d="M25 205v89h90v206h175q243 0 243 -250t-243 -250h-175v205h-90zM213 94h78q78 0 110.5 40t32.5 116t-32.5 116t-110.5 40h-78v-112h120v-89h-120v-111z" />
    <glyph glyph-name="eng.smcp" horiz-adv-x="598" 
d="M293 -260v92q49 6 85.5 29.5t36.5 63.5v110l-232 281l1 -316h-99v500h69l261 -316l-1 316h99v-588q0 -75 -67.5 -121t-152.5 -51z" />
    <glyph glyph-name="dotbelow" 
d="M318 -250h-61l14 66q-41 18 -41 64q0 29 20.5 49.5t49.5 20.5t49.5 -20.5t20.5 -49.5q0 -18 -8 -34z" />
    <glyph glyph-name="caronSlovak" horiz-adv-x="275" 
d="M243 750h88l-48 -200h-56z" />
    <glyph glyph-name="germandbls.smcp" horiz-adv-x="1060" 
d="M162 355q0 -26 23.5 -36t85.5 -16q108 -10 151 -43.5t43 -106.5q0 -74 -52.5 -120t-167.5 -46q-38 0 -93.5 8t-77.5 18v94q69 -25 172 -25q120 0 120 70q0 29 -22.5 42t-81.5 18q-111 10 -154 40t-43 98q0 163 210 163q106 0 167 -26v-92q-72 23 -168 23
q-61 0 -86.5 -15.5t-25.5 -47.5zM692 355q0 -26 23.5 -36t85.5 -16q108 -10 151 -43.5t43 -106.5q0 -74 -52.5 -120t-167.5 -46q-38 0 -93.5 8t-77.5 18v94q69 -25 172 -25q120 0 120 70q0 29 -22.5 42t-81.5 18q-111 10 -154 40t-43 98q0 163 210 163q106 0 167 -26v-92
q-72 23 -168 23q-61 0 -86.5 -15.5t-25.5 -47.5z" />
    <glyph glyph-name="ij.smcp" horiz-adv-x="729" 
d="M205 0h-98v500h98v-500zM357 -3v97q33 -12 84 -12q82 0 82 61v357h99v-355q0 -158 -181 -158q-51 0 -84 10z" />
    </font>
</defs>
</svg>
